<?xml version="1.0" encoding="UTF-8"?>
<svg width="41.483" height="18.746" data-name="Livello 1" version="1.1" viewBox="0 0 41.483 18.746" xmlns="http://www.w3.org/2000/svg">
 <path d="m14.14 13.88"/>
 <path d="m41.48 7.3299c0-0.14-0.15-0.18-0.28-0.22-1.47-0.52-3-1-4.46-1.42a82.14 82.14 0 0 1-8.11-2.58c-2.26-0.91-4.48-1.92-6.74-2.84a2.78 2.78 0 0 0-2.39 0c-2.36 1.05-4.67 2.22-7 3.24-2.71 1.17-5.54 2-8.33 2.94-1.4 0.46-2.8 0.93-4.17 1.51v0.37c1.36 0.72 2.71 1.43 4 2.2a71.32 71.32 0 0 0 7.82 4.16c3 1.31 6.08 2.5 9 4a0.37 0.37 0 0 0 0.39 0c1.37-0.76 2.77-1.46 4.17-2.14 2.66-1.28 5.36-2.49 7.9-4 2.7-1.6 5.25-3.44 8-4.94 0.12-0.13 0.22-0.2 0.2-0.28zm-8.85-2.45 3.57 1a22.38 22.38 0 0 0-2.54 1.94 1.62 1.62 0 0 1-1.4 0.46c-1-0.11-2-0.15-3-0.22h-0.23c0.16-0.2 0.29-0.37 0.43-0.53a17.35 17.35 0 0 1 2.59-2.55 0.54 0.54 0 0 1 0.58-0.1zm-5.95 3a8.06 8.06 0 0 0 1.7 0.45l-1.31 2.06a6.84 6.84 0 0 0-0.34-2.51zm0.27 3.56a16.42 16.42 0 0 1 1.78-2.92 0.22 0.22 0 0 1 0.24-0.11c1.2 0.17 2.42 0.15 3.63 0.28 0 0.1-0.06 0.12-0.1 0.17l-3 2.65a1.67 1.67 0 0 1-0.54 0.33 8.23 8.23 0 0 0-2.55 1.55 0.78 0.78 0 0 1-0.54 0.27 10.47 10.47 0 0 0 1.08-2.22zm1.47-8c1.12 0.46 2.25 0.85 3.46 1.25-0.35 0.3-0.67 0.57-1 0.85a16.5 16.5 0 0 0-2.08 2.26 0.43 0.43 0 0 1-0.51 0.19 8.16 8.16 0 0 1-1.67-0.48 0.46 0.46 0 0 1-0.27-0.22 6.07 6.07 0 0 0-0.82-1.2c-0.11-0.13-0.1-0.2 0-0.33a18.24 18.24 0 0 1 2.46-2.27 0.35 0.35 0 0 1 0.43-0.08zm-3.92-1.67 3.23 1.34 0.11 0.08a16.73 16.73 0 0 0-2.5 2.32c-0.11 0.13-0.19 0.09-0.29 0a6.2 6.2 0 0 0-3.68-1.56c-0.09 0-0.2 0-0.22-0.13s0.09-0.12 0.16-0.17a28.73 28.73 0 0 1 2.87-1.86 0.36 0.36 0 0 1 0.32-0.05zm-3 12.8a0.72 0.72 0 0 1-0.44 0.13h-0.42c-0.16 0-0.29 0-0.51-0.13h1.4zm-1-14.27a0.46 0.46 0 0 1 0.37 0.05l3 1.15a2 2 0 0 1-0.51 0.34c-0.83 0.51-1.63 1-2.4 1.61-0.17 0.13-0.28 0.16-0.46 0a28.54 28.54 0 0 0-3.06-1.85c1.11-0.46 2.12-0.89 3.12-1.33zm-3.7 1.63a0.4 0.4 0 0 1 0.42 0 29.9 29.9 0 0 1 2.93 1.76c0.07 0 0.18 0.07 0.17 0.16s-0.13 0.13-0.22 0.14a9.09 9.09 0 0 0-1.35 0.31 6.26 6.26 0 0 0-2.26 1.38c-0.1 0.09-0.16 0.18-0.31 0a16.33 16.33 0 0 0-2.62-2.25zm-3.79 1.77a0.27 0.27 0 0 1 0.31 0 18.64 18.64 0 0 1 2.59 2.19c0.14 0.15 0.12 0.24 0 0.38a3.69 3.69 0 0 0-0.63 1 1 1 0 0 1-0.58 0.53 9.86 9.86 0 0 1-1.6 0.49 0.27 0.27 0 0 1-0.31-0.09 18.79 18.79 0 0 0-3.23-3.07 0.24 0.24 0 0 1 0-0.07c1.17-0.43 2.37-0.88 3.51-1.39zm1.58 7-1.36-2.07a8.32 8.32 0 0 0 1.72-0.53 6.18 6.18 0 0 0-0.3 2.58zm-0.23 0.36a5.47 5.47 0 0 1 0.55 1.11 5.65 5.65 0 0 0 0.91 1.69 0.57 0.57 0 0 1-0.49-0.18 7.81 7.81 0 0 0-2.74-1.5 1.12 1.12 0 0 1-0.42-0.25l-3.34-2.75 2.68-0.27a3.86 3.86 0 0 0 0.77-0.1 0.62 0.62 0 0 1 0.79 0.32c0.5 0.62 0.94 1.25 1.35 1.91zm-8.03-4.91 2.56-0.82a0.37 0.37 0 0 1 0.39 0 18.37 18.37 0 0 1 3.29 3.09l-2.2 0.24-1.64 0.16a0.45 0.45 0 0 1-0.37-0.07 33.25 33.25 0 0 0-3.18-2.24zm-3.82 3.08a20.43 20.43 0 0 0-2-1.08c1.33-0.52 2.62-1 3.92-1.41a0.56 0.56 0 0 1 0.53 0.06 31.88 31.88 0 0 1 3 2.12c-1 0.16-2 0.37-2.93 0.61h-0.03a2.28 2.28 0 0 1-2.49-0.3zm5 2.85-3.35-1.93c0.87-0.27 1.68-0.45 2.49-0.62 0.44-0.09 0.9-0.14 1.34-0.24a0.76 0.76 0 0 1 0.74 0.19c0.93 0.79 1.88 1.56 2.83 2.35 0.05 0 0.13 0.06 0.09 0.1s-0.2 0-0.3 0a12.19 12.19 0 0 0-3.41 0.2 0.61 0.61 0 0 1-0.42-0.05zm4.15 2.08c-1.18-0.53-2.33-1.09-3.53-1.74a9.89 9.89 0 0 1 4 0 1.11 1.11 0 0 1 0.45 0.22 11 11 0 0 0 1.93 1.14c0.07 0 0.12 0 0.15 0.13h-0.51a11 11 0 0 0-2.05 0.27 0.61 0.61 0 0 1-0.43-0.02zm4.47 1.91-3.8-1.6a11.68 11.68 0 0 1 2.5-0.26c1.19 0 2.32 0.4 3.49 0.5 0.5 0 1 0.12 1.49 0.18-1.16 0.35-2.31 0.72-3.44 1.15a0.29 0.29 0 0 1-0.23 0.03zm7.72 0.72-2.62 1.36a0.4 0.4 0 0 1-0.42 0c-1.3-0.63-2.61-1.23-3.94-1.8a0.76 0.76 0 0 1-0.14-0.02 27 27 0 0 1 4-1.17 4.07 4.07 0 0 1 1.58 0.2 29.69 29.69 0 0 1 2.92 0.79zm8-4c-2 1.1-4 2-6 3a0.34 0.34 0 0 1-0.3 0.05 30.53 30.53 0 0 0-3.4-0.94l-0.14-0.07a36 36 0 0 0 3.58-0.68 9.06 9.06 0 0 0 3.22-1.66 3.06 3.06 0 0 1 1.54-0.65 11.25 11.25 0 0 1 3.17 0zm2.21-1.3a0.27 0.27 0 0 1-0.23 0 11.44 11.44 0 0 0-3.83 0l2.9-2.62a0.49 0.49 0 0 1 0.41-0.17 29.1 29.1 0 0 1 3.82 0.68 0.59 0.59 0 0 1 0.14 0.07zm5.32-3.35-1.45 0.9a0.48 0.48 0 0 1-0.4 0.09 28.51 28.51 0 0 0-3.8-0.7l-0.13-0.1 0.9-0.74c0.63-0.51 1.29-1 2-1.44a0.48 0.48 0 0 1 0.43-0.08c1.29 0.4 2.59 0.79 3.92 1.26z"/>
</svg>
