<?xml version="1.0" encoding="UTF-8" standalone="yes"?>
<!-- Created with sK1/UniConvertor (http://sk1project.org/) -->
<svg xmlns="http://www.w3.org/2000/svg" xmlns:xlink="http://www.w3.org/1999/xlink"
  width="823pt" height="175pt" viewBox="0 0 823 175"
  fill-rule="evenodd">
<g>
<g>
<path style="stroke:none; fill:#000000" d="M 0 87.5L 0 170L 411.5 170L 823 170L 823 87.5L 823 5L 589.4 5C 434 5 356.1 5.3 356.5 6C 356.8 6.60001 357.8 7 358.7 7C 361.3 7 373.5 13.9 376.6 17.1L 379.4 20L 375.2 24.3C 371 28.5 371 28.5 368.2 26.8C 353.1 17.2 338.2 17.8 327.4 28.5C 323.3 32.5 321.9 34.7 320.5 39.5C 316.4 53.8 322.2 67.3 335 73.4C 340.9 76.2 355.8 76.4 360.7 73.7L 363.9 72L 364.2 59.7L 364.5 47.5L 371.3 47.2L 378 46.9L 378 63.4L 378 79.9L 371 83.4C 362 87.9 354.7 89.3 344 88.8C 334 88.2 326.7 85.7 319.5 80.2C 308.7 72 303.7 61.7 303.6 47.4C 303.5 38.9 303.7 37.9 307.3 30.8C 311.8 21.5 320.5 13 329.1 9.3C 332.3 7.90001 334.7 6.40001 334.4 5.90001C 334.1 5.40001 261.5 5.00002 166.9 5.00002L -1.52588e-05 5.00002L 0 87.5zM 446 11.2C 452.3 14.2 458.2 19.9 460.5 25.2C 462.9 31.1 462.5 42.4 459.6 48.5C 457.3 53.5 452.7 58.3 448.2 60.3C 446.9 60.9 446.1 61.9 446.4 62.7C 446.7 63.4 450.6 69.1 455 75.4C 459.4 81.7 463 87.1 463 87.4C 463 87.7 459.5 88 455.3 88L 447.5 88L 439.6 76.5L 431.7 65L 420.8 65L 410 65L 410 76.5L 410 88.1L 402.8 87.8L 395.5 87.5L 395.2 47.7L 395 7.79999L 417.7 8.19998C 439.8 8.49998 440.7 8.59999 446 11.2zM 526.7 21.7C 530.1 29.3 538.1 47 544.5 61C 550.8 75 556 86.8 556 87.3C 556 87.7 552.6 88 548.3 87.8L 540.7 87.5L 537.3 79.5C 535.4 75.1 533.6 71.2 533.2 70.9C 532.2 70 494.6 69 493.3 69.8C 492.8 70.2 490.8 74.3 488.8 79L 485.3 87.5L 477.7 87.8C 473.4 88 470 87.9 470 87.7C 470 87.2 479.4 66 493.5 35C 499.4 22.1 504.4 10.7 504.7 9.7C 505.1 8.3 506.5 8 512.9 8L 520.6 8L 526.7 21.7zM 570.6 38C 577.7 54.5 583.9 67.9 584.4 67.7C 584.9 67.5 591 54.1 598 37.9L 610.7 8.5L 618.4 8.2L 626 7.89999L 623.4 13.7C 622 16.9 616.9 28.7 612 40C 607.1 51.3 600.5 66.6 597.3 74L 591.4 87.5L 583.9 87.8L 576.4 88.1L 559.2 48.7C 549.7 27.1 542 9.10001 542 8.70001C 542 8.30002 545.5 8.00002 549.8 8.00002L 557.6 8.00002L 570.6 38zM 653 48L 653 88L 645.5 88L 638 88L 638 48L 638 8L 645.5 8L 653 8L 653 48zM 732 14L 732 19.9L 719.3 20.2L 706.5 20.5L 706 54L 705.5 87.5L 698.3 87.8L 691 88.1L 690.8 54.3L 690.5 20.5L 677.3 20.2L 664 19.9L 664 14L 664 8L 698 8L 732 8L 732 14zM 769.2 27C 775.4 37.4 780.8 45.8 781.3 45.7C 781.7 45.6 787.1 37.2 793.3 27L 804.7 8.5L 811.8 8.2C 815.8 8 819 8.09999 819 8.39999C 819 8.7 812 20.4 803.5 34.5L 788 60.2L 788 74.2L 788 88.1L 780.8 87.8L 773.5 87.5L 773 73L 772.5 58.5L 757.6 34C 749.5 20.5 742.6 9.2 742.3 8.7C 742.1 8.3 745.5 8 749.9 8L 757.9 8L 769.2 27zM 150 28.9C 154.1 30.5 166.6 35.7 177.8 40.4C 203 51 210 53.5 237.5 61.5C 262.5 68.8 276.8 73.4 278.2 74.8C 278.8 75.4 277.3 76.8 274.3 78.5C 271.7 80.1 260.5 87 249.5 94C 218.9 113.3 219.3 113.1 172.6 136L 143.7 150.2L 135.1 146.2C 130.4 144 115.3 137.4 101.5 131.5C 74.8001 120.1 61.7001 113.6 37.0001 99.3C 28.5001 94.4 17.8001 88.4 13.3001 86C 8.70006 83.6 5.00006 81.1 5.00006 80.5C 5.00006 79.2 8.10006 78.1 43.0001 66.4C 73.7001 56.1 85.8001 51.4 104.5 42.5C 120.8 34.7 140.3 26 141.5 26C 142.1 26 145.9 27.3 150 28.9zM 340.7 117.4C 344.7 119.4 346 121.7 346 126.8C 346 129.7 345.3 131.4 343.5 133.1C 340.7 135.8 340.4 137 342.3 137C 343.1 137 344.7 138.1 346 139.5C 347.8 141.4 348.3 143.1 348.3 146.6C 348.3 150.6 347.9 151.7 345.2 154.1C 341.5 157.4 336.9 158.2 324 157.8L 314.5 157.5L 314.2 137.5C 314.1 126.5 314.2 116.9 314.5 116.1C 315.3 114.1 336.3 115.1 340.7 117.4zM 435.8 117.4C 445.4 122.3 446.5 135.3 437.8 140.9L 434 143.3L 438.3 149.4C 444.2 157.8 444.4 158 442.6 158C 441.7 158 438.7 154.8 435.9 151L 430.8 144L 423 144L 415.1 144L 414.8 150.7C 414.6 156 414.2 157.5 413 157.5C 411.7 157.5 411.5 154.4 411.2 137.1C 411 121.4 411.3 116.4 412.2 115.8C 414.3 114.3 432.3 115.6 435.8 117.4zM 509.8 136.8C 510 155.2 509.8 158 508.5 158C 507.2 158 507 155.1 507 136.4C 507 119.6 507.3 114.9 508.3 115.2C 509.2 115.6 509.6 121 509.8 136.8zM 603.6 117.8C 618.8 125.6 619.9 145.6 605.6 154.5C 600.8 157.4 600.3 157.5 588.7 157.5L 576.8 157.5L 576.8 137.3C 576.8 126.2 577.1 116.6 577.5 115.9C 578.8 113.9 598.7 115.3 603.6 117.8zM 703.2 116C 707.9 117.3 711.6 120.3 710.6 121.9C 710 122.9 709.4 122.8 708.2 121.7C 705.9 119.7 700.3 118 696.3 118C 689.7 118 682.4 122.4 679.4 128.2C 677.6 131.7 677.6 141.3 679.4 144.8C 681.3 148.4 685.9 152.6 689.3 153.9C 694 155.7 702.1 155.2 705.8 153C 709.1 151 709.1 150.9 708.9 144.2C 708.7 138.6 708.9 137.4 710.3 137.2C 711.8 136.9 712 137.9 712 144.4C 712 153 710.8 154.8 704.1 156.8C 688.5 161.5 674.5 151.9 674.6 136.5C 674.7 121.7 688.3 111.9 703.2 116zM 804.7 116.7C 805 117.6 802 118 792.8 118.2L 780.5 118.5L 780.2 126.7L 779.9 134.9L 791.2 135.2C 806.1 135.6 806.1 137.4 791.3 137.8L 780 138.1L 780 146.5L 780 155L 793 155C 803.9 155 806 155.2 806 156.5C 806 157.8 803.7 158 791.5 158L 777 158L 777 137.2C 777 125.7 777.3 116 777.7 115.6C 779 114.4 804.3 115.4 804.7 116.7z"/>
<path style="stroke:none; fill:#000000" d="M 410.7 20.7C 410.3 21 410 28.2 410 36.7L 410 52L 422.5 52C 433.2 52 435.7 51.7 439.1 50C 445.1 46.9 447.2 42.9 446.7 35.1C 446.4 29.3 446.1 28.5 442.8 25.5C 440.5 23.3 437.5 21.8 434.1 21.1C 428.5 19.9 411.7 19.6 410.7 20.7z"/>
<path style="stroke:none; fill:#000000" d="M 508 34.7C 505.7 40.7 502.5 48.1 500.9 51.2C 499.3 54.3 498.4 57.1 498.8 57.3C 499.2 57.5 505.7 57.8 513.3 57.9C 523.2 58 527 57.7 527 56.8C 527 55.1 513.6 24 512.9 24C 512.6 24 510.4 28.8 508 34.7z"/>
<path style="stroke:none; fill:#000000" d="M 131.5 32.9C 123.7 36.3 119.8 39 122.8 39C 123.3 39 127.7 41.5 132.5 44.5C 137.4 47.6 141.8 49.9 142.4 49.8C 144.1 49.3 161.9 37.6 162 36.9C 162 36.2 143.6 29 141.8 29C 141.1 29 136.5 30.8 131.5 32.9z"/>
<path style="stroke:none; fill:#000000" d="M 155.2 44.7C 149.6 48.3 145 51.6 145 52C 145 52.3 147.6 53.1 150.8 53.8C 157.1 55.2 165.2 59 168.7 62.2L 171 64.3L 179.2 56.4C 183.8 52.1 187.6 48.3 187.7 48C 187.9 47.6 181.2 44.6 166 38.2C 165.7 38.1 160.8 41 155.2 44.7z"/>
<path style="stroke:none; fill:#000000" d="M 107.1 44.1C 101.3 46.8 96.4 49.3 96.1 49.5C 95.8 49.8 96.7 50.8 98.1 51.7C 99.4 52.6 103.3 56.1 106.7 59.3C 110.9 63.3 113.3 64.9 114.2 64.4C 114.9 63.9 117.5 62.1 119.9 60.3C 122.3 58.4 127.4 56 131.6 54.8C 135.7 53.6 139 52.3 139 52C 139 51.4 137.5 50.4 126.6 43.8C 122.2 41.2 118.4 39 118.1 39C 117.8 39.1 112.8 41.3 107.1 44.1z"/>
<path style="stroke:none; fill:#000000" d="M 187 52.6C 179.4 58.9 174 64.4 174 65.7C 174 67.4 179.7 75.2 181.7 76.4C 182.6 76.9 185.5 77.8 188.2 78.6L 193.2 79.9L 204.1 68.7C 210.1 62.6 214.8 57.5 214.7 57.5C 214.6 57.4 210 55.8 204.5 53.8C 199 51.9 193.8 50 193 49.6C 192 49.2 189.8 50.3 187 52.6z"/>
<path style="stroke:none; fill:#000000" d="M 81 55.6C 75.2 58 70.1 60.1 69.5 60.4C 69 60.6 69.6 61.6 71 62.6C 72.4 63.6 77.6 68.3 82.6 73.2L 91.7 82.1L 98.3 79.9C 104.2 78 105.1 77.3 107.9 72.8C 109.6 70.1 111 67.5 111 67.1C 111 65.4 93.9 50.8 92.2 51.1C 91.8 51.2 86.8 53.2 81 55.6z"/>
<path style="stroke:none; fill:#000000" d="M 212.1 64.2C 204.6 70.8 197.7 78.7 198.4 79.8C 198.7 80.3 204.4 81 211.1 81.3L 223.3 82L 229.9 76.7C 233.5 73.7 238 70.3 239.8 69C 241.7 67.8 242.8 66.4 242.3 66C 241.6 65.4 220 59 218.6 59C 218.4 59 215.4 61.4 212.1 64.2z"/>
<path style="stroke:none; fill:#000000" d="M 52.3 65.8C 46.1 67.9 41 69.8 41 70.1C 41 70.4 43.6 72.4 46.8 74.5C 49.9 76.6 54.4 79.8 56.8 81.8L 61.1 85.2L 73 84.1C 79.5 83.5 85.3 83 85.9 83C 88.3 83 86.7 80.1 81.3 74.9C 73.5 67.4 66.6 62 64.9 62.1C 64.1 62.2 58.4 63.8 52.3 65.8z"/>
<path style="stroke:none; fill:#000000" d="M 237.3 74C 232.2 77.9 228 81.4 228 81.9C 228 82.3 231.6 83.2 236 83.9C 240.3 84.5 246.2 85.7 249.1 86.4L 254.3 87.8L 263.6 82.1C 268.7 79 272.9 76.2 273 75.8C 273 75.2 248.5 67 247 67C 246.7 67 242.3 70.2 237.3 74z"/>
<path style="stroke:none; fill:#000000" d="M 22.8 75.7C 15.7 78.2 10 80.6 10 81.1C 10 81.5 10.8 82.1 11.8 82.4C 12.7 82.7 17.1 85 21.5 87.6L 29.5 92.1L 38 90.1C 42.7 89 48.9 87.6 51.8 86.9C 54.6 86.3 57 85.5 57 85.2C 57 84.3 37.4 71 36.3 71.1C 35.9 71.1 29.8 73.2 22.8 75.7z"/>
<path style="stroke:none; fill:#000000" d="M 182.1 80.4C 182.1 81 182.7 84.4 183.3 87.9L 184.6 94.2L 188.4 88.5C 190.4 85.4 192 82.7 191.8 82.6C 191.6 82.4 189.4 81.6 186.8 80.8C 183.5 79.8 182 79.6 182.1 80.4z"/>
<path style="stroke:none; fill:#000000" d="M 97.2 82.7C 94.5 83.7 93.3 84.6 93.7 85.3C 94.1 86 96 88.7 97.9 91.5L 101.5 96.4L 102.1 90.5C 102.5 87.2 103.1 83.7 103.5 82.7C 104.4 80.7 103.2 80.7 97.2 82.7z"/>
<path style="stroke:none; fill:#000000" d="M 193.8 84.7C 190.9 88.1 184 100.4 181.9 105.9C 180.8 109 179.2 112.6 178.4 113.8C 176 117.5 177.2 117.3 183.1 112.8C 186.1 110.6 190.8 107.7 193.7 106.4C 196.5 105.1 201.2 102 204.2 99.4C 212.5 92.1 220.1 84.8 219.8 84.5C 219.6 84.4 214.1 84 207.4 83.6C 196.6 83 195.2 83.1 193.8 84.7z"/>
<path style="stroke:none; fill:#000000" d="M 75 86.4C 69.8 87 65.5 87.8 65.5 88.1C 65.5 89.8 87.5 106.5 92.3 108.5C 95.4 109.7 100.2 112.4 102.9 114.4C 109 118.7 110.9 119 108.1 115.2C 107 113.6 105.4 110.4 104.4 107.9C 103.5 105.5 100 99.3 96.7 94.2C 89.8 83.7 91.7 84.4 75 86.4z"/>
<path style="stroke:none; fill:#000000" d="M 214.3 93.3C 209.3 97.8 205.1 101.7 205.1 102C 205 102.3 211 102.5 218.3 102.5L 231.5 102.4L 240.8 96.5C 245.8 93.3 250 90.3 250 89.8C 250 89.4 249.9 89 249.8 89C 249.6 89 244.9 88.1 239.2 87C 233.6 85.9 227.7 85 226.2 85C 224.3 85.1 221 87.4 214.3 93.3z"/>
<path style="stroke:none; fill:#000000" d="M 56.5 88.6C 44.3 91.2 35.3 93.3 34.7 94C 34.2 94.4 38.8 97.5 44.9 101C 54.4 106.3 56.4 107.1 59.2 106.5C 61 106.1 66.6 105.5 71.6 105.1L 80.8 104.5L 70.8 96.2C 65.3 91.7 60.3 88.1 59.7 88.1C 59 88.2 57.6 88.4 56.5 88.6z"/>
<path style="stroke:none; fill:#000000" d="M 202.5 105.9C 200.8 106.3 197.2 108.3 194.5 110.2C 185.4 116.8 178 119.8 165.2 122.3C 153.4 124.7 149.3 126 153.7 126C 154.8 126 160.2 127.3 165.6 128.9L 175.4 131.8L 197 121.1C 220.7 109.2 225 106.9 225 105.7C 225 104.8 206.6 105 202.5 105.9z"/>
<path style="stroke:none; fill:#000000" d="M 61 109C 61 109.6 66.1 112.5 72.3 115.6C 82.5 120.6 83.8 120.9 87 120C 88.9 119.5 92.4 119 94.7 119C 97 119 99.1 118.6 99.4 118.1C 99.7 117.7 96.7 115.3 92.7 112.9L 85.5 108.5L 73.3 108.2C 64.7 107.9 61 108.2 61 109z"/>
<path style="stroke:none; fill:#000000" d="M 90.5 122L 87.5 122.7L 90.5 123.9C 92.2 124.6 97.6 127 102.7 129.2L 111.9 133.2L 123.7 129.4L 135.4 125.5L 131 124.8C 128.5 124.4 122.1 123.4 116.7 122.5C 106.5 120.9 95.7 120.7 90.5 122z"/>
<path style="stroke:none; fill:#000000" d="M 134.9 128.6C 121.6 132.3 117.6 133.6 117.3 134.6C 117.1 135.1 118.9 136.3 121.2 137.2C 123.6 138.1 129.7 140.8 134.8 143.1L 144.1 147.4L 157.5 140.5C 165.6 136.3 170.5 133.3 169.7 132.9C 168.3 132 153.6 128.2 147.6 127.1C 144.4 126.5 141.3 126.9 134.9 128.6z"/>
<path style="stroke:none; fill:#000000" d="M 318.4 119.3C 318.1 120.2 317.7 124 317.7 127.7L 317.5 134.5L 325 134.8C 334.3 135.2 338.6 134.4 341.1 131.9C 343.9 129.1 343.6 123.9 340.5 121C 338.3 118.9 336.7 118.5 328.5 118.2C 320.5 117.8 318.9 118 318.4 119.3z"/>
<path style="stroke:none; fill:#000000" d="M 317.7 138.6C 317.3 139 317 142.9 317 147.2L 317 155L 327.8 155C 336.7 155 339 154.7 341.8 153C 344.6 151.3 345 150.5 345 146.7C 345 139.7 343 138.6 329.6 138.2C 323.5 138 318.2 138.2 317.7 138.6z"/>
<path style="stroke:none; fill:#000000" d="M 415 129.5L 415 141L 423.5 141C 436.4 141 440 138.5 440 129.6C 440 121.3 434.7 118.1 421.3 118L 415 118L 415 129.5z"/>
<path style="stroke:none; fill:#000000" d="M 580 136.5L 580 155.2L 589.8 154.8C 601.3 154.4 605.9 152.5 609.8 146.8C 614.3 139.9 613 128.9 606.8 123.4C 602.7 119.6 599.7 118.7 589.8 118.2L 580 117.7L 580 136.5z"/>
</g>
</g>
</svg>