<?xml version="1.0" encoding="UTF-8" standalone="yes"?>
<!-- Created with sK1/UniConvertor (http://sk1project.org/) -->
<svg xmlns="http://www.w3.org/2000/svg" xmlns:xlink="http://www.w3.org/1999/xlink"
  width="1366pt" height="768pt" viewBox="0 0 1366 768"
  fill-rule="evenodd">
<g>
<g>
<path style="stroke:none; fill:#000000" d="M 0 384L 0 768L 683 768L 1366 768L 1366 384L 1366 0L 1056.5 0C 862.6 0 746.2 0.400024 744.6 1C 743 1.59998 741.9 1.59998 741.5 1C 740.6 -0.5 697.7 -0.299988 696.2 1.20001C 695.3 2.10004 695 2.10004 695 1.20001C 695 0.299988 617.1 0 347.5 0L 0 0L 0 384zM 822.8 3.09998C 822.6 3.69995 822 4.09998 821.5 4.09998C 821 4.09998 820.4 3.69995 820.2 3.09998C 820 2.5 820.6 2 821.5 2C 822.4 2 823 2.5 822.8 3.09998zM 807.4 7.39996C 807.1 8.29999 806.3 8.99994 805.8 8.99994C 804.5 8.99994 802.3 11.7 801 14.7999C 800.5 15.9999 797.9 18.4999 795.3 20.2999C 792.8 21.9999 789.2 24.7 787.4 26.2C 785.7 27.7999 783.8 28.9999 783.3 28.9999C 782.9 28.9999 780.1 31.2999 777.2 34.0999C 774.3 36.8999 771.6 38.9999 771.3 38.5999C 770.6 37.9999 768.3 39.0999 761.7 43.2999C 758.4 45.3999 757.3 46.5999 758.2 47.2C 759.2 47.7999 759 47.9999 757.8 47.9999C 754.7 47.9999 754.6 45.7 757.6 43.2999C 759.2 42.0999 761.1 40.9999 761.7 40.9999C 762.4 40.9999 763.7 39.9 764.6 38.4999C 765.5 37.0999 766.7 35.9999 767.2 35.9999C 767.8 35.9999 767.7 36.5999 767 37.4999C 766.1 38.4999 766.1 38.9999 766.9 38.9999C 768 38.9999 768.4 37.7 768.1 35.2C 768 34.6 768.4 33.9999 768.9 33.9999C 769.5 33.9999 769.7 33.2999 769.4 32.4999C 768.9 31.2999 767.8 31.7999 764.1 34.9C 759 39.1 755.3 41.3 752.9 41.4999C 752 41.5999 749.8 42.7 747.9 43.9C 746 45.1 747.7 43.2 751.5 39.6C 755.4 36 759.3 32.7 760.3 32.4C 761.2 32.1 761.8 31.4999 761.5 30.9999C 760.8 29.7999 764.1 25.9 765.2 26.5999C 765.6 26.8999 766.7 26.3999 767.6 25.5999C 768.4 24.6999 768.8 23.9999 768.3 23.9999C 766.6 23.9999 778.6 14.0999 780.3 13.9999C 781.5 13.9999 782 13.4 781.8 12.2C 781.5 9.99994 782.7 7.99994 784.5 7.99994C 785.7 7.99994 785.7 8.59991 784.5 11.9999C 783.4 14.9999 783.4 15.9999 784.3 15.9999C 785 15.9999 784.7 16.5999 783.8 17.4C 782.1 18.6 781.3 20.9999 782.5 20.9999C 783.8 20.9999 791.4 16.7 793.3 14.9C 794.5 13.9 796.6 12.9999 798.2 12.9999C 799.8 12.9999 801 12.4999 801 11.7C 801 10.9999 802 9.79993 803.1 8.99994C 804.3 8.19995 805.8 6.99994 806.4 6.39996C 807.8 4.89996 808.2 5.29999 807.4 7.39996zM 817.6 8.09998C 817.9 8.69995 817.5 9.89996 816.7 10.8C 815.5 12 814.8 12.1 813.7 11.2C 812.6 10.3 811.7 10.7 809.5 13C 807.9 14.7 806.2 16 805.7 16C 805.2 16 806.7 14 809.1 11.5C 813.3 7.09998 816.2 5.90002 817.6 8.09998zM 790 12.4C 790 14.4999 787.5 16.1 786.3 14.9C 785.5 14.1 785.6 13.3 786.8 11.9C 788.4 9.99994 790 10.2 790 12.4zM 774 14.9999C 774 15.4999 773.7 15.9999 773.3 15.9999C 772.8 15.9999 770.3 17.9999 767.5 20.4999C 764.8 22.9999 762.3 24.9999 762 24.9999C 761.7 24.9999 758.1 28.2 754 31.9999C 749.9 35.9 745.7 38.9999 744.6 38.9999C 742.8 38.9999 742.8 38.7999 745 36.4999C 746.3 35.0999 746.8 33.9999 746.1 33.9999C 745.5 33.9999 744.5 32.9 744 31.4999C 743.5 30.0999 742.6 28.9999 742 28.9999C 741.4 28.9999 741.2 28.4999 741.6 27.7999C 742.1 26.9999 742.7 27.2 743.5 28.3999C 745 30.3999 747.3 29.6999 749 26.4999C 749.7 25.0999 751.1 23.7999 752.2 23.3999C 753.2 23.0999 754 22.2999 754 21.6999C 754 19.9999 757.8 17.7999 758.5 18.9999C 758.8 19.5999 758.4 19.9999 757.6 19.9999C 756.7 19.9999 756 20.3999 756 20.9999C 756 22.7999 759.8 21.9999 760.3 20.0999C 760.5 19.0999 761.7 17.6998 763 16.9999C 765.1 15.8999 765.1 15.8999 763.4 18.4999C 760.6 22.6999 762.7 22.5999 767.7 18.1999C 772.7 13.9999 774 13.2999 774 14.9999zM 803.9 18.2999C 803.7 18.3999 802.4 19.3999 801 20.4999L 798.5 22.4999L 800.4 20.2C 801.5 18.9999 802.8 17.9999 803.3 17.9999C 803.9 17.9999 804.1 18.0999 803.9 18.2999zM 701 22.9999C 701 23.4999 700.3 23.7 699.5 23.4C 698.7 22.9999 698.3 22.4 698.6 21.9C 699.2 20.8 701 21.7 701 22.9999zM 799 23.4C 799 23.7 798.6 24.2 798 24.4999C 797.5 24.7999 797 24.5999 797 24.0999C 797 23.4999 797.5 22.9999 798 22.9999C 798.6 22.9999 799 23.2 799 23.4zM 743 32.9999C 743 33.4999 742.1 33.9999 741 33.9999C 739.9 33.9999 739 34.5999 739 35.2999C 739 37.5999 735.6 40.2 734.2 38.7999C 732.3 36.8999 736.5 31.9999 740.1 31.9999C 741.7 31.9999 743 32.4 743 32.9999zM 730.6 49.5999C 729.7 50.3999 728.9 51.6999 728.9 52.2999C 728.8 52.9999 728.6 54.4999 728.5 55.5999C 728.3 57.4999 728.5 57.5999 730.4 56.5999C 731.6 55.9999 734.4 53.9999 736.7 52.1999C 740.9 48.8999 744.2 47.6999 740.3 50.8999C 739.1 51.8999 737.5 54.2999 736.6 56.2999C 735.8 58.3999 734.6 59.9999 734.1 59.9999C 733.5 59.9999 733 60.4999 733 61.0999C 733 61.6999 731.9 63.4999 730.5 65.1999C 729.1 66.7999 728 68.6999 728 69.2999C 728 69.9999 726.9 71.2999 725.6 72.1999C 723.4 73.7999 723.1 73.7999 722.6 72.2999C 722.2 71.3998 722.3 70.3998 722.7 70.0999C 724.1 69.0999 726.2 64.7999 725.6 64.2999C 724.7 63.3998 720.9 66.2999 713.6 73.2999C 708.7 77.9999 706.9 80.2999 707.4 81.4999C 707.9 82.9999 708.5 82.8999 712.5 80.6999C 715 79.2999 717.2 78.5999 717.5 79.0999C 718.2 80.0999 716.4 83.6999 714.3 85.7999C 713.6 86.4999 713 87.7999 713 88.7C 713 89.6 712 91.2999 710.8 92.4999C 707.9 95.4999 706 97.7999 706 98.4999C 706 99.4999 709.6 98.9999 710.8 97.7999C 711.6 96.9999 712 96.8999 712 97.7C 712 98.2999 711.5 98.9999 710.8 99.2C 710.2 99.4 710 100.1 710.4 100.8C 710.9 101.6 711.7 101.4 713.2 99.9999C 714.4 98.9 715.9 97.9999 716.4 97.9999C 717 97.9999 715.5 99.7999 713 101.9C 710.5 104 708.8 106.1 709.2 106.5C 710.1 107.5 708.3 111 706.9 111C 706.3 111 706.1 110.3 706.4 109.4C 707.6 106.3 705.8 105.9 703.4 108.7C 702 110.4 701 112.8 701 114.6C 701 116.5 700.4 118 699.6 118.3C 697.7 119.1 697.1 117.2 698.1 113.7C 699 110.6 698 110.3 694.5 112.6C 691.2 114.7 684.8 125.4 685.6 127.4C 686.3 129.2 680.1 141 678.4 141C 677.8 141 676.7 141.7 676 142.5C 675 143.7 675 144.3 676 145.5C 676.7 146.4 677.1 147.1 676.9 147.3C 676.7 147.4 675.6 148.1 674.5 148.8C 673.4 149.4 671.5 150.5 670.2 151C 668.9 151.5 668.1 152.4 668.5 152.9C 668.8 153.4 668.6 154.1 668 154.5C 666.7 155.3 666.7 159 668.1 159C 668.6 159 668.8 159.4 668.5 160C 668.2 160.5 667 161 665.9 161C 664.9 161 664 161.4 664 162C 664 162.5 663.4 163 662.6 163C 661.8 163 661 163.9 660.8 165C 660.6 166.4 660.1 166.7 659.2 166.1C 657.5 165.1 657.3 162.3 658.3 155.2C 658.8 151.8 658.7 150 658 150C 657.5 150 657 150.7 657 151.6C 657 153.9 653.6 152.9 653.2 150.4C 653 148.8 653.4 148.4 655.2 148.4C 656.7 148.5 657.9 147.7 658.5 146.2C 659.6 143.7 661 143.3 661 145.4C 661 147.7 664.7 146.1 667.6 142.7C 670.8 138.9 676 128.4 675.1 127.4C 674.8 127 675.3 127 676.2 127.3C 677.2 127.7 678.7 127.2 679.7 126.2C 681.3 124.6 681.3 124.5 679.3 124.2C 677.4 123.9 677.3 123.6 678.2 120.9C 678.7 119.3 679.5 118.2 680 118.5C 680.4 118.7 680.5 117.8 680.2 116.3L 679.7 113.7L 677.9 116.1C 676.5 117.9 676 118.1 676 116.9C 676 116 676.9 114.5 678 113.5C 679.1 112.5 680 112 680 112.5C 680 114.1 683.4 110.3 684.7 107.1C 685.5 105.3 687 103.6 688.1 103.3C 689.1 103 690 102.3 690 101.7C 690 101.2 690.8 100.1 691.8 99.4C 693.4 98.2 693.3 98.1 691.2 97.9999C 689.9 97.9999 687.7 98.9 686.3 99.9999C 683 102.6 681.7 102.5 683.2 99.9C 684.3 98.1 684.3 97.6 683.2 97.3C 682.2 96.9 682.2 96.5 683.1 95.4C 684.7 93.4 683 93.7 680.7 95.7C 679.2 96.9999 678.9 97.1 679.5 95.9999C 681.1 92.9999 678.2 96.4999 672.1 104.9C 668.8 109.6 666 113.9 666 114.7C 666 115.4 665.6 116 665.1 116C 664.6 116 664 116.9 663.7 118C 663.4 119.1 662.7 120 662.1 120C 661.5 120 661.3 119.2 661.6 118.2C 662 117.3 661.3 117.8 660.2 119.4C 658.4 121.9 651.2 129 650.4 129C 649.5 129 656.8 119.4 661.5 114.4C 664.5 111.2 667 108 667 107.3C 667 106.7 668.3 105.1 670 103.8C 672.7 101.7 679.3 91.1 677 92.5C 676.5 92.8 676 92.6 676 92C 676 91.4 676.7 90.7 677.7 90.3C 678.6 90 680.9 87.9 682.8 85.8C 684.7 83.7 686.7 82 687.2 82C 687.7 82 689.6 80.9 691.4 79.5C 693.2 78.1 695.3 77 696.1 77C 698.1 77 700 75 699.4 73.6C 699.1 72.9 700.1 71.3 701.5 70C 703.7 68 704 67.9 703.4 69.4C 702.9 70.8 703 71.1 703.8 70.6C 704.5 70.2 705 69.3 705 68.7C 705 68 705.9 66.9 707 66.2C 708.2 65.5 708.8 64.5 708.5 64.1C 708.3 63.6 709.2 62.5001 710.6 61.6C 711.9 60.6 713.5 58.8 714 57.4C 714.5 56.1 715.7 55 716.7 55C 718.2 55 718.3 55.2 717 56C 716.1 56.6 716 57 716.7 57C 717.3 57 718.8 55.8 720 54.2C 721.1 52.7 724.2 50.4 726.8 49C 731.6 46.4 733.4 46.7 730.6 49.5999zM 720 128C 721 128 722 127.4 722.3 126.7C 722.6 125.8 723.1 125.9 724.5 127C 725.5 127.8 726.5 128.4 726.7 128.2C 726.8 128.1 727 128.2 727 128.5C 727 128.8 727 129.7 727 130.6C 727 132 726.9 132 725.4 130.6C 723.6 128.8 721 128.5 721 130.1C 721 130.7 720.3 131.8 719.5 132.6C 718.2 134 718 134 718 132.6C 718 131 716.5 130.4 715.7 131.7C 715.5 132.2 715.5 131.8 715.8 131C 716 130.2 716.3 128.6 716.5 127.5C 716.9 124.6 717.2 124.3 717.7 126.2C 717.9 127.2 719 128 720 128zM 684.8 148.3C 685 150.3 685.5 152 686.1 152C 686.6 152 687 152.9 687 153.9C 687 157 688.1 159 689.9 159C 691.1 159 691.2 159.2 690.2 159.9C 689.2 160.5 689.2 160.9 690.5 162C 692.4 163.5 692.4 165.4 690.6 166.9C 689.7 167.7 689.4 169.6 689.7 173.3C 689.9 176.1 689.8 180 689.5 181.8C 688.6 186.6 686.7 184.5 684.4 176.5C 683.4 172.9 682 170 681.4 170C 679.7 170 679 167.6 678.4 159.8C 678 155.1 678.1 153 678.9 153C 679.5 153 680 152.6 680 152C 680 151.5 679.2 151.3 678.3 151.6C 677.2 152 676.9 151.9 677.6 151.3C 678.2 150.9 679.5 149 680.4 147.2C 682.5 143 684.4 143.5 684.8 148.3zM 711 147.2C 711 147.8 710.3 147.7 709.5 147C 708.7 146.3 708 145.3 708 144.8C 708 144.2 708.7 144.3 709.5 145C 710.3 145.7 711 146.7 711 147.2zM 673.6 159.3C 673.9 161.4 673.3 161.4 671.5 159.6C 670.7 158.9 670.4 158 670.7 157.6C 671.8 156.6 673.3 157.5 673.6 159.3zM 657.6 175.1C 657 178.4 658.9 179.2 659.7 176C 660 174.9 660.9 174 661.6 174C 663.3 174 663.3 174.8 661.5 178C 659.8 180.9 659.5 186.6 661 187.5C 662.2 188.2 661.4 190 659.9 190C 659.4 190 659 189.1 659 188C 659 187 658.1 185.6 657 185C 655.3 184.1 654.8 184.3 654 186.2C 653.5 187.6 653.1 187.9 653 187C 652.9 186 652.6 186.1 652 187.5C 651.1 189.7 650.8 189.2 649.5 183.5C 648.8 180.8 648.7 180.7 648 182.5C 647.5 183.7 647.1 183.9 647.1 183C 647.1 182.2 647.5 180.6 647.9 179.5C 648.7 177.6 648.7 177.6 649.4 179.8C 649.9 181.3 650.7 181.9 651.6 181.6C 652.4 181.3 653 181.5 653 182C 653 182.6 653.3 183 653.8 183C 654.2 183 654.5 181.1 654.5 178.7C 654.5 176.4 654.9 173.7 655.3 172.7C 656.4 169.9 658.3 171.8 657.6 175.1zM 649 175C 649 175.5 648.6 176 648 176C 647.5 176 647 175.5 647 175C 647 174.4 647.5 174 648 174C 648.6 174 649 174.4 649 175zM 644.7 187.7C 644.4 188.7 644.2 188.1 644.2 186.5C 644.2 184.8 644.4 184.1 644.7 184.7C 644.9 185.4 644.9 186.8 644.7 187.7zM 625.8 196.9C 626.6 197.4 627 198.6 626.8 199.6C 626.5 201 625.6 201.5 623.1 201.3C 619.1 201.2 618.6 200.7 619.5 198.1C 620.2 195.9 623.4 195.3 625.8 196.9zM 597 209C 597 209.5 596.6 210 596 210C 595.5 210 595 209.5 595 209C 595 208.4 595.5 208 596 208C 596.6 208 597 208.4 597 209zM 615.8 219.8C 617 220 618 219.7 618 219.1C 618 218.6 618.9 218.2 620 218.3C 621.4 218.4 622 219.1 622 220.7C 622 223.1 620.6 223.8 619.5 222C 618.3 220.1 617 221 617.2 223.7C 617.6 230 617 233 615.4 233C 614.1 233 613.9 232.3 614.3 229.5C 615 225.4 613.4 224.8 611.9 228.7C 611.2 230.6 610.6 231 609.8 230.2C 609 229.4 609.2 228.4 610.5 226.4C 611.7 224.5 612.1 222.5 611.7 219.4C 611.2 214.5 612.2 212.3 613 216.7C 613.4 218.6 614.2 219.6 615.8 219.8zM 587.5 226.4C 588.3 228.4 589 231.3 589 233C 589 235 589.5 236 590.5 236C 591.3 236 592.1 236.4 592.1 237C 592.4 238.9 592.5 239.5 593.2 240.5C 593.5 241.1 593.8 243.7 593.8 246.2C 593.8 248.8 594.1 251.4 594.5 252C 594.8 252.5 594.5 253.3 593.7 253.6C 592.1 254.2 591.8 257 593.4 257C 594 257 596.6 256 599.2 254.8C 603.1 252.9 604 251.9 604.6 249.1C 605.1 246.8 604.9 245.5 603.9 244.9C 602.9 244.3 603.2 244 605 244C 608 243.9 611 241.8 611 239.8C 611 238.9 611.7 237.7 612.5 237C 614.2 235.6 616.4 236.6 615.3 238.3C 614.9 239 614.5 241.7 614.5 244.3C 614.5 249.2 614.5 249.2 608.8 252.3C 600.4 257 593.3 262.3 594.8 262.7C 595.4 263 595.8 263.6 595.4 264.1C 595.1 264.6 595.3 265 595.9 265C 596.4 265 597.1 265.9 597.5 267C 597.9 268.3 599.4 269.2 601.8 269.6C 603.8 270 605.7 270.6 606 270.9C 606.3 271.3 610.3 273.5 615 275.8C 619.7 278.1 625.8 282 628.5 284.5L 633.5 288.9L 626.5 295.9L 619.5 303L 613.5 298.5C 605.5 292.5 596.2 289.5 585.5 289.7C 564.4 289.9 549.2 301.1 544 320.1C 539.8 335.9 542.8 349.4 553.1 360.4C 561.1 369 569.8 373.1 581.9 373.7C 591.4 374.3 599.8 373.1 605.7 370.3L 609.5 368.5L 610 349.5L 610.5 330.5L 621 330.5L 631.5 330.5L 631.8 354.7L 632 378.9L 625.3 382.9C 612.2 390.6 594.7 394.7 579.5 393.6C 561.5 392.4 548.6 386.6 536.4 374.5C 524.1 362.3 519 349.8 519 331.8C 519 320.4 520.4 314.2 525 304.5C 529.3 295.7 536.3 287.1 544.2 281.4C 548.4 278.3 549 277.5 547.5 277C 545.8 276.4 545.8 276.3 547.3 275.7C 548.2 275.4 549 275.5 549 276C 549 276.6 549.7 277 550.5 277C 551.5 277 551.9 276.1 551.6 274C 551.4 272.3 551.7 270.9 552.4 270.9C 553 270.8 554.2 270.6 555 270.5C 555.8 270.4 557.9 270.2 559.6 270.1C 561.2 270.1 563.5 269.2 564.6 268.1C 565.7 267.1 567.6 265.8 568.7 265.2C 570.2 264.4 570.6 263.4 570.2 261.5C 569.9 259.5 570.1 259.1 571.4 259.6C 572.3 259.9 573 259.7 573 259C 573 258.3 573.8 258.1 575 258.5C 576 258.8 577.8 258.6 578.9 258.1C 580.4 257.3 580.9 257.4 581.4 258.6C 582 260.2 585 260.2 586.2 258.5C 587.3 257.1 587.2 253 586.1 253C 585.6 253 584.9 251.4 584.6 249.4C 584.1 247 583.4 246 582.5 246.4C 581.8 246.6 580.9 246.2 580.6 245.4C 579.6 242.9 579.9 242 581.4 242.6C 582.2 242.9 583 242.3 583.3 241.1C 583.6 239.9 583.4 239.2 582.9 239.6C 581.6 240.4 581.4 230.5 582.6 222.7C 583.2 219 583.3 218.9 584.6 220.9C 585.4 222 586.7 224.5 587.5 226.4zM 604 228.4C 604 229.5 602.1 229.9 601.5 229C 601.2 228.5 601.6 228 602.4 228C 603.3 228 604 228.2 604 228.4zM 601.4 247.2C 601.1 247.6 600.3 247.7 599.5 247.3C 597.9 246.8 597.5 244.8 598.7 243.7C 599.4 242.9 602 246.2 601.4 247.2zM 627.7 244.6C 627.4 244.9 626.5 245 625.8 244.7C 625 244.4 625.3 244.1 626.4 244.1C 627.5 244 628.1 244.3 627.7 244.6zM 725.5 273.5C 739.3 277.4 749.7 285.7 754.8 296.8C 760.5 309.2 758.5 328.4 750.5 339.3C 747.5 343.4 737.7 350.9 733.8 352.2C 733.1 352.5 738.8 361.4 746.3 372.1L 760 391.5L 748.8 391.8C 742.7 391.9 737.1 391.9 736.5 391.6C 735.9 391.4 730 383.5 723.5 374.1L 711.6 357L 695.6 357.2L 679.5 357.5L 679.3 374.5L 679.1 391.5L 668.1 391.8L 657 392.1L 657 331.4L 657 270.8L 688.3 271.3C 713.8 271.6 720.6 272 725.5 273.5zM 850.7 282.2C 860.9 304.6 899.2 389.5 899.7 390.7C 900.1 391.7 897.4 392 888.4 392L 876.5 392L 870.5 378L 864.6 364L 834.4 364.1L 804.3 364.1L 798.4 378L 792.5 392L 781.3 392C 775 392 770 391.6 770 391.1C 770 390.3 779.4 369.2 813.7 293C 817.3 285 821.1 276.8 822.1 274.7L 824 271L 834.8 271L 845.6 271L 850.7 282.2zM 921.4 317C 932.4 342.3 941.6 363 942 363C 942.3 363 950 346 959 325.2C 968 304.5 977 283.8 979.1 279.2L 982.9 271L 993.4 271C 1001.6 271 1004 271.3 1004 272.3C 1004 273.1 998.9 285.3 992.7 299.6C 986.5 313.8 974.9 340.5 966.9 358.8L 952.5 392L 941.2 391.8L 929.9 391.5L 926.4 383.5C 924.4 379.1 918.2 364.9 912.5 352C 890.8 302.7 878 272.9 878 272C 878 271.4 882.7 271 889.8 271L 901.6 271L 921.4 317zM 1046 331.5L 1046 392.1L 1034.8 391.8L 1023.5 391.5L 1023.2 332.5C 1023.1 300 1023.2 272.9 1023.5 272.2C 1023.8 271.4 1027.1 271 1035 271L 1046 271L 1046 331.5zM 1165 280.5L 1165 290L 1145 290L 1125 290L 1125 341L 1125 392L 1113.5 392L 1102 392L 1102 341L 1102 290L 1082 290L 1062 290L 1062 281.2C 1062 276.3 1062.3 272 1062.7 271.7C 1063 271.3 1086.2 271 1114.2 271L 1165 271L 1165 280.5zM 1220.9 300C 1230.5 316 1238.7 328.9 1239.2 328.8C 1239.7 328.6 1247.8 315.6 1257.3 300L 1274.5 271.5L 1285.3 271.2C 1291.4 271.1 1296 271.3 1296 271.9C 1296 272.4 1288.4 285.3 1279.2 300.6C 1269.9 316 1259.6 333.1 1256.2 338.7L 1250 348.9L 1250 370.5L 1250 392L 1238.5 392L 1227 392L 1227 370.9L 1227 349.8L 1203.5 310.9C 1190.6 289.6 1180 271.9 1180 271.6C 1180 271.3 1185.3 271 1191.8 271L 1203.5 271L 1220.9 300zM 510.4 283.5C 510.9 285.7 510.8 286.1 510 285C 509.5 284.2 509 282.6 509 281.6C 509 279 509.6 279.8 510.4 283.5zM 285.9 302.6C 291.1 304.5 308.9 311.9 325.5 319C 364.2 335.4 375.7 339.5 419.5 352.4C 454.3 362.5 479.7 370.6 481.2 371.9C 482.5 373.1 480.5 374.6 468 382C 461.1 386 449.2 393.4 441.5 398.3C 397.4 426.6 381.9 435.5 348.8 451.1C 330.5 459.7 286.7 481.5 281.4 484.6L 278.2 486.4L 264.4 479.8C 250.8 473.4 233.6 465.9 197.4 450.6C 172.9 440.2 152.4 429.7 115.5 408.5C 98.5 398.7 80.8 388.9 76.2 386.6C 70.9 384 68 382 68.2 381.1C 68.6 379 80.3 374.7 127 359.1C 175.5 342.9 184.7 339.3 223.5 321.2C 259.3 304.6 271.9 299.1 274.5 299C 275.6 299 280.7 300.6 285.9 302.6zM 516 300C 516 300.5 515 301 513.8 301C 511.9 301 511.8 300.8 513 300C 514.9 298.7 516 298.7 516 300zM 571.3 435.1C 573.4 435.7 576.8 437.6 578.8 439.5C 582.4 442.8 582.5 443 582.5 450L 582.5 457.2L 578.3 461L 574.1 464.7L 578 466.5C 583.4 468.9 586.4 474 586.4 480.5C 586.4 490.7 580.6 495.7 567.2 497.1C 554.6 498.4 536 498.2 535.5 496.7C 535.3 496.1 535 481.7 534.8 464.8C 534.5 434.7 534.5 434.1 536.5 433.8C 540.9 433.2 567.8 434.2 571.3 435.1zM 1125.3 436.4C 1128.2 437.7 1131.4 439.5 1132.5 440.3C 1134.4 441.8 1134.4 442 1132.8 443.6C 1131.2 445.2 1131 445.1 1128.1 442.7C 1123.5 438.9 1118.8 437.7 1109.6 438.2C 1100.8 438.7 1097.3 440 1091.4 445.3C 1080.2 455 1080.1 475.2 1091.1 485.7C 1099.3 493.5 1113.8 495.8 1123.6 490.9L 1128.5 488.5L 1128.8 477.2C 1129.1 466 1129.1 466 1131.5 466L 1134 466L 1134 478L 1134 490L 1129.4 493C 1117.3 500.6 1099 498.9 1087.7 489.1C 1085.7 487.3 1082.8 483.3 1081.3 480.2C 1078.9 475.2 1078.5 473.3 1078.5 465.5C 1078.5 458.4 1079 455.5 1080.7 451.9C 1083.1 446.6 1089.3 439.9 1094.2 437.4C 1103.4 432.5 1116.3 432.1 1125.3 436.4zM 715.1 435.2C 720.7 436.8 726.5 442.2 728.6 447.5C 732.2 457.1 728.3 468.8 720 473C 717.8 474.1 716 475.3 716 475.7C 716 476 719.2 480.7 723 486.1C 730 495.9 731.4 498.7 728.4 497.6C 727.5 497.3 726.5 497 726.1 497C 725.7 497 722 492.3 717.9 486.5C 711 476.6 710.3 476 707.6 476.5C 706 476.8 700.5 477 695.4 477L 686 477L 686 487L 686 497L 683.5 497L 680.9 497L 681.1 465.5L 681.2 434L 696.3 434C 704.8 434 712.9 434.5 715.1 435.2zM 829.8 465.7C 829.5 496.7 829.5 497.5 827.5 497.5C 825.5 497.5 825.5 496.7 825.2 465.7L 825 434L 827.5 434L 830 434L 829.8 465.7zM 967.8 435.6C 980.5 439.7 989.1 451.4 989.2 464.7C 989.3 474.8 986.8 481.3 980.6 487.6C 972.7 495.4 967.2 497.1 948.2 497.5C 939.7 497.7 932.2 497.6 931.4 497.3C 930.2 496.9 930 491.6 930 465.4L 930 434L 946.4 434C 958.7 434 964 434.4 967.8 435.6zM 1275 436C 1275 437.9 1274.3 438 1256 438L 1237 438L 1237 450.5L 1237 463L 1254 463C 1270.3 463 1271 463.1 1271 465C 1271 466.9 1270.3 467 1254 467L 1237 467L 1237 480L 1237 493L 1256.5 493C 1273.2 493 1276.1 493.2 1276.7 494.5C 1277 495.4 1277 496.4 1276.6 496.7C 1276.1 497.2 1237.1 497.5 1233 497.1C 1232.7 497 1232.5 482.8 1232.5 465.5L 1232.5 434L 1253.8 434C 1274.3 434 1275 434.1 1275 436zM 438 749C 438 749.5 437.3 750 436.4 750C 435.6 750 435.2 749.5 435.5 749C 435.8 748.4 436.5 748 437.1 748C 437.6 748 438 748.4 438 749z"/>
<path style="stroke:none; fill:#000000" d="M 729.9 59C 728.6 60 728 60.9 728.6 61C 729.3 61 730.8 60.1 732.1 59C 733.4 58 734 57.1 733.4 57C 732.7 57 731.2 57.9 729.9 59z"/>
<path style="stroke:none; fill:#000000" d="M 703 87.1C 703 87.6 703.5 87.8 704 87.5C 704.6 87.2 705 86.7 705 86.4C 705 86.2 704.6 86 704 86C 703.5 86 703 86.5 703 87.1z"/>
<path style="stroke:none; fill:#000000" d="M 697 92.6C 695.3 94.1 694.1 95.5 694.4 95.8C 695.1 96.4 702 91.8 702 90.7C 702 89.3 700.1 89.9999 697 92.6z"/>
<path style="stroke:none; fill:#000000" d="M 689.5 112C 689.2 112.5 689.4 113 689.9 113C 690.5 113 691 112.5 691 112C 691 111.4 690.8 111 690.6 111C 690.3 111 689.8 111.4 689.5 112z"/>
<path style="stroke:none; fill:#000000" d="M 555.5 273.1C 554.4 274.7 555.3 274.8 558.5 273.4L 561.5 272.1L 558.8 272C 557.3 272 555.8 272.5 555.5 273.1z"/>
<path style="stroke:none; fill:#000000" d="M 679.7 290.7C 679.4 291.2 679.3 301.8 679.4 314.5L 679.5 337.5L 697 337.8C 716 338.1 721.4 337.1 727.6 332.4C 737.5 325 738.1 305.8 728.8 297.4C 725.3 294.2 721.1 292.3 714.5 291.1C 707.9 289.9 680.4 289.6 679.7 290.7z"/>
<path style="stroke:none; fill:#000000" d="M 831.5 300.7C 830.1 303.9 826.8 311.7 824.3 318C 821.8 324.3 819.4 329.9 819 330.5C 817.3 332.7 812.2 346 812.8 346.4C 813.2 346.6 823.2 346.5 835.1 346.1L 856.7 345.5L 846 320.7C 840.1 307.1 835.1 295.7 834.8 295.4C 834.5 295.1 833 297.5 831.5 300.7z"/>
<path style="stroke:none; fill:#000000" d="M 259.1 309C 251.7 312.3 245.2 315.4 244.7 315.9C 244.3 316.3 248.1 319.2 253.7 322.3C 259.1 325.4 266.2 329.7 269.4 331.9L 275.3 335.9L 285.9 328.6C 291.7 324.6 298.7 320 301.3 318.5C 304 317 305.8 315.4 305.3 314.9C 303.9 313.5 278.8 303.8 275.6 303.4C 273.4 303.2 268.5 304.8 259.1 309z"/>
<path style="stroke:none; fill:#000000" d="M 300.5 323.3C 287.8 331.2 279.1 337.3 279 338.2C 279 338.6 280.7 339.2 282.8 339.5C 296.3 341.8 307.7 346.5 315 352.7L 319.1 356.3L 328.8 346.8C 334.1 341.6 340.1 336.2 342 334.7C 343.9 333.3 345.2 331.9 345 331.7C 344.5 331.2 311.4 317 310.8 317C 310.6 317 306 319.8 300.5 323.3z"/>
<path style="stroke:none; fill:#000000" d="M 222.5 326C 213.4 330.3 205.7 334 205.4 334.3C 205.1 334.6 206.4 335.8 208.2 337.1C 213 340.4 217.6 344.4 225.2 351.7L 232 358.2L 236.7 354C 242.9 348.5 255.8 342.3 264 340.8C 267.6 340.2 270.9 339.3 271.4 338.9C 272.3 338.1 259.7 329.6 247 322.6L 239.1 318.2L 222.5 326z"/>
<path style="stroke:none; fill:#000000" d="M 340.5 340.8C 336.1 344.6 330.1 350.2 327.2 353.4L 321.8 359.1L 324.8 362.4C 326.4 364.3 328.8 367.6 330 369.8C 332.6 374.4 334.1 375.2 345.3 378.1L 353.5 380.2L 356.9 375.8C 358.8 373.5 366.1 365.8 373.1 358.9L 385.8 346.3L 381.7 345C 379.4 344.4 371.6 341.6 364.3 338.9C 357.1 336.2 350.6 334 349.8 334C 349.1 334 344.9 337.1 340.5 340.8z"/>
<path style="stroke:none; fill:#000000" d="M 190.5 340.4C 185 342.8 177 346 172.7 347.6C 168.5 349.2 165.1 350.7 165.2 351.1C 165.4 351.4 169.6 355.1 174.6 359.3C 179.6 363.5 187.1 370.7 191.2 375.2L 198.7 383.4L 209 380C 217.7 377.2 219.5 376.2 220.9 373.7C 221.8 372.1 224 368.5 225.8 365.8L 229.2 360.8L 223.8 355.3C 219.3 350.7 204.9 338.7 201.5 336.8C 200.9 336.4 196 338.1 190.5 340.4z"/>
<path style="stroke:none; fill:#000000" d="M 383.9 353.3C 373.7 361.8 357.9 379.2 359.2 380.5C 359.4 380.7 368.2 381.5 378.7 382.1L 397.8 383.2L 408.1 374.8C 413.8 370.2 420.7 364.9 423.3 363.1C 426 361.3 427.8 359.4 427.3 359C 426.9 358.6 419.1 356.2 410 353.6C 400.9 351 392.8 348.7 391.9 348.5C 391.1 348.2 387.6 350.3 383.9 353.3z"/>
<path style="stroke:none; fill:#000000" d="M 142 358.1C 132.4 361.3 123.9 364.3 123.1 364.7C 122.1 365.3 124 367 130.1 371C 134.6 374 141.8 379.1 145.9 382.2C 150 385.4 153.9 388 154.5 388C 156.3 388 185.3 385.1 189.8 384.5L 194.1 383.9L 187.9 376.9C 182.2 370.5 164.7 354.9 161 353.1C 160.1 352.6 152.6 354.6 142 358.1z"/>
<path style="stroke:none; fill:#000000" d="M 423.9 367.3C 413 375.2 402.9 383.2 403.3 383.6C 403.5 383.8 408.4 384.7 414.3 385.5C 420.2 386.4 429.4 388.2 434.7 389.5L 444.4 391.8L 459.3 382.7L 474.2 373.5L 471.1 372.3C 466 370.2 435.7 361 434.1 361C 433.2 361 428.6 363.9 423.9 367.3z"/>
<path style="stroke:none; fill:#000000" d="M 95.8 373.5C 86.1 377 77.5 380.2 76.6 380.7C 75.5 381.3 79.1 383.7 90.8 390.1L 106.4 398.7L 115 396.3C 119.7 395 128.8 392.9 135.4 391.5C 141.9 390.2 147.4 388.9 147.7 388.7C 148.8 387.5 118.4 367 115.5 367C 114.4 367.1 105.5 370 95.8 373.5z"/>
<path style="stroke:none; fill:#000000" d="M 335 379.6C 335.1 380.1 335.7 383.2 336.5 386.5C 337.3 389.8 338 395 338 398C 338.1 402.6 338.3 403.2 339.3 401.7C 348 388.5 351 383.7 350.8 383.5C 350.6 383.3 347.7 382.5 344.3 381.6C 340.9 380.7 337.4 379.7 336.5 379.4C 335.7 379.1 335 379.2 335 379.6z"/>
<path style="stroke:none; fill:#000000" d="M 208.7 383.9L 201 386.6L 205.3 392.5C 207.7 395.8 210.6 400.2 211.9 402.2C 213.1 404.3 214.3 406 214.5 406C 214.7 406 214.9 402.7 214.9 398.7C 214.9 394.8 215.6 389.1 216.3 386.2C 217.1 383.4 217.4 381.1 217.1 381.2C 216.8 381.2 213 382.5 208.7 383.9z"/>
<path style="stroke:none; fill:#000000" d="M 349.8 392.2C 343 402.5 336 415.1 336 417.2C 336 418.1 334.1 422.7 331.7 427.4C 329.3 432.1 327.7 436 328.1 436C 328.5 436 330.1 434.9 331.7 433.6C 338.1 428.2 349.7 420.9 354.8 419C 360.2 417 361.9 415.6 388.3 391.8C 392 388.5 393.1 387 392 386.7C 391.2 386.4 384.2 385.9 376.5 385.5C 368.8 385.2 360.9 384.7 358.9 384.4C 355.4 383.8 355.3 383.9 349.8 392.2z"/>
<path style="stroke:none; fill:#000000" d="M 192.9 387.4C 192.7 387.6 185.1 388.6 176 389.5C 166.9 390.4 159.3 391.4 159 391.7C 158.5 392.2 160.3 393.7 180.3 410.1C 188.7 417 194.8 421.2 197.4 422C 202.8 423.5 212.8 429 219.4 434C 226.1 439 227.8 439.1 224.5 434.2C 223.1 432.1 220.4 426.7 218.6 422.4C 214.9 413.7 209.3 404.2 201.6 393.7C 197.3 387.9 194.5 385.9 192.9 387.4z"/>
<path style="stroke:none; fill:#000000" d="M 383.7 400.7C 375.6 408.2 369.1 414.4 369.2 414.4C 369.4 414.5 372.7 414.4 376.5 414.1C 380.4 413.8 389 413.9 395.8 414.3L 408.2 415.1L 423.6 405.3C 432 399.9 439 395.2 439 394.8C 439 393.7 417.5 389.4 403 387.6L 398.5 387.1L 383.7 400.7z"/>
<path style="stroke:none; fill:#000000" d="M 145.5 393.1C 131.4 395.7 110.5 400.8 111.2 401.5C 111.4 401.7 119.1 406.1 128.3 411.4L 145.1 421L 151.8 419.8C 155.5 419.1 164.2 418.6 171.2 418.5C 178.3 418.5 184 418.3 183.9 418C 183.8 416.9 153.3 392.5 151.9 392.4C 151.1 392.3 148.3 392.6 145.5 393.1z"/>
<path style="stroke:none; fill:#000000" d="M 369.6 418.6C 365.4 419.4 361.2 421 359.1 422.6C 340.5 436.2 327.5 441.5 302.5 445.5C 288.5 447.8 287.3 448.4 294.6 449.8C 297.8 450.5 306 452.6 312.7 454.6L 324.9 458.2L 347.2 447.6C 368.9 437.3 401 420.1 401 418.9C 401 416.8 379.6 416.6 369.6 418.6z"/>
<path style="stroke:none; fill:#000000" d="M 155.8 422.7C 153.7 422.9 152 423.6 152 424.1C 152 424.7 159.8 428.9 169.3 433.5L 186.5 441.9L 192.4 440.5C 195.6 439.7 201.9 438.8 206.3 438.4L 214.3 437.7L 210.4 435.8C 208.3 434.7 203 431.5 198.7 428.8C 194.5 426 189.1 423.4 186.7 422.9C 182.5 422.1 162.9 422 155.8 422.7z"/>
<path style="stroke:none; fill:#000000" d="M 198.3 442.9C 195.9 443.3 193.8 443.9 193.5 444.2C 193.2 444.5 201.4 448.2 211.6 452.5L 230.3 460.3L 242.4 456.2C 249 454 257.2 451.3 260.5 450.4L 266.5 448.6L 256.5 447.3C 251 446.6 242.5 445.2 237.5 444.3C 227.8 442.6 205.1 441.7 198.3 442.9z"/>
<path style="stroke:none; fill:#000000" d="M 275.8 445.7C 277 445.9 278.8 445.9 279.8 445.7C 280.7 445.4 279.7 445.2 277.5 445.3C 275.3 445.3 274.5 445.5 275.8 445.7z"/>
<path style="stroke:none; fill:#000000" d="M 267 452.6C 256.3 455.4 235.7 462 236.2 462.5C 236.4 462.7 245.9 467.1 257.3 472.4L 278.1 481.9L 298.7 471.3C 312.2 464.3 318.8 460.4 317.9 460C 314.8 458.3 280.1 449.8 277.1 450C 276.8 450.1 272.2 451.2 267 452.6z"/>
<path style="stroke:none; fill:#000000" d="M 539.7 449.7C 539.4 456.2 539.4 461.8 539.6 462.2C 540.4 463.4 566.4 463.2 569.7 461.9C 571.2 461.4 573.7 459.7 575.3 458.2C 577.5 456.1 578 454.8 578 450.8C 578 440.5 573.2 438 553.6 438L 540.3 438L 539.7 449.7z"/>
<path style="stroke:none; fill:#000000" d="M 539.8 467.6C 539.3 468 539 473.9 539 480.7L 539 493L 554.8 492.9C 572.8 492.9 576.4 492 579.7 487.1C 583.9 480.8 581.9 472.6 575.4 469.5C 572.2 467.9 568.6 467.5 556 467.2C 547.5 467 540.2 467.2 539.8 467.6z"/>
<path style="stroke:none; fill:#000000" d="M 686 455L 686 472.1L 700.4 471.8C 716.1 471.5 717.7 471 722.4 464.6C 725.4 460.7 725.4 449.3 722.4 445.4C 718.4 440 713.8 438.5 699.3 438.2L 686 437.8L 686 455z"/>
<path style="stroke:none; fill:#000000" d="M 935 465.5L 935 493L 948.5 493C 963.2 493 968.8 491.7 975.5 486.6C 984.3 479.9 987.2 464 981.7 452.8C 976.2 441.7 967.9 438 947.8 438L 935 438L 935 465.5z"/>
</g>
</g>
</svg>