<?xml version="1.0" encoding="UTF-8" standalone="yes"?>
<!-- Created with sK1/UniConvertor (http://sk1project.org/) -->
<svg xmlns="http://www.w3.org/2000/svg" xmlns:xlink="http://www.w3.org/1999/xlink"
  width="281pt" height="165pt" viewBox="0 0 281 165"
  fill-rule="evenodd">
<g>
<g>
<path style="stroke:none; fill:#000000" d="M 0 82.5L 0 165L 140.5 165L 281 165L 281 82.5L 281 0L 140.5 0L 0 0L 0 82.5zM 170.9 32.5C 202.3 45.7 210.6 48.7 234.5 55.6C 260.5 63.1 275.4 67.8 277.5 69.4C 279.1 70.5 278.3 71.2 270.4 76C 265.5 78.9 254.3 85.9 245.5 91.5C 220.3 107.6 217.3 109.2 172.7 131L 143.9 145.2L 128.2 138.2C 119.6 134.3 104.4 127.7 94.5 123.5C 74.6 115.1 59.6 107.4 35.5 93.5C 26.7 88.5 16.2 82.6 12.2 80.4C 8.3 78.3 5 76.1 5 75.5C 5 74.2 8.1 73 43 61.4C 73.7 51.1 85.8 46.4 104.5 37.5C 129.8 25.4 140.5 21 143 21.4C 144.4 21.7 157 26.7 170.9 32.5z"/>
<path style="stroke:none; fill:#000000" d="M 131.5 27.9C 123.7 31.3 119.8 34 122.8 34C 123.3 34 127.7 36.5 132.5 39.5C 137.4 42.6 141.8 44.9 142.4 44.8C 144 44.4 161.9 32.6 162 32C 162 31.3 143.6 24 141.8 24C 141.1 24 136.5 25.8 131.5 27.9z"/>
<path style="stroke:none; fill:#000000" d="M 155.2 39.7C 149.6 43.4 145 46.7 145 47C 145 47.3 147.6 48.1 150.8 48.8C 157.1 50.2 165.2 54 168.7 57.2L 171 59.3L 179.2 51.4C 183.8 47.1 187.6 43.3 187.7 43C 187.9 42.6 180.2 39.1 166 33.2C 165.7 33.1 160.8 36 155.2 39.7z"/>
<path style="stroke:none; fill:#000000" d="M 106.8 39.2C 100.8 42 96 44.6 96 44.9C 96 45.2 97.4 46.4 99 47.6C 100.7 48.7 104.5 52 107.5 54.9L 112.9 60.1L 119.3 55.7C 123.2 53 128.3 50.6 132.3 49.5C 136 48.5 139 47.4 139 47.1C 139 46.4 137.7 45.5 126.6 38.8C 122.2 36.2 118.4 34 118.1 34.1C 117.8 34.1 112.7 36.4 106.8 39.2z"/>
<path style="stroke:none; fill:#000000" d="M 183.3 51C 178.8 54.8 174.9 58.9 174.5 59.9C 174.1 61.2 174.9 63.3 177 66.2C 180.6 71.2 181.6 71.8 188.2 73.6L 193.2 74.9L 204.1 63.7C 210.1 57.6 215 52.5 215 52.4C 215 52.2 213.7 51.9 212.1 51.5C 209.7 51 198.3 46.9 192.9 44.6C 191.9 44.1 188.8 46.2 183.3 51z"/>
<path style="stroke:none; fill:#000000" d="M 81 50.6C 75.2 53 70.1 55.2 69.5 55.4C 69 55.6 69.6 56.6 71 57.6C 72.4 58.6 77.6 63.3 82.6 68.2L 91.7 77.1L 98.3 74.9C 104.2 73 105.1 72.3 107.9 67.8C 109.6 65.1 111 62.5 111 62C 111 60.4 93.7 45.8 92.1 46.1C 91.8 46.2 86.8 48.2 81 50.6z"/>
<path style="stroke:none; fill:#000000" d="M 212.1 59.2C 204.6 65.8 197.7 73.7 198.4 74.8C 198.7 75.3 204.4 76 211.2 76.3L 223.4 76.9L 229.9 71.6C 233.5 68.7 238 65.3 239.8 64C 241.7 62.8 242.8 61.4 242.3 61C 241.6 60.4 220 54 218.6 54C 218.4 54 215.4 56.4 212.1 59.2z"/>
<path style="stroke:none; fill:#000000" d="M 52.3 60.8C 46.1 62.9 41 64.8 41 65.1C 41 65.4 43.6 67.4 46.8 69.5C 49.9 71.6 54.4 74.8 56.8 76.8L 61.1 80.2L 74.1 79C 82.5 78.2 87 77.3 87 76.6C 87 74.1 67.5 56.9 64.9 57.1C 64.1 57.2 58.4 58.8 52.3 60.8z"/>
<path style="stroke:none; fill:#000000" d="M 237.3 69.1C 232.2 72.9 228 76.4 228 76.8C 228 77.3 231.6 78.2 236 78.9C 240.3 79.5 246.2 80.7 249.1 81.4L 254.3 82.8L 263.6 77.1C 268.7 74 272.9 71.2 273 70.8C 273 70.2 248.4 61.9 247 62.1C 246.7 62.1 242.3 65.2 237.3 69.1z"/>
<path style="stroke:none; fill:#000000" d="M 32 67.5C 30.1 68.2 24.3 70.3 19.3 72.1C 14.2 73.9 10 75.7 10 76C 10 76.3 14.6 78.9 20.3 81.9L 30.5 87.2L 36 85.7C 39 84.8 45 83.4 49.3 82.5C 53.5 81.5 57 80.5 57 80.1C 57 79.3 37.4 66 36.3 66.1C 35.9 66.1 33.9 66.7 32 67.5z"/>
<path style="stroke:none; fill:#000000" d="M 182.6 78.2C 183 80 183.6 83.3 183.9 85.4L 184.5 89.3L 188.3 83.7C 190.3 80.6 192 77.9 192 77.6C 192 77.3 183.8 75 182.5 75C 182.1 75 182.2 76.5 182.6 78.2z"/>
<path style="stroke:none; fill:#000000" d="M 97.2 77.7C 94.5 78.7 93.3 79.6 93.7 80.3C 94.1 81 96 83.7 97.9 86.5L 101.5 91.4L 102.1 85.5C 102.5 82.2 103.1 78.7 103.5 77.7C 104.4 75.7 103.2 75.7 97.2 77.7z"/>
<path style="stroke:none; fill:#000000" d="M 191 84C 188.7 87.4 185.5 93.1 183.9 96.8C 182.2 100.5 180 105.3 179 107.4C 177.9 109.6 177.1 111.5 177.3 111.6C 177.5 111.8 180.1 110.1 183.1 107.8C 186.1 105.6 190.8 102.7 193.7 101.4C 196.5 100.1 201.2 97 204.2 94.4C 212.5 87.1 220.1 79.8 219.8 79.5C 219.6 79.4 214 79 207.3 78.6L 195.1 77.9L 191 84z"/>
<path style="stroke:none; fill:#000000" d="M 76 81.2C 70.8 81.7 66.2 82.5 65.8 82.8C 64.9 83.7 86.8 101.5 90 102.5C 94.1 103.8 100.3 107.1 104.1 110.1C 108.8 113.8 110.7 113.9 108.1 110.2C 107 108.6 105.4 105.4 104.4 102.9C 103.5 100.5 100 94.3 96.7 89.2C 91.5 81.4 90.2 80 88.1 80.1C 86.7 80.2 81.2 80.7 76 81.2z"/>
<path style="stroke:none; fill:#000000" d="M 214.3 88.3C 209.3 92.8 205.1 96.7 205.1 97C 205 97.3 211 97.5 218.3 97.5L 231.5 97.4L 240.8 91.5C 245.8 88.3 250 85.3 250 84.8C 250 84.4 249.9 84 249.8 84C 249.6 84 244.9 83.1 239.2 82C 233.6 80.9 227.7 80 226.2 80C 224.3 80.1 220.9 82.4 214.3 88.3z"/>
<path style="stroke:none; fill:#000000" d="M 56.5 83.6C 44.4 86.1 35.4 88.3 34.7 88.9C 34.3 89.4 38.9 92.5 44.9 95.9C 54.4 101.3 56.4 102.1 59.2 101.5C 61 101.1 66.6 100.5 71.6 100.1L 80.8 99.5L 70.8 91.2C 65.3 86.7 60.3 83.1 59.7 83.1C 59 83.2 57.6 83.4 56.5 83.6z"/>
<path style="stroke:none; fill:#000000" d="M 202.4 100.9C 200.7 101.4 197.7 102.8 195.9 104.2C 185.9 111.8 175.8 115.9 162 118C 154.2 119.3 149.5 120.9 153.6 121C 154.8 121 160.2 122.3 165.6 123.9L 175.4 126.8L 195.9 116.6C 219.5 104.8 225 101.8 225 100.7C 225 99.8 206.5 100 202.4 100.9z"/>
<path style="stroke:none; fill:#000000" d="M 61 104C 61 104.6 66.1 107.5 72.3 110.6C 82.5 115.6 83.8 115.9 87 115C 88.9 114.5 92.1 114 94 114C 100.7 114 100.4 112.6 92.8 107.9L 85.5 103.5L 73.3 103.2C 64.7 102.9 61 103.2 61 104z"/>
<path style="stroke:none; fill:#000000" d="M 90.5 117L 87.5 117.7L 90.5 118.9C 92.2 119.6 97.7 121.9 102.8 124.2L 112 128.2L 123.7 124.4L 135.4 120.5L 130.4 119.8C 127.7 119.4 121.3 118.3 116.2 117.5C 106.5 115.9 95.7 115.7 90.5 117z"/>
<path style="stroke:none; fill:#000000" d="M 138 122.7C 129.5 124.8 117 129.1 117 129.9C 117 130.3 118.9 131.3 121.3 132.2C 123.6 133.1 129.7 135.7 134.8 138.1L 144 142.4L 157.3 135.6C 164.5 131.8 170.6 128.6 170.8 128.5C 171.3 128 160.6 125 151.5 123.1C 144.4 121.5 142.9 121.5 138 122.7z"/>
</g>
</g>
</svg>