<svg id="Livello_1" data-name="Livello 1" xmlns="http://www.w3.org/2000/svg" viewBox="0 0 1920 1080"><path d="M269.66,606.05a1.94,1.94,0,0,1,.43-.27A1.41,1.41,0,0,0,269.66,606.05Z"/><path d="M667,510.69c-.32-2.09-2.22-2.61-4.11-3.28-21.41-7.55-43.07-14.33-64.89-20.56-39.66-11.33-79.48-22.12-117.83-37.53-32.87-13.21-65.1-27.9-97.91-41.27-12.31-5-22.47-5-34.77.47-34.28,15.23-67.76,32.16-102.18,47.07-39.34,17.05-80.41,29.18-121,42.67C104,505,83.6,511.87,63.82,520.29v4.65c19.64,10.39,39.34,20.68,58.49,32,37,21.8,74.16,43.18,113.58,60.37,43.82,19.11,88.44,36.4,131.27,57.74,2.26,1.13,3.84.59,5.73-.45,19.88-11,40.14-21.26,60.61-31.11,38.64-18.59,77.82-36.11,114.78-58,39.18-23.23,76.25-49.86,116.3-71.67C665.8,513.09,667.24,512.13,667,510.69ZM538.43,475.3c17,5.16,34.17,10,51.85,15.19-13,8.93-25.7,17.69-36.92,28.15-6.12,5.72-12.22,7.53-20.37,6.64-14.45-1.57-29-2.16-43.52-3.17-.79-.05-1.58-.19-3.3-.41,2.39-3,4.29-5.35,6.23-7.69A266.2,266.2,0,0,1,530,476.89C532.73,474.7,535.07,474.28,538.43,475.3Zm-86.51,43.64a119.45,119.45,0,0,0,24.65,6.53l-19.06,29.94A98,98,0,0,0,451.92,518.94Zm3.94,51.79c6.29-15.31,16.07-28.91,25.5-42.55a3.16,3.16,0,0,1,3.46-1.53c17.49,2.46,35.19,2.22,52.75,4,.48,1.41-.77,1.8-1.45,2.41q-21.37,19.32-42.79,38.6a23,23,0,0,1-7.92,4.75c-13.89,4.91-25.84,13.07-36.94,22.56-2.21,1.89-4.32,3.9-8,3.9C447.7,592.88,451.37,581.68,455.86,570.73ZM477.19,454c16.2,6.66,32.76,12.35,50.32,18.13-5.13,4.45-9.75,8.29-14.18,12.34a246.89,246.89,0,0,0-30.15,32.86c-2.09,2.74-4.06,3.46-7.38,2.85a123.59,123.59,0,0,1-24.35-7,6.84,6.84,0,0,1-3.85-3.19,91.36,91.36,0,0,0-12-17.48c-1.63-1.86-1.46-2.95.12-4.72a258.42,258.42,0,0,1,35.84-33A5,5,0,0,1,477.19,454Zm-57-24.27c15.46,6.72,31,13.32,46.46,20a9.94,9.94,0,0,1,1.5,1.08c-13.25,10.38-25.56,21.23-36.3,33.73-1.65,1.93-2.71,1.26-4.19,0-15.28-13.47-33.16-20.85-53.44-22.56-1.4-.12-3-.44-3.27-1.94s1.39-1.77,2.3-2.44A428.23,428.23,0,0,1,415,430.38C416.67,429.42,418.13,428.81,420.17,429.69Zm-43.1,186c-2.5,1.25-4.27,2.13-6.42,1.85l-6.06,0c-2.35.61-4.28-.5-7.41-1.87h19.89ZM363,408.39c2.18-.95,3.75.1,5.39.73,14.28,5.46,28.51,11,43,16.67-2.2,2.51-5,3.49-7.5,5-11.95,7.32-23.67,15-34.87,23.38-2.36,1.77-3.95,2.26-6.65.37a418.38,418.38,0,0,0-44.47-26.89C333.69,420.94,348.39,414.76,363,408.39ZM309.14,432a6.14,6.14,0,0,1,6.2.15,460,460,0,0,1,42.59,25.59c.94.64,2.6,1,2.41,2.39s-1.85,1.8-3.18,2c-6.6,1.19-13.2,2.18-19.61,4.47a91.13,91.13,0,0,0-32.87,20c-1.42,1.36-2.35,2.72-4.43.48-11.31-12.2-24.1-22.74-38.12-32.77C278.14,446.75,293.67,439.42,309.14,432Zm-55.09,25.7c1.89-.85,3.1-.43,4.63.64a258.05,258.05,0,0,1,37.51,31.86c2.07,2.12,1.88,3.44.08,5.51A57.39,57.39,0,0,0,287.05,510a14,14,0,0,1-8.35,7.73,145.2,145.2,0,0,1-23.23,7.11c-1.87.4-3.19.3-4.52-1.31A269.64,269.64,0,0,0,204,479c-.23-.17-.25-.61-.45-1.1C220.59,471.67,237.53,465.18,254.05,457.69Zm23,102-20.55-29.79a122.19,122.19,0,0,0,24.91-7.7A92.07,92.07,0,0,0,277,559.66Zm-3.24,5.15a76.83,76.83,0,0,1,7.9,16.19A82.66,82.66,0,0,0,295,605.5c-4-.06-4-.06-7.2-2.6-12-9.5-24.83-17.52-39.72-21.79a17.6,17.6,0,0,1-6.23-3.59l-48.5-40c13.8-1.4,26.36-2.66,38.91-3.95,3.78-.39,7.75-.3,11.31-1.43,5.47-1.73,8.45.32,11.44,4.67C261.36,546.11,267.84,555.29,273.79,564.81ZM156.18,493.73c12.39-4.06,24.78-8.08,37.13-12.26,2.11-.72,3.7-1.05,5.71.4a268.4,268.4,0,0,1,47.86,44.85C235.49,528,225.22,529.1,215,530.2c-7.91.84-15.83,1.59-23.74,2.46-1.94.21-3.65.26-5.35-1.08a467.83,467.83,0,0,0-46.3-32.5C145.72,497.1,151,495.44,156.18,493.73Zm-55.54,44.82c-8.69-6-18.6-10.25-28.76-15.71,19.28-7.51,38.14-13.89,57-20.42a8,8,0,0,1,7.66.8A456.92,456.92,0,0,1,180.43,534c-14.86,2.37-28.75,5.33-42.52,8.81a5.42,5.42,0,0,0-1,.2C123.8,549.55,112.27,546.58,100.64,538.55ZM173.51,580l-48.88-28a358.06,358.06,0,0,1,36.22-9.05c6.43-1.34,13-2,19.38-3.52,4.31-1,7.42-.11,10.79,2.75,13.57,11.53,27.4,22.76,41.13,34.1.76.28,2,1,1.4,1.49-1.38,1.22-3,.43-4.38-.48-16.69-1.8-33.17-.13-49.6,2.78C177.58,580.4,175.52,581.15,173.51,580Zm60.22,30.25c-17-7.77-33.88-16-51.25-25.4,20-3.37,38.9-4.71,57.91-.44a18.86,18.86,0,0,1,6.43,3.21c9,6.11,17.91,12.4,28,16.66a2.24,2.24,0,0,1,2.29,1.77h-7.47c-10.08.25-20,2-29.81,4C237.82,610.44,235.76,611.18,233.73,610.25Zm65,27.67c-18-7.6-36-15.13-55.29-23.24A161.62,161.62,0,0,1,279.89,611c17.2.35,33.68,5.8,50.74,7.26,7.23.62,14.43,1.72,21.64,2.6-16.91,5.12-33.67,10.44-50.1,16.75C301.05,638,300.11,638.5,298.76,637.92Zm112.1,10.5q-19,9.83-38,19.82c-2.08,1.1-3.8,1.59-6.23.4q-28.23-13.83-57.18-26.16a11.34,11.34,0,0,1-1.88-1.42c19.11-7.09,38.12-13.18,57.75-17.08,7.84-1.55,15.42,1.42,23,3a401.35,401.35,0,0,1,42.44,11.49C423.51,642.08,417.14,645.17,410.86,648.42ZM527.7,590.71c-28.4,16-58.08,29.32-87.45,43.32-1.32.63-2.52,1.38-4.34.74A454.09,454.09,0,0,0,386.51,621a13.34,13.34,0,0,1-2-.91c17.82-3.1,35.18-5.27,52-10a130.9,130.9,0,0,0,46.71-24,44.9,44.9,0,0,1,22.47-9.55c14.87-2.12,29.63-1.65,46,.5C542.84,582.09,535.29,586.44,527.7,590.71Zm32.22-18.84a4.68,4.68,0,0,1-3.42.71c-18.35-3-36.75-3.82-55.67-.45L543.07,534c1.68-1.51,3.25-2.75,5.88-2.46a438.47,438.47,0,0,1,55.59,9.92,13.9,13.9,0,0,1,2,1Zm77.29-48.68c-7.09,4.28-14.12,8.65-21.16,13-1.8,1.11-3.52,2-5.8,1.37a398.26,398.26,0,0,0-56.57-10.66c-.28,0-.52-.38-1.28-1,4.44-3.66,8.75-7.27,13.12-10.79,9.16-7.4,18.78-14.18,28.44-20.91a6.79,6.79,0,0,1,6.28-1.12c18.8,5.81,37.68,11.38,57,18.22C650.17,515.49,643.66,519.29,637.21,523.19Z"/><path d="M922.17,383.52q0,79.16,0,158.32c0,1.73,0,3.46.08,5.19.14,2.28,1.33,3.49,3.62,3.54,7.63.18,15.25.14,22.88,0,3.84-.06,3.73-2.86,3.74-5.52,0-11.59,0-23.19,0-34.78,0-1.73,0-3.46,0-5.19.26-5.06,1.19-6.2,6.18-6.27,12.48-.19,25-.06,37.45-.07,4.35,0,6.94,2.35,9.24,5.67,9.45,13.67,19.13,27.19,28.54,40.88,2.65,3.86,5.65,5.63,10.33,5.42,6.23-.28,12.48,0,18.72-.1,1.63,0,3.83.79,4.7-1.09.7-1.51-.91-2.85-1.79-4.08-10.32-14.55-20.45-29.22-30.76-43.77-.3-.42-.62-.84-.91-1.27-3.81-5.61-3.58-7.62,2.58-10.38,36.79-16.53,41.55-70.63,11.5-96.42-11-9.47-24.46-13.28-38.52-15.57-4.5-.73-9.41.33-13.44-2.75" fill="#fdfdfd"/><path d="M786.94,378.05a88.13,88.13,0,0,0-25.57,11.3c-25.36,16.91-39.09,40.26-40.14,71-.63,18.77,3.41,36.13,13.66,51.81,12.77,19.53,30.62,32.57,53.44,37.65,31.38,7,61.28,3,88.9-14.36,4.14-2.61,5.78-5.78,5.73-10.66-.21-18.33-.07-36.67-.09-55,0-6.27-.28-6.54-6.33-6.58-5.55,0-11.1.13-16.64-.05-4.08-.14-5.49,1.55-5.45,5.54.13,13.66-.21,27.34.16,41,.17,6.18-2.21,9.69-7.83,11.76-23.19,8.55-46,8.82-67.31-4.81-17.58-11.24-27-27.75-27.72-48.92-.41-11.94,1-23.3,6.63-34.19,9.75-18.78,25.55-28.72,45.8-32.09,21-3.5,40.35.86,57,14.62,3.41,2.82,5.93,2.69,8.78-.61,3.18-3.66,7.45-6.2,10.77-9.75,3.56-3.82,3.5-4.86-.41-8.39a86.59,86.59,0,0,0-34.78-19.06c-2-.57-5.12-.34-4.7-4" fill="#fdfdfd"/><path d="M840.63,375.52c15.76,3.78,29.86,10.61,41.81,21.8,3.78,3.53,3.84,5.56-.46,8.93a90.29,90.29,0,0,0-11.93,11.53c-3,3.4-4.56,3.94-8.09.83-22.22-19.59-57-22.41-81.67-7-20.56,12.85-31.42,38.58-26.82,63.51s22.89,44.1,47,49c16.74,3.39,33,1.93,48.74-5.09,2.91-1.3,4-2.95,4-6.24-.19-15.56,0-31.14-.15-46.7,0-3.68.7-4.87,6.06-4.2a75.3,75.3,0,0,0,18.25.21c5.49-.65,7-.66,7,2.85q-.13,32.18,0,64.35c0,2.74-1.37,4-3.25,5.32-15.74,11.21-33.43,17.23-52.49,19.2-25,2.59-48.76-1-69.95-15.46-24.55-16.72-37.26-40.22-38.9-69.7-2.2-39.43,19.4-72.41,53.16-87.18a96.5,96.5,0,0,1,18.73-6,10.53,10.53,0,0,1,4.21-1.06" fill="#010101"/><path d="M996.67,375.47c14.11.64,27.89,2.67,40.65,9.26,23.23,12,33.07,31.76,31.94,57-1,23.28-12,40.67-33.68,50.65-1.09.5-2.17,1-3.84,1.82l40.57,57.92c-11.88,0-22.88,0-33.87,0-2.26,0-2.74-1.87-3.67-3.2-10.54-15-21.1-30-31.48-45.07-1.76-2.56-3.5-3.56-6.7-3.48-12.31.28-24.62.36-36.93.11-4.33-.09-5.94.65-5.79,5.51.4,13.83,0,27.69.26,41.52.09,4.08-1.18,4.83-4.9,4.69-7.79-.3-15.62-.35-23.4,0-4,.19-4.81-1.07-4.81-4.88q.19-82.8.08-165.6c0-1.9-.12-3.8-.18-5.69"/><path d="M1197.36,375.81q32,71,64.08,142c5.09,11.27,10.17,22.55,15.5,34.38-11.21,0-21.74-.09-32.26.05-2.77,0-2.88-2-3.58-3.59-4.9-11.23-9.83-22.44-14.55-33.74-1.09-2.59-2.38-3.6-5.31-3.59q-40.56.2-81.14,0c-2.94,0-4.19,1-5.26,3.61-4.67,11.32-9.67,22.5-14.32,33.83-1.09,2.65-2.39,3.57-5.28,3.51-9.83-.21-19.66-.08-30.11-.08,6.73-15,13.22-29.41,19.73-43.84q29-64.4,58.13-128.78c.62-1.39,1.45-2.68,2.19-4,7.08-1.08,13.71-.67,20.57-.81C1189.6,374.63,1193.55,374.47,1197.36,375.81Z"/><path d="M1429.72,376.66q-30.27,69.15-60.53,138.31c-4.91,11.21-9.86,22.4-14.61,33.67-1.08,2.56-2.26,3.69-5.24,3.59-8.14-.25-16.3-.38-24.42,0-3.79.2-5-1.54-6.23-4.45q-37.14-85.05-74.44-170c-.28-.63-.59-1.24-.89-1.87,1.41-1.81,3.44-1.3,5.26-1.3,9.46,0,18.91-.06,28.36,0,3.7,0,4.28,3.11,5.31,5.53,8.08,18.94,16.44,37.76,24.57,56.68,10,23.36,20.23,46.65,30.41,70.46,2.19-1.65,2.75-3.86,3.59-5.8q26.21-60.49,52.69-120.87c1.08-2.49,1.74-5.4,5.13-6,8.63-.15,17.25-.09,25.87,0C1426.41,374.67,1428.88,373.76,1429.72,376.66Z"/><path d="M1856,375.51c.67,2-1,3.11-1.85,4.47q-32,53-64.13,105.89a15.79,15.79,0,0,0-2.5,8.73c.12,17.64-.09,35.28.17,52.92.06,4-1.11,4.87-4.88,4.72-7.61-.31-15.25-.29-22.87,0-3.86.15-5.24-.65-5.17-4.93.28-17.63.07-35.28.16-52.92a13.17,13.17,0,0,0-2-7.28q-33.75-55.55-67.4-111.17c1.42-1.82,3.46-1.29,5.3-1.3q13.52-.08,27,0c3.68-.27,5,2.54,6.49,5.05,14.85,24.55,29.82,49,44.52,73.65.18.3.34.6.52.89,2.9,4.74,3.05,4.78,5.85.11,10.67-17.78,21.58-35.41,32.28-53.18,4.54-7.54,9.16-15.05,13.76-22.57,1.17-1.91,2.25-4,5-3.93,9.36,0,18.7-.17,28,.1A4.17,4.17,0,0,1,1856,375.51Z"/><path d="M1663.54,375.57c1.45,8.54.38,17.14.57,25.72.06,3.13-2.71,2-4.34,2-16.29.07-32.58.24-48.86-.08-4.65-.09-5.64,1.17-5.62,5.68.18,46,0,92,.21,138,0,4.23-.84,5.61-5.27,5.36-7.6-.41-15.25-.36-22.86,0-4,.19-4.79-1-4.78-4.81.15-46.17,0-92.33.21-138.5,0-4.55-1-5.79-5.67-5.7-15.59.33-31.19-.17-46.77.28-5.71.17-6.91-1.72-6.59-6.89.42-6.89.08-13.82.07-20.74"/><path d="M1489.76,375.7q.08,65.13.14,130.26c0,14-.12,28,.09,42.05,0,3.44-.94,4.32-4.29,4.22-8.32-.24-16.64-.15-25,0-2.46,0-3.64-.29-3.64-3.28q.15-85.89.11-171.8a7.28,7.28,0,0,1,.31-1.5"/><path d="M798.13,657.86c10.52,2.4,17.2,7.6,19.56,17.15,3.67,14.8-5,27-21.11,29.69a68,68,0,0,1-10.84,1c-13.16.14-26.33,0-39.5.16-2.77,0-3.85-.52-3.83-3.61q.18-42.79,0-85.59c0-2.66.33-4.11,3.59-4,14.19.39,28.41-.53,42.59.65,15.76,1.31,25.36,10.64,24.79,24.35C813,647.23,807.89,653.72,798.13,657.86Z"/><path d="M1321.11,659.28c0-14.17,0-28.34,0-42.52,0-1.66-.94-4.11,2.33-4,15.22.34,30.59-1.49,45.64,1.19,24.83,4.43,39.69,23.85,38.37,48.83-1.22,23.2-19.46,41.25-44.14,42.75-13.11.79-26.31.18-39.47.39-3,0-2.78-1.58-2.77-3.56Q1321.13,680.8,1321.11,659.28Z"/><path d="M1029,705.27c-5.47,1.91-8.34-.42-11-4.47-5.24-7.91-11-15.49-16.48-23.25-1.25-1.79-2.39-3.1-4.95-2.75-9.48,1.28-19,.61-28.54.59-3.3,0-4.56.71-4.42,4.27.28,7.42,0,14.86.14,22.29,0,2.64-.23,4-3.5,4-3,0-3.26-1.29-3.25-3.68,0-28.53,0-57,.06-85.57,0-1.68-.89-4.09,2.38-4,14.68.46,29.48-1.37,44,1.63,14,2.89,22.94,12.49,24.31,25.44,1.62,15.29-4.55,26.36-18.53,32.27-3.26,1.38-2.34,2.4-1,4.31C1015.16,685.87,1022,695.41,1029,705.27Z"/><path d="M1762.81,659.36c0-14.17.07-28.35-.06-42.53,0-3.06.66-4.22,4-4.19,18.19.16,36.38.1,54.57,0,2.4,0,3.81.22,3.86,3.26,0,3.45-2.06,2.87-4.07,2.87-15.76,0-31.53.11-47.3-.08-3.47-.05-4.34,1-4.26,4.33.23,9.33.33,18.68,0,28-.16,4.19,1.39,4.73,5,4.68,13.51-.21,27-.09,40.54-.08,2.18,0,4.54-.64,4.41,3.13-.12,3.59-2.48,2.66-4.33,2.67-13.69,0-27.37.16-41.06-.06-3.68-.06-4.63,1-4.54,4.59q.38,14.78,0,29.57c-.09,3.52,1.06,4.2,4.33,4.17,16.28-.16,32.57-.08,48.86-.06,2.08,0,4.41-.83,4.47,3s-2.08,3.15-4.27,3.15c-18.71,0-37.42-.07-56.13.07-3.16,0-4.12-.74-4.08-4C1762.91,687.72,1762.81,673.54,1762.81,659.36Z" fill="#010101"/><path d="M1618.66,677.77c0,3.63-.37,7.31.08,10.88.65,5.08-1.67,7.9-5.78,10.37-25.17,15.09-64.78,7.64-74.62-26.27a47,47,0,0,1,44-60.5c12.17-.39,23.38,2.06,33.19,9.49,1.43,1.09,4.5,1.79,1.85,5-2.37,2.9-3.61,1.47-5.7-.15-15.85-12.27-40.78-10.67-56.41,3.48-13.55,12.27-16.23,35.23-5.22,51.85,8.7,13.12,21.74,18.66,37.41,18.15a44.67,44.67,0,0,0,20.35-5.36c3.06-1.67,4.51-3.61,4.36-7.32-.31-7.94-.05-15.9-.12-23.85,0-2.29,0-3.86,3.15-3.91,3.33,0,3.57,1.52,3.49,4.11C1618.55,668.43,1618.65,673.11,1618.66,677.77Z"/><path d="M987,375.07q-30.4.09-60.81,0" fill="#e4e4e4"/><path d="M1659.6,375.09q-71,0-142,0" fill="#e4e4e4"/><path d="M1719.84,375.13c-11.54-.31-23.1.48-34.64-.41" fill="#e4e4e4"/><path d="M1856,375.51l-1.12-.1c-10.14-.68-20.3-.18-30.45-.26" fill="#e4e4e4"/><path d="M1167.28,659.67c0-14.33,0-28.67,0-43,0-2.54.06-4.14,3.46-4.09s3.5,1.63,3.5,4.19q-.09,42.74,0,85.48c0,3.11-1.13,3.54-3.87,3.69-3.32.18-3.1-1.61-3.1-3.79C1167.3,688,1167.28,673.83,1167.28,659.67Z" fill="#050505"/><path d="M1663.54,375.57q-71.74,0-143.48.08c-2.08,0-4.15.16-6.22.24" fill="#e5e5e5"/><path d="M996.67,375.47q-34.78.09-69.58.18c-2.06,0-4.12.28-6.17.43" fill="#e5e5e5"/><path d="M1489.76,375.7l-32.24-.09" fill="#e5e5e5"/><path d="M954,438.45q0-15.81,0-31.61c0-1.58-.68-3.59,2.27-3.49,17.27.57,34.68-1.6,51.8,1.53,13.06,2.38,23.35,9.17,26.7,22.86,3.41,13.88,1.68,26.91-10,36.84-6.82,5.83-15.27,8.24-24,8.57-14.52.55-29.07.27-43.6.54-3,.05-3.32-1.16-3.29-3.63C954.07,459.53,954,449,954,438.45Z" fill="#fefefe"/><path d="M1214,485.48H1147.6l33-77.14Z" fill="#fefefe"/><path d="M1393.39,374.68c1.34,0,2.81-.31,3.82,1-19.64,45-39.28,89.93-59.38,135.93-2.3-5.21-4.22-9.47-6.07-13.76l-51.08-118.17c-.61-1.41-1.38-2.75-2.08-4.12a2.66,2.66,0,0,1,.18-.8" fill="#fefefe"/><path d="M1824.6,374.73c.42.1.59.26.5.48s-.2.36-.32.36q-24.42,39.94-48.82,79.9c-1.14,1.88-2.3,3.74-3.72,6-12.58-20.9-24.76-41.33-37.16-61.63-5-8.2-9.32-16.85-15.35-24.42a1.92,1.92,0,0,1,.15-.74" fill="#fefefe"/><path d="M1824.78,375.57a2.69,2.69,0,0,0-.18-.84c10.1.19,20.24-1,30.31.68Z" fill="#e5e5e5"/><path d="M772.6,699.89c-7.56,0-13.8-.12-20,.06-2.72.07-3.55-.77-3.51-3.5q.23-15.81,0-31.62c-.05-2.9,1.1-3.44,3.66-3.38,13.14.28,26.3-.38,39.44.67,14.71,1.17,22.72,12.16,18.29,25.29-2.25,6.67-7.55,9.58-13.85,11.13C788.27,700.59,779.73,699.65,772.6,699.89Z" fill="#fefefe"/><path d="M767.71,618.62c7.25,0,14.5-.14,21.75.83,10.43,1.39,16.85,7.82,16.92,17.44.07,10-6.38,16.9-16.86,18.11-12.42,1.43-24.88.52-37.32.85-2.67.07-3.13-1.06-3.11-3.38.1-10.18.15-20.37,0-30.55,0-2.89,1-3.44,3.6-3.35C757.67,618.74,762.69,618.62,767.71,618.62Z" fill="#fefefe"/><path d="M1327.74,659.21c0-12.11,0-24.22,0-36.32,0-1.7-.88-4.16,2.36-4.07,13.81.4,27.81-1.61,41.38,2,20,5.3,30.49,21.29,28.92,43.22-1.32,18.43-15.09,32.27-34.62,34.85-11.74,1.56-23.54.37-35.3.83-3,.11-2.79-1.66-2.79-3.65Q1327.77,677.63,1327.74,659.21Z" fill="#fefefe"/><path d="M963.71,644c0-7.25,0-14.5,0-21.76,0-2.26.4-3.52,3.1-3.44,10.71.31,21.49-.73,32.14.87,9.8,1.47,18,5.67,20.79,16.05,2.69,9.87,1.93,19.27-6.14,26.72-5.35,4.94-12.15,6.51-19.14,6.78-9.17.34-18.35.11-27.51.3-2.5,0-3.31-.75-3.26-3.23C963.79,658.83,963.71,651.4,963.71,644Z" fill="#fefefe"/></svg>