<?xml version="1.0" encoding="UTF-8"?>
<!-- Created with Inkscape (http://www.inkscape.org/) -->
<svg width="474.22mm" height="87.893mm" version="1.1" viewBox="0 0 474.22 87.893" xmlns="http://www.w3.org/2000/svg">
 <g transform="translate(31.613 -86.444)" stroke-width=".26458">
  <path d="m22.849 147.77a0.51329 0.51329 0 0 1 0.11377-0.0714 0.37306 0.37306 0 0 0-0.11377 0.0714z"/>
  <path d="m127.98 122.54c-0.0847-0.55298-0.58738-0.69057-1.0874-0.86784-5.6647-1.9976-11.396-3.7915-17.169-5.4398-10.493-2.9977-21.029-5.8526-31.176-9.9298-8.6969-3.4952-17.224-7.3819-25.905-10.919-3.257-1.3229-5.9452-1.3229-9.1996 0.12435-9.0699 4.0296-17.928 8.509-27.035 12.454-10.409 4.5111-21.275 7.7206-32.015 11.29-5.3737 1.7833-10.771 3.601-16.005 5.8288v1.2303c5.1964 2.749 10.409 5.4716 15.475 8.4667 9.7896 5.7679 19.621 11.425 30.051 15.973 11.594 5.0562 23.4 9.6308 34.732 15.277 0.59796 0.29898 1.016 0.15611 1.5161-0.11906 5.2599-2.9104 10.62-5.625 16.036-8.2312 10.223-4.9186 20.59-9.5541 30.369-15.346 10.366-6.1463 20.174-13.192 30.771-18.963 0.32279-0.19314 0.70379-0.44714 0.64029-0.82814zm-34.017-9.3636c4.4979 1.3652 9.0408 2.6458 13.719 4.019-3.4396 2.3627-6.7998 4.6805-9.7684 7.448-1.6192 1.5134-3.2332 1.9923-5.3896 1.7568-3.8232-0.4154-7.6729-0.5715-11.515-0.83873-0.20902-0.0132-0.41804-0.0503-0.87312-0.10848 0.63235-0.79375 1.1351-1.4155 1.6484-2.0346a70.432 70.432 0 0 1 9.9483-9.8213c0.72231-0.57944 1.3414-0.69056 2.2304-0.42069zm-22.889 11.546a31.604 31.604 0 0 0 6.522 1.7277l-5.043 7.9216a25.929 25.929 0 0 0-1.479-9.6494zm1.0425 13.703c1.6642-4.0508 4.2519-7.6491 6.7469-11.258a0.83608 0.83608 0 0 1 0.91546-0.40481c4.6276 0.65087 9.3107 0.58737 13.957 1.0583 0.127 0.37306-0.20373 0.47625-0.38365 0.63765q-5.6541 5.1118-11.322 10.213a6.0854 6.0854 0 0 1-2.0955 1.2568c-3.6751 1.2991-6.8368 3.4581-9.7737 5.969-0.58473 0.50007-1.143 1.0319-2.1167 1.0319 1.9129-2.6432 2.884-5.6065 4.0719-8.5037zm5.6436-30.885c4.2862 1.7621 8.6678 3.2676 13.314 4.7969-1.3573 1.1774-2.5797 2.1934-3.7518 3.265a65.323 65.323 0 0 0-7.9772 8.6942c-0.55298 0.72496-1.0742 0.91546-1.9526 0.75406a32.7 32.7 0 0 1-6.4426-1.8521 1.8098 1.8098 0 0 1-1.0186-0.84402 24.172 24.172 0 0 0-3.175-4.6249c-0.43127-0.49212-0.38629-0.78052 0.03175-1.2488a68.374 68.374 0 0 1 9.4827-8.7313 1.3229 1.3229 0 0 1 1.4896-0.20902zm-15.081-6.4214c4.0905 1.778 8.2021 3.5242 12.293 5.2917a2.63 2.63 0 0 1 0.39688 0.28575c-3.5057 2.7464-6.7628 5.6171-9.6044 8.9244-0.43656 0.51065-0.71702 0.33338-1.1086 0-4.0428-3.5639-8.7736-5.5166-14.139-5.969-0.37042-0.0318-0.79375-0.11641-0.86519-0.51329-0.07144-0.39687 0.36777-0.46831 0.60854-0.64558a113.3 113.3 0 0 1 11.046-7.202c0.44185-0.254 0.82815-0.4154 1.3679-0.18256zm-11.404 49.213c-0.66146 0.33073-1.1298 0.56356-1.6986 0.48948h-1.6034c-0.62177 0.16139-1.1324-0.13229-1.9606-0.49477h5.2626zm-3.728-54.859c0.57679-0.25136 0.99219 0.02646 1.4261 0.19315 3.7782 1.4446 7.5433 2.9104 11.377 4.4106-0.58208 0.66411-1.3229 0.9234-1.9844 1.3229-3.1618 1.9368-6.2627 3.9688-9.226 6.186-0.62442 0.46831-1.0451 0.59796-1.7595 0.0979a110.7 110.7 0 0 0-11.766-7.1146c4.1778-1.7754 8.0671-3.4105 11.933-5.0959zm-14.25 6.2468a1.6245 1.6245 0 0 1 1.6404 0.0397 121.71 121.71 0 0 1 11.269 6.7707c0.24871 0.16933 0.68792 0.26458 0.63765 0.63235-0.05027 0.36777-0.48948 0.47625-0.84138 0.52917-1.7462 0.31485-3.4925 0.57679-5.1885 1.1827a24.111 24.111 0 0 0-8.6969 5.2917c-0.37571 0.35984-0.62177 0.71967-1.1721 0.127-2.9924-3.2279-6.3765-6.0166-10.086-8.6704 4.236-2.0002 8.345-3.9396 12.438-5.9029zm-14.576 6.7998c0.50006-0.2249 0.82021-0.11377 1.225 0.16933a68.276 68.276 0 0 1 9.9245 8.4296c0.54769 0.56092 0.49742 0.91017 0.02117 1.4579a15.184 15.184 0 0 0-2.4395 3.7809 3.7042 3.7042 0 0 1-2.2093 2.0452 38.418 38.418 0 0 1-6.1463 1.8812c-0.49477 0.10583-0.84402 0.0794-1.1959-0.3466a71.342 71.342 0 0 0-12.422-11.782c-0.060854-0.045-0.066146-0.16139-0.11906-0.29104 4.5085-1.6484 8.9905-3.3655 13.361-5.3472zm6.0854 26.988-5.4372-7.8819a32.329 32.329 0 0 0 6.5908-2.0373 24.36 24.36 0 0 0-1.1668 9.9086zm-0.85725 1.3626a20.328 20.328 0 0 1 2.0902 4.2836 21.87 21.87 0 0 0 3.5163 6.4717c-1.0583-0.0159-1.0583-0.0159-1.905-0.68791-3.175-2.5136-6.5696-4.6355-10.509-5.7653a4.6567 4.6567 0 0 1-1.6484-0.94985l-12.832-10.583c3.6512-0.37042 6.9744-0.70379 10.295-1.0451 1.0001-0.10318 2.0505-0.0794 2.9924-0.37835 1.4473-0.45773 2.2357 0.0847 3.0268 1.2356 1.6801 2.4606 3.3946 4.8895 4.9689 7.4083zm-31.123-18.817c3.2782-1.0742 6.5564-2.1378 9.824-3.2438 0.55827-0.1905 0.97896-0.27781 1.5108 0.10584a71.014 71.014 0 0 1 12.663 11.867c-3.0136 0.33866-5.7309 0.62971-8.4349 0.92075-2.0929 0.22225-4.1884 0.42069-6.2812 0.65087-0.51329 0.0556-0.96573 0.0688-1.4155-0.28575a123.78 123.78 0 0 0-12.25-8.599c1.6166-0.52387 3.0136-0.96308 4.3841-1.4155zm-14.695 11.859c-2.2992-1.5875-4.9212-2.712-7.6094-4.1566 5.1012-1.987 10.091-3.6751 15.081-5.4028a2.1167 2.1167 0 0 1 2.0267 0.21167 120.89 120.89 0 0 1 11.613 8.1439c-3.9317 0.62707-7.6068 1.4102-11.25 2.331a1.434 1.434 0 0 0-0.26458 0.0529c-3.4687 1.7304-6.5193 0.94456-9.5964-1.18zm19.28 10.967-12.933-7.4083a94.737 94.737 0 0 1 9.5832-2.3945c1.7013-0.35455 3.4396-0.52917 5.1276-0.93134 1.1404-0.26458 1.9632-0.0291 2.8549 0.72761 3.5904 3.0506 7.2496 6.0219 10.882 9.0223 0.20108 0.0741 0.52917 0.26458 0.37042 0.39423-0.36512 0.32279-0.79375 0.11377-1.1589-0.127-4.4159-0.47625-8.7762-0.0344-13.123 0.73554-0.52652 0.0873-1.0716 0.28575-1.6034-0.0185zm15.933 8.0036c-4.4979-2.0558-8.9641-4.2333-13.56-6.7204 5.2917-0.89165 10.292-1.2462 15.322-0.11642a4.99 4.99 0 0 1 1.7013 0.84931c2.3812 1.6166 4.7387 3.2808 7.4083 4.408a0.59267 0.59267 0 0 1 0.6059 0.46831h-1.9764c-2.667 0.0662-5.2917 0.52917-7.8872 1.0583-0.53181 0.10318-1.0769 0.29898-1.614 0.0529zm17.198 7.321c-4.7625-2.0108-9.525-4.0031-14.629-6.1489a42.762 42.762 0 0 1 9.6441-0.97367c4.5508 0.0926 8.9112 1.5346 13.425 1.9209 1.9129 0.16404 3.8179 0.45508 5.7256 0.68791-4.4741 1.3547-8.9085 2.7622-13.256 4.4318-0.29633 0.10319-0.54504 0.23548-0.90223 0.082zm29.66 2.7781q-5.0271 2.6008-10.054 5.244c-0.55033 0.29104-1.0054 0.42069-1.6484 0.10583q-7.4692-3.6592-15.129-6.9215a3.0004 3.0004 0 0 1-0.49742-0.3757c5.0562-1.8759 10.086-3.4872 15.28-4.5191 2.0743-0.4101 4.0799 0.37571 6.0854 0.79375a106.19 106.19 0 0 1 11.229 3.0401c-1.9103 0.95515-3.5957 1.7727-5.2573 2.6326zm30.922-15.269c-7.5142 4.2334-15.367 7.7576-23.138 11.462-0.34925 0.16669-0.66675 0.36513-1.1483 0.1958a120.14 120.14 0 0 0-13.07-3.6433 3.5295 3.5295 0 0 1-0.52917-0.24077c4.7149-0.82021 9.308-1.3944 13.758-2.6458a34.634 34.634 0 0 0 12.359-6.35 11.88 11.88 0 0 1 5.9452-2.5268c3.9344-0.56092 7.8396-0.43656 12.171 0.13229-2.3416 1.3362-4.3392 2.4871-6.3474 3.6168zm8.5249-4.9848a1.2382 1.2383 0 0 1-0.90488 0.18786c-4.8551-0.79375-9.7234-1.0107-14.729-0.11906l11.176-10.089c0.4445-0.39952 0.8599-0.7276 1.5558-0.65087a116.01 116.01 0 0 1 14.708 2.6247 3.6777 3.6777 0 0 1 0.52917 0.26458zm20.45-12.88c-1.8759 1.1324-3.7359 2.2886-5.5986 3.4396-0.47625 0.29369-0.93134 0.52917-1.5346 0.36248a105.37 105.37 0 0 0-14.967-2.8205c-0.07408 0-0.13758-0.10054-0.33867-0.26458 1.1748-0.96838 2.3151-1.9235 3.4713-2.8548 2.4236-1.9579 4.9689-3.7518 7.5248-5.5324a1.7965 1.7965 0 0 1 1.6616-0.29634c4.9742 1.5372 9.9695 3.011 15.081 4.8207-1.8706 1.1086-3.593 2.114-5.2996 3.1459z"/>
  <path d="m195.49 88.894q0 20.944 0 41.889c0 0.45773 0 0.91546 0.0212 1.3732 0.037 0.60325 0.3519 0.92339 0.95779 0.93662 2.0188 0.0476 4.0349 0.037 6.0537 0 1.016-0.0159 0.9869-0.75671 0.98954-1.4605v-9.2022-1.3732c0.0688-1.3388 0.31486-1.6404 1.6351-1.6589 3.302-0.0503 6.6146-0.0159 9.9086-0.0185 1.1509 0 1.8362 0.62177 2.4448 1.5002 2.5003 3.6169 5.0615 7.194 7.5512 10.816 0.70115 1.0213 1.4949 1.4896 2.7332 1.434 1.6484-0.0741 3.302 0 4.953-0.0265 0.43127 0 1.0134 0.20902 1.2435-0.28839 0.18521-0.39952-0.24077-0.75406-0.4736-1.0795-2.7305-3.8497-5.4107-7.7311-8.1386-11.581-0.0794-0.11113-0.16404-0.22225-0.24077-0.33603-1.0081-1.4843-0.94721-2.0161 0.68263-2.7464 9.734-4.3736 10.993-18.688 3.0427-25.511-2.9104-2.5056-6.4717-3.5137-10.192-4.1196-1.1906-0.19315-2.4897 0.08731-3.556-0.7276" fill="#fdfdfd"/>
  <path d="m159.71 87.446a23.318 23.318 0 0 0-6.7654 2.9898c-6.7098 4.4741-10.343 10.652-10.62 18.785-0.16669 4.9662 0.90223 9.5594 3.6142 13.708 3.3787 5.1673 8.1015 8.6175 14.139 9.9616 8.3026 1.8521 16.214 0.79375 23.521-3.7994 1.0954-0.69056 1.5293-1.5293 1.5161-2.8205-0.0556-4.8498-0.0185-9.7023-0.0238-14.552 0-1.6589-0.0741-1.7304-1.6748-1.741-1.4684 0-2.9369 0.0344-4.4027-0.0132-1.0795-0.037-1.4526 0.41011-1.442 1.4658 0.0344 3.6142-0.0556 7.2337 0.0423 10.848 0.045 1.6351-0.58473 2.5638-2.0717 3.1115-6.1357 2.2622-12.171 2.3336-17.809-1.2726-4.6514-2.9739-7.1438-7.3422-7.3342-12.943-0.10848-3.1591 0.26458-6.1648 1.7542-9.0461 2.5797-4.9689 6.7601-7.5988 12.118-8.4905 5.5562-0.92604 10.676 0.22754 15.081 3.8682 0.90223 0.74612 1.569 0.71173 2.323-0.1614 0.84138-0.96838 1.9712-1.6404 2.8496-2.5797 0.94192-1.0107 0.92604-1.2859-0.10848-2.2199a22.91 22.91 0 0 0-9.2022-5.043c-0.52917-0.15081-1.3547-0.08996-1.2436-1.0583" fill="#fdfdfd"/>
  <path d="m173.92 86.777c4.1698 1.0001 7.9005 2.8072 11.062 5.7679 1.0001 0.93398 1.016 1.4711-0.12171 2.3627a23.889 23.889 0 0 0-3.1565 3.0506c-0.79375 0.89958-1.2065 1.0425-2.1405 0.2196-5.879-5.1832-15.081-5.9293-21.609-1.8521-5.4398 3.3999-8.3132 10.208-7.0961 16.804 1.2171 6.5961 6.0563 11.668 12.435 12.965 4.4291 0.89694 8.7312 0.51065 12.896-1.3467 0.76993-0.34396 1.0583-0.78052 1.0583-1.651-0.0503-4.1169 0-8.2391-0.0397-12.356 0-0.97367 0.18521-1.2885 1.6034-1.1112a19.923 19.923 0 0 0 4.8286 0.0556c1.4526-0.17198 1.8521-0.17462 1.8521 0.75407q-0.0344 8.5143 0 17.026c0 0.72496-0.36248 1.0583-0.8599 1.4076-4.1645 2.966-8.845 4.5588-13.888 5.08-6.6146 0.68527-12.901-0.26459-18.508-4.0905-6.4955-4.4238-9.8584-10.642-10.292-18.441-0.58209-10.433 5.1329-19.158 14.065-23.066a25.532 25.532 0 0 1 4.9556-1.5875 2.7861 2.7861 0 0 1 1.1139-0.28046" fill="#010101"/>
  <path d="m215.2 86.764c3.7333 0.16933 7.3792 0.70644 10.755 2.45 6.1463 3.175 8.7498 8.4032 8.4508 15.081-0.26458 6.1595-3.175 10.761-8.9112 13.401-0.28839 0.13229-0.57414 0.26458-1.016 0.48154l10.734 15.325h-8.9614c-0.59796 0-0.72496-0.49477-0.97102-0.84666-2.7887-3.9688-5.5827-7.9375-8.3291-11.925-0.46567-0.67734-0.92605-0.94192-1.7727-0.92075-3.257 0.0741-6.514 0.0953-9.7711 0.0291-1.1456-0.0238-1.5716 0.17198-1.5319 1.4579 0.10583 3.6592 0 7.3263 0.0688 10.986 0.0238 1.0795-0.31221 1.2779-1.2965 1.2409-2.0611-0.0794-4.1328-0.0926-6.1912 0-1.0583 0.0503-1.2726-0.2831-1.2726-1.2912q0.0503-21.908 0.0212-43.815c0-0.50271-0.0318-1.0054-0.0476-1.5055"/>
  <path d="m268.3 86.854q8.4667 18.785 16.954 37.571c1.3467 2.9818 2.6908 5.9664 4.101 9.0964-2.966 0-5.752-0.0238-8.5354 0.0132-0.7329 0-0.762-0.52916-0.94721-0.94985-1.2965-2.9713-2.6009-5.9372-3.8497-8.927-0.2884-0.68527-0.62971-0.9525-1.4049-0.94986q-10.732 0.0529-21.468 0c-0.77787 0-1.1086 0.26459-1.3917 0.95515-1.2356 2.9951-2.5585 5.9531-3.7888 8.9508-0.2884 0.70115-0.63235 0.94457-1.397 0.92869-2.6008-0.0556-5.2017-0.0212-7.9666-0.0212 1.7806-3.9687 3.4978-7.7814 5.2202-11.599q7.6729-17.039 15.38-34.073c0.16405-0.36777 0.38365-0.70908 0.57944-1.0583 1.8732-0.28575 3.6274-0.17727 5.4425-0.21431 1.0186-0.0344 2.0638-0.07673 3.0718 0.27781z"/>
  <path d="m329.78 87.078q-8.0089 18.296-16.015 36.595c-1.2991 2.966-2.6088 5.9267-3.8656 8.9085-0.28575 0.67734-0.59795 0.97632-1.3864 0.94986-2.1537-0.0661-4.3127-0.10054-6.4611 0-1.0028 0.0529-1.3229-0.40746-1.6484-1.1774q-9.8266-22.503-19.696-44.979c-0.0741-0.16669-0.15611-0.32808-0.23548-0.49477 0.37306-0.4789 0.91016-0.34396 1.3917-0.34396 2.503 0 5.0033-0.01588 7.5036 0 0.97896 0 1.1324 0.82285 1.4049 1.4631 2.1378 5.0112 4.3498 9.9907 6.5008 14.997 2.6458 6.1807 5.3525 12.343 8.046 18.643 0.57943-0.43656 0.7276-1.0213 0.94985-1.5346q6.9347-16.005 13.941-31.98c0.28575-0.65881 0.46037-1.4288 1.3573-1.5875 2.2834-0.03969 4.5641-0.02381 6.8448 0 0.49212 0.01587 1.1456-0.2249 1.3679 0.5424z"/>
  <path d="m442.57 86.774c0.17727 0.52917-0.26459 0.82285-0.48948 1.1827q-8.4667 14.023-16.968 28.017a4.1778 4.1778 0 0 0-0.66146 2.3098c0.0317 4.6672-0.0238 9.3345 0.045 14.002 0.0159 1.0583-0.29369 1.2885-1.2912 1.2488-2.0135-0.082-4.0349-0.0767-6.051 0-1.0213 0.0397-1.3864-0.17198-1.3679-1.3044 0.0741-4.6646 0.0185-9.3345 0.0423-14.002a3.4846 3.4846 0 0 0-0.52917-1.9262q-8.9297-14.698-17.833-29.414c0.37571-0.48154 0.91546-0.34131 1.4023-0.34396q3.5772-0.02117 7.1438 0c0.97367-0.07144 1.3229 0.67204 1.7171 1.3361 3.9291 6.4955 7.8899 12.965 11.779 19.487 0.0476 0.0794 0.09 0.15875 0.13759 0.23548 0.76729 1.2541 0.80698 1.2647 1.5478 0.0291 2.8231-4.7043 5.7097-9.3689 8.5408-14.071 1.2012-1.995 2.4236-3.982 3.6407-5.9716 0.30956-0.50535 0.59531-1.0583 1.3229-1.0398 2.4765 0 4.9477-0.04498 7.4083 0.02646a1.1033 1.1033 0 0 1 0.46302 0.19844z"/>
  <path d="m391.65 86.79c0.38365 2.2595 0.10054 4.535 0.15081 6.8051 0.0159 0.82815-0.71702 0.52917-1.1483 0.52917-4.3101 0.01852-8.6201 0.0635-12.928-0.02117-1.2303-0.02381-1.4922 0.30956-1.487 1.5028 0.0476 12.171 0 24.342 0.0556 36.513 0 1.1192-0.22225 1.4843-1.3944 1.4182-2.0108-0.10848-4.0349-0.0952-6.0484 0-1.0583 0.0503-1.2674-0.26458-1.2647-1.2726 0.0397-12.216 0-24.429 0.0556-36.645 0-1.2039-0.26458-1.5319-1.5002-1.5081-4.1248 0.08731-8.2524-0.04498-12.375 0.07408-1.5108 0.04498-1.8283-0.45508-1.7436-1.823 0.11113-1.823 0.0212-3.6565 0.0185-5.4875"/>
  <path d="m345.67 86.824q0.0212 17.232 0.037 34.465c0 3.7042-0.0317 7.4083 0.0238 11.126 0 0.91016-0.24871 1.143-1.1351 1.1165-2.2013-0.0635-4.4027-0.0397-6.6146 0-0.65088 0-0.96309-0.0767-0.96309-0.86783q0.0397-22.725 0.0291-45.455a1.9262 1.9262 0 0 1 0.082-0.39688"/>
  <path d="m162.67 161.48c2.7834 0.635 4.5508 2.0108 5.1752 4.5376 0.97102 3.9158-1.3229 7.1438-5.5854 7.8555a17.992 17.992 0 0 1-2.8681 0.26458c-3.4819 0.037-6.9665 0-10.451 0.0423-0.73289 0-1.0186-0.13759-1.0134-0.95515q0.0476-11.322 0-22.646c0-0.70379 0.0873-1.0874 0.94985-1.0583 3.7544 0.10319 7.5168-0.14023 11.269 0.17198 4.1698 0.3466 6.7098 2.8152 6.559 6.4426-0.10055 2.5321-1.4526 4.2492-4.0349 5.3446z"/>
  <path d="m301.05 161.86v-11.25c0-0.43921-0.24871-1.0874 0.61648-1.0583 4.027 0.09 8.0936-0.39423 12.076 0.31485 6.5696 1.1721 10.501 6.3103 10.152 12.92-0.32279 6.1383-5.1488 10.914-11.679 11.311-3.4687 0.20902-6.9612 0.0476-10.443 0.10319-0.79375 0-0.73554-0.41804-0.73289-0.94192q0.0159-5.7044 0.0106-11.398z"/>
  <path d="m223.76 174.02c-1.4473 0.50536-2.2066-0.11112-2.9104-1.1827-1.3864-2.0928-2.9104-4.0984-4.3603-6.1516-0.33073-0.4736-0.63235-0.82021-1.3097-0.7276-2.5082 0.33866-5.0271 0.16139-7.5512 0.1561-0.87313 0-1.2065 0.18786-1.1695 1.1298 0.0741 1.9632 0 3.9317 0.037 5.8976 0 0.6985-0.0609 1.0583-0.92604 1.0583-0.79375 0-0.86254-0.34131-0.8599-0.97367 0-7.5486 0-15.081 0.0159-22.64 0-0.4445-0.23548-1.0822 0.62971-1.0583 3.8841 0.12171 7.7999-0.36248 11.642 0.43127 3.7042 0.76465 6.0696 3.3046 6.432 6.731 0.42863 4.0455-1.2038 6.9744-4.9027 8.5381-0.86255 0.36512-0.61913 0.635-0.26459 1.1404 1.8362 2.5188 3.646 5.043 5.498 7.6518z"/>
  <path d="m417.91 161.88c0-3.7492 0.0185-7.5009-0.0159-11.253 0-0.80962 0.17463-1.1165 1.0583-1.1086 4.8128 0.0423 9.6255 0.0265 14.438 0 0.635 0 1.0081 0.0582 1.0213 0.86254 0 0.91281-0.54504 0.75935-1.0768 0.75935-4.1698 0-8.3423 0.0291-12.515-0.0212-0.9181-0.0132-1.1483 0.26458-1.1271 1.1456 0.0609 2.4686 0.0873 4.9424 0 7.4083-0.0423 1.1086 0.36777 1.2515 1.3229 1.2382 3.5745-0.0556 7.1438-0.0238 10.726-0.0212 0.5768 0 1.2012-0.16933 1.1668 0.82814-0.0317 0.94986-0.65617 0.7038-1.1456 0.70644-3.6222 0-7.2416 0.0423-10.864-0.0159-0.97367-0.0159-1.225 0.26458-1.2012 1.2144q0.10054 3.9106 0 7.8237c-0.0238 0.93134 0.28046 1.1112 1.1456 1.1033 4.3074-0.0423 8.6175-0.0212 12.928-0.0159 0.55033 0 1.1668-0.2196 1.1827 0.79375 0.0159 1.0134-0.55034 0.83344-1.1298 0.83344-4.9504 0-9.9007-0.0185-14.851 0.0185-0.83608 0-1.0901-0.19579-1.0795-1.0583 0.0423-3.7386 0.0159-7.4904 0.0159-11.242z" fill="#010101"/>
  <path d="m379.77 166.75c0 0.96044-0.0979 1.9341 0.0212 2.8787 0.17198 1.3441-0.44186 2.0902-1.5293 2.7437-6.6596 3.9926-17.14 2.0214-19.743-6.9506a12.435 12.435 0 0 1 11.642-16.007c3.22-0.10319 6.186 0.54504 8.7815 2.5109 0.37836 0.28839 1.1906 0.4736 0.48948 1.3229-0.62706 0.76729-0.95514 0.38894-1.5081-0.0397-4.1936-3.2464-10.79-2.8231-14.925 0.92075-3.5851 3.2464-4.2942 9.3213-1.3811 13.719 2.3019 3.4713 5.752 4.9371 9.8981 4.8022a11.819 11.819 0 0 0 5.3843-1.4182c0.80963-0.44185 1.1933-0.95514 1.1536-1.9368-0.082-2.1008-0.0132-4.2069-0.0317-6.3103 0-0.6059 0-1.0213 0.83344-1.0345 0.88106 0 0.94456 0.40216 0.9234 1.0874-0.037 1.2409-0.0106 2.4791-8e-3 3.7121z"/>
  <g fill="#e4e4e4">
   <path d="m212.65 86.658q-8.0433 0.02381-16.089 0"/>
   <path d="m390.6 86.663q-18.785 0-37.571 0"/>
   <path d="m406.54 86.674c-3.0533-0.08202-6.1119 0.127-9.1652-0.10848"/>
   <path d="m442.57 86.774-0.29634-0.02646c-2.6829-0.17992-5.371-0.04763-8.0566-0.06879"/>
  </g>
  <path d="m260.34 161.96v-11.377c0-0.67204 0.0159-1.0954 0.91545-1.0822 0.89959 0.0132 0.92605 0.43127 0.92605 1.1086q-0.0238 11.308 0 22.617c0 0.82285-0.29898 0.93662-1.0239 0.97631-0.87842 0.0476-0.82021-0.42598-0.82021-1.0028 8e-3 -3.7438 3e-3 -7.493 3e-3 -11.24z" fill="#050505"/>
  <g fill="#e5e5e5">
   <path d="m391.65 86.79q-18.981 0-37.962 0.02117c-0.55033 0-1.098 0.04233-1.6457 0.0635"/>
   <path d="m215.2 86.764q-9.2022 0.02381-18.41 0.04762c-0.54505 0-1.0901 0.07408-1.6325 0.11377"/>
   <path d="m345.67 86.824-8.5302-0.02381"/>
  </g>
  <g fill="#fefefe">
   <path d="m203.91 103.43q0-4.1831 0-8.3635c0-0.41804-0.17991-0.94985 0.60061-0.9234 4.5694 0.15081 9.1758-0.42333 13.705 0.40481 3.4555 0.62971 6.178 2.4262 7.0644 6.0484 0.90223 3.6724 0.4445 7.1199-2.6458 9.7472-1.8045 1.5425-4.0402 2.1802-6.35 2.2675-3.8418 0.14552-7.6914 0.0714-11.536 0.14287-0.79375 0.0132-0.87841-0.30691-0.87048-0.96043 0.0503-2.7861 0.0318-5.5721 0.0318-8.3635z"/>
   <path d="m272.71 115.87h-17.568l8.7312-20.41z"/>
   <path d="m320.17 86.555c0.35454 0 0.74348-0.08202 1.0107 0.26458-5.1964 11.906-10.393 23.794-15.711 35.965-0.60854-1.3785-1.1165-2.5056-1.606-3.6407l-13.515-31.266c-0.1614-0.37306-0.36513-0.7276-0.55034-1.0901a0.70379 0.70379 0 0 1 0.0476-0.21167"/>
   <path d="m434.26 86.568c0.11113 0.02646 0.15611 0.06879 0.13229 0.127-0.0238 0.05821-0.0529 0.09525-0.0847 0.09525q-6.4611 10.567-12.917 21.14c-0.30163 0.49741-0.60854 0.98954-0.98425 1.5875-3.3285-5.5298-6.5511-10.935-9.8319-16.306-1.3229-2.1696-2.4659-4.4582-4.0614-6.4611a0.508 0.508 0 0 1 0.0397-0.19579"/>
  </g>
  <path d="m434.31 86.79a0.71173 0.71173 0 0 0-0.0476-0.22225c2.6723 0.05027 5.3552-0.26458 8.0195 0.17992z" fill="#e5e5e5"/>
  <g fill="#fefefe">
   <path d="m155.92 172.6c-2.0002 0-3.6512-0.0318-5.2917 0.0159-0.71967 0.0185-0.93927-0.20373-0.92869-0.92604q0.0609-4.1831 0-8.3661c-0.0132-0.76729 0.29105-0.91017 0.96838-0.89429 3.4766 0.0741 6.9585-0.10054 10.435 0.17727 3.892 0.30956 6.0113 3.2173 4.8392 6.6913-0.59531 1.7648-1.9976 2.5347-3.6645 2.9448-2.2119 0.54239-4.4715 0.29368-6.3579 0.35718z"/>
   <path d="m154.62 151.1c1.9182 0 3.8364-0.0371 5.7547 0.2196 2.7596 0.36777 4.4582 2.069 4.4768 4.6143 0.0185 2.6458-1.688 4.4715-4.4609 4.7916-3.2861 0.37835-6.5828 0.13758-9.8742 0.22489-0.70644 0.0185-0.82815-0.28046-0.82286-0.89429 0.0265-2.6935 0.0397-5.3896 0-8.083 0-0.76465 0.26459-0.91017 0.9525-0.88635 1.3176 0.045 2.6458 0.0132 3.974 0.0132z"/>
   <path d="m302.8 161.84v-9.6097c0-0.4498-0.23284-1.1007 0.62441-1.0769 3.6539 0.10584 7.3581-0.42598 10.948 0.52917 5.2917 1.4023 8.0672 5.633 7.6518 11.435-0.34925 4.8763-3.9926 8.5381-9.1599 9.2207-3.1062 0.41275-6.2283 0.0979-9.3398 0.2196-0.79375 0.0291-0.73819-0.4392-0.73819-0.96573q0.0212-4.8789 0.0132-9.7525z"/>
   <path d="m206.48 157.81v-5.7573c0-0.59796 0.10583-0.93134 0.82021-0.91017 2.8337 0.082 5.6859-0.19315 8.5037 0.23019 2.5929 0.38894 4.7625 1.5002 5.5007 4.2466 0.71173 2.6114 0.51065 5.0985-1.6245 7.0697-1.4155 1.307-3.2147 1.7224-5.0641 1.7939-2.4262 0.09-4.8551 0.0291-7.2787 0.0794-0.66146 0-0.87577-0.19844-0.86254-0.85461 0.0264-1.9738 5e-3 -3.9396 5e-3 -5.8976z"/>
  </g>
 </g>
</svg>
