<?xml version="1.0" encoding="UTF-8" standalone="yes"?>
<!-- Created with sK1/UniConvertor (http://sk1project.org/) -->
<svg xmlns="http://www.w3.org/2000/svg" xmlns:xlink="http://www.w3.org/1999/xlink"
  width="655.2pt" height="136.8pt" viewBox="0 0 655.2 136.8"
  fill-rule="evenodd">
<g>
<path style="stroke:none; fill:#7601b0" d="M 0 0L 0 136.8L 655.2 136.8L 655.2 0L 0 0z"/>
<path style="stroke:none; fill:#8135e3" d="M 140.8 2.40001L 140.8 3.2L 144.8 3.2C 143.385 2.57684 142.371 2.47008 140.8 2.40001z"/>
<path style="stroke:none; fill:#8a759b" d="M 137.6 16C 137.17 10.8856 142.578 5.60558 147.2 4C 139.457 0.750748 129.555 10.7846 137.6 16z"/>
<path style="stroke:none; fill:#ae92cc" d="M 141.6 8.8C 149.784 10.744 157.295 15.7089 163.188 21.6118C 167.274 25.7038 170.22 29.4556 164.8 33.6L 164.8 34.4C 171.248 33.9136 173.774 28.7812 170.396 23.2C 166.619 16.9628 159.226 11.4872 152 10.4C 152.716 8.76665 153.229 7.33778 153.6 5.60001C 148.621 4.0217 143.714 2.92085 141.6 8.8z"/>
<path style="stroke:none; fill:#c899df" d="M 153.6 6.40001L 152 10.4C 160.383 12.4098 170.4 19.9658 172 28.8C 175.705 19.6966 160.702 9.09288 153.6 6.40001z"/>
<path style="stroke:none; fill:#785b9f" d="M 156 7.2L 156.8 8L 156 7.2M 140 8.8L 140 9.60001L 144 9.60001C 142.585 8.97688 141.571 8.87009 140 8.8M 158.4 8.8L 159.2 9.60001L 158.4 8.8M 134.4 9.60001L 134.4 13.6L 135.2 13.6C 135.13 12.0287 135.023 11.0153 134.4 9.60001z"/>
<path style="stroke:none; fill:#a24dc9" d="M 161.6 11.2L 162.4 12L 161.6 11.2z"/>
<path style="stroke:none; fill:#8135e3" d="M 136.8 12L 136.8 15.2L 137.6 15.2C 137.461 13.8518 137.346 13.2048 136.8 12z"/>
<path style="stroke:none; fill:#8a759b" d="M 140 14.4C 141.539 13.599 141.678 13.538 142.4 12C 140.701 12.7194 140.719 12.7011 140 14.4z"/>
<path style="stroke:none; fill:#ae92cc" d="M 156 40C 157.606 36.5681 162.996 28.4373 162.043 24.8118C 160.947 20.6394 150.725 13.6554 146.401 14.1148C 141.006 14.6879 139.174 21.9617 141.622 26.1598C 144.496 31.088 151.745 36.0663 156 40z"/>
<path style="stroke:none; fill:#8a759b" d="M 140 17.6L 133.6 22.4C 135.946 23.7634 138.192 24.8488 140.8 25.6C 140.8 22.8685 141.062 20.1306 140 17.6z"/>
<path style="stroke:none; fill:#a24dc9" d="M 169.6 19.2L 170.4 20L 169.6 19.2z"/>
<path style="stroke:none; fill:#8135e3" d="M 103.734 20.2666C 103.378 20.6222 104.222 20.5778 104.266 20.5334C 104.622 20.1778 103.778 20.2222 103.734 20.2666z"/>
<path style="stroke:none; fill:#af6fd1" d="M 104.8 20L 104.8 20.8L 112 20.8C 109.688 19.8297 107.301 20.0014 104.8 20z"/>
<path style="stroke:none; fill:#a24dc9" d="M 112 20L 112 20.8L 114.4 20.8C 113.402 20.2522 113.162 20.201 112 20M 98.9336 21.0666C 98.5776 21.4222 99.4224 21.3778 99.4664 21.3334C 99.8224 20.9778 98.9776 21.0222 98.9336 21.0666z"/>
<path style="stroke:none; fill:#fcfbff" d="M 96 22.4C 98.792 26.2568 103.17 23.4278 107.2 23.2321C 114.206 22.892 121.568 24.4334 128 27.2339C 147.09 35.5463 162.692 58.771 162.296 80C 162.146 88.0224 158.142 94.9048 156 102.4C 164.425 94.6296 165.203 81.8832 164.135 71.2C 161.073 40.5746 128.311 10.2994 96 22.4z"/>
<path style="stroke:none; fill:#c899df" d="M 116.8 20.8L 116.8 21.6L 119.2 21.6C 118.202 21.0522 117.962 21.001 116.8 20.8z"/>
<path style="stroke:none; fill:#af6fd1" d="M 95.7336 21.8666C 95.3776 22.2222 96.2224 22.1778 96.2664 22.1334C 96.6224 21.7778 95.7776 21.8222 95.7336 21.8666z"/>
<path style="stroke:none; fill:#a24dc9" d="M 122.134 21.8666C 121.778 22.2222 122.622 22.1778 122.666 22.1334C 123.022 21.7778 122.178 21.8222 122.134 21.8666z"/>
<path style="stroke:none; fill:#c899df" d="M 85.6 28C 89.552 28.4877 93.248 26.4616 96.8 24.8L 96.8 23.2C 92.2016 22.0768 88.1304 24.097 85.6 28z"/>
<path style="stroke:none; fill:#ae92cc" d="M 124.8 22.4L 125.6 23.2L 124.8 22.4z"/>
<path style="stroke:none; fill:#a24dc9" d="M 90.4 23.2L 91.2 24L 90.4 23.2z"/>
<path style="stroke:none; fill:#c899df" d="M 102.4 32.8C 97.4632 34.4386 99.4312 42.0694 98.4 46.4C 100.562 49.5951 99.5088 54.5415 104.8 53.6C 104.054 55.9636 102.464 58.0199 105.6 58.4L 105.6 59.2L 104 59.2L 104 60C 105.854 61.1061 106.37 61.9893 107.2 64L 103.2 64C 102.653 65.264 102.556 65.4218 101.6 66.4L 102.4 68C 101.349 68.6143 101.414 68.5486 100.8 69.6C 107.803 71.0594 116.77 66.4354 124 65.7358C 137.083 64.4697 147.935 67.684 160 72C 159.841 52.7478 145.507 34.0294 128 26.9012C 119.556 23.4633 95.8128 17.5763 102.4 32.8z"/>
<path style="stroke:none; fill:#ae92cc" d="M 127.2 23.2L 128 24L 127.2 23.2z"/>
<path style="stroke:none; fill:#af6fd1" d="M 129.6 24L 130.4 24.8L 129.6 24z"/>
<path style="stroke:none; fill:#c899df" d="M 155.2 31.2C 158.171 29.5743 159.612 27.1306 160.8 24C 157.093 25.0914 155.701 27.4562 155.2 31.2z"/>
<path style="stroke:none; fill:#a24dc9" d="M 86.4 24.8L 87.2 25.6L 86.4 24.8z"/>
<path style="stroke:none; fill:#ae92cc" d="M 85.6 28C 86.5488 27.051 86.8224 26.733 87.2 25.6C 65.6677 30.5268 72.0022 55.6987 75.2 71.2C 84.2928 71.201 92.6096 72.7259 101.6 70.4L 100.8 68C 102.03 67.4482 101.87 67.7377 101.6 66.4C 103.026 65.6158 102.875 65.6739 103.2 64L 107.2 64C 106.631 61.6922 106.308 60.6712 104 60L 104 59.2L 105.6 59.2L 105.6 58.4C 104.162 58.4 104.383 58.3886 103.2 57.6C 104.05 56.2454 104.416 55.1677 104.8 53.6C 99.2432 53.6027 101.424 48.9846 98.4 46.4C 99.7776 41.7394 97.556 35.4711 102.4 32.8C 101.622 29.9385 99.8952 27.8656 100 24.8C 94.924 25.0325 90.6144 27.8223 85.6 28M 131.2 24.8L 132 25.6L 131.2 24.8z"/>
<path style="stroke:none; fill:#c899df" d="M 132.8 25.6L 133.6 26.4L 132.8 25.6z"/>
<path style="stroke:none; fill:#a24dc9" d="M 83.2 26.4L 84 27.2L 83.2 26.4z"/>
<path style="stroke:none; fill:#c899df" d="M 134.4 26.4L 135.2 27.2L 134.4 26.4z"/>
<path style="stroke:none; fill:#ae92cc" d="M 136 27.2L 136.8 28L 136 27.2z"/>
<path style="stroke:none; fill:#785b9f" d="M 168 27.2L 168 31.2L 168.8 31.2C 168.73 29.6287 168.623 28.6153 168 27.2z"/>
<path style="stroke:none; fill:#a24dc9" d="M 137.6 28L 138.4 28.8L 137.6 28M 160.8 28L 161.6 28.8L 160.8 28z"/>
<path style="stroke:none; fill:#ae92cc" d="M 164.8 28C 164.011 29.1828 164 28.9626 164 30.4C 165.413 29.6171 165.564 29.4226 164.8 28z"/>
<path style="stroke:none; fill:#af6fd1" d="M 140 29.6L 140.8 30.4L 140 29.6z"/>
<path style="stroke:none; fill:#785b9f" d="M 145.6 29.6L 146.4 30.4L 145.6 29.6M 163.2 29.6L 163.2 31.2L 164.8 31.2C 164.364 29.8918 164.508 30.036 163.2 29.6z"/>
<path style="stroke:none; fill:#8a759b" d="M 115.2 133.6L 115.2 132.8C 107.421 130.038 98.932 129.961 91.2 126.838C 73.6782 119.761 53.3124 98.5192 56.2142 77.6C 56.7627 73.6454 60.4894 72.643 61.9173 69.3926C 64.1264 64.3638 64.0311 56.7285 65.6 51.2C 68.345 56.9041 67.2 64.1859 67.2 70.4C 69.9374 70.4226 72.5094 70.7004 75.2 71.2C 74.0457 62.6275 69.3154 49.2178 71.6228 40.8C 72.6826 36.9338 76.3038 33.7549 78.4 30.4C 50.2487 42.3193 48.0863 86.6208 62.9994 108.8C 75.3905 127.229 93.992 133.6 115.2 133.6z"/>
<path style="stroke:none; fill:#af6fd1" d="M 143.2 32L 144 32.8L 143.2 32z"/>
<path style="stroke:none; fill:#785b9f" d="M 170.4 32L 171.2 32.8L 170.4 32z"/>
<path style="stroke:none; fill:#fcfbff" d="M 124.001 33.3969C 112.542 37.6411 118.966 55.2857 130.366 50.3926C 139.82 46.3345 134.109 29.653 124.001 33.3969z"/>
<path style="stroke:none; fill:#ae92cc" d="M 144 32.8L 144.8 33.6L 144 32.8z"/>
<path style="stroke:none; fill:#785b9f" d="M 158.4 32.8L 159.2 33.6L 158.4 32.8z"/>
<path style="stroke:none; fill:#8a759b" d="M 161.6 33.6L 161.6 35.2L 167.2 35.2C 165.351 34.0855 163.753 33.7878 161.6 33.6z"/>
<path style="stroke:none; fill:#785b9f" d="M 154.4 38.4L 155.2 39.2L 154.4 38.4z"/>
<path style="stroke:none; fill:#ae92cc" d="M 151.2 40L 152 40.8L 151.2 40z"/>
<path style="stroke:none; fill:#af6fd1" d="M 152 40.8L 152.8 41.6L 152 40.8M 154.4 44L 155.2 44.8L 154.4 44M 224.534 45.8666C 224.178 46.2223 225.022 46.1778 225.066 46.1334C 225.422 45.7778 224.578 45.8222 224.534 45.8666z"/>
<path style="stroke:none; fill:#c899df" d="M 226.134 45.8666C 225.778 46.2223 226.622 46.1777 226.666 46.1334C 227.022 45.7778 226.178 45.8222 226.134 45.8666z"/>
<path style="stroke:none; fill:#fcfbff" d="M 227.2 45.9402C 197.37 49.991 186.191 93.652 216.8 106.326C 223.035 108.907 230.118 109.523 236.8 108.56C 276.217 102.878 266.81 40.561 227.2 45.9402z"/>
<path style="stroke:none; fill:#af6fd1" d="M 234.4 45.6L 234.4 46.4L 236.8 46.4C 235.802 45.8522 235.562 45.801 234.4 45.6z"/>
<path style="stroke:none; fill:#ae92cc" d="M 286.934 45.8666C 286.578 46.2222 287.422 46.1778 287.466 46.1334C 287.822 45.7778 286.978 45.8222 286.934 45.8666z"/>
<path style="stroke:none; fill:#c899df" d="M 288.534 45.8666C 288.178 46.2223 289.022 46.1778 289.066 46.1334C 289.422 45.7778 288.578 45.8222 288.534 45.8666z"/>
<path style="stroke:none; fill:#fcfbff" d="M 274.4 89.6C 272.838 92.132 268.769 96.0176 268.934 99.1256C 269.175 103.695 278.81 106.744 282.4 107.598C 294.606 110.501 312.903 109.357 317.246 95.2C 321.705 80.6608 309.861 73.5814 297.6 70.5012C 293.67 69.5141 282.034 67.9775 283.881 61.6315C 287.135 50.4477 304.782 61.0741 310.4 63.2C 312.536 59.9678 315.066 57.0807 316.8 53.6C 307.17 47.1096 296.338 44.0174 284.8 46.8031C 274.335 49.3298 266.763 59.7046 270.85 70.4C 276.55 85.312 295.341 78.208 303.618 88.272C 307.23 92.6632 300.652 96.916 296.8 97.4488C 287.799 98.6944 281.62 94.0552 274.4 89.6z"/>
<path style="stroke:none; fill:#c899df" d="M 296.8 45.6L 296.8 46.4L 299.2 46.4C 298.202 45.8522 297.962 45.801 296.8 45.6z"/>
<path style="stroke:none; fill:#a24dc9" d="M 299.734 45.8666C 299.378 46.2223 300.222 46.1777 300.266 46.1334C 300.622 45.7778 299.778 45.8222 299.734 45.8666z"/>
<path style="stroke:none; fill:#af6fd1" d="M 429.334 45.8666C 428.978 46.2222 429.822 46.1778 429.866 46.1334C 430.222 45.7778 429.378 45.8222 429.334 45.8666z"/>
<path style="stroke:none; fill:#fcfbff" d="M 430.4 45.971C 424.986 46.919 419.663 48.6722 415.201 51.942C 387.582 72.1799 409.749 114.161 441.6 108.428C 481.413 101.263 470.15 39.0111 430.4 45.971z"/>
<path style="stroke:none; fill:#c899df" d="M 436.8 45.6L 436.8 46.4L 439.2 46.4C 438.202 45.8522 437.961 45.801 436.8 45.6z"/>
<path style="stroke:none; fill:#af6fd1" d="M 439.2 45.6L 439.2 46.4L 441.6 46.4C 440.602 45.8522 440.362 45.801 439.2 45.6M 490.934 45.8666C 490.578 46.2222 491.422 46.1778 491.466 46.1334C 491.822 45.7778 490.978 45.8222 490.934 45.8666z"/>
<path style="stroke:none; fill:#c899df" d="M 492.534 45.8666C 492.178 46.2222 493.022 46.1778 493.066 46.1334C 493.422 45.7778 492.578 45.8222 492.534 45.8666z"/>
<path style="stroke:none; fill:#fcfbff" d="M 493.6 45.9426C 489.646 46.5099 485.802 47.3738 482.401 49.5753C 474.119 54.9346 470.974 68.313 478.571 75.737C 483.849 80.8944 491.598 81.9856 498.4 83.788C 501.976 84.7352 510.122 86.732 508.888 91.988C 506.78 100.958 491.696 97.412 486.4 94.5608C 484.282 93.42 481.237 90.2792 478.64 91.34C 472.666 93.7808 472.669 100.706 477.604 103.718C 485.265 108.394 494.382 109.723 503.2 108.458C 507.154 107.89 510.998 107.026 514.399 104.825C 522.85 99.356 525.77 85.344 518.229 77.7704C 514.091 73.615 507.165 71.6814 501.6 70.4086C 497.731 69.5238 488.541 68.359 488.03 63.1882C 487.602 58.8642 493.462 56.8812 496.8 56.8636C 501.983 56.8362 510.116 63.4216 514.263 62.1358C 519.537 60.501 521.407 53.7787 516.784 50.7747C 510.391 46.621 501.103 44.8658 493.6 45.9426z"/>
<path style="stroke:none; fill:#c899df" d="M 501.6 45.6L 501.6 46.4L 504 46.4C 503.002 45.8522 502.762 45.801 501.6 45.6z"/>
<path style="stroke:none; fill:#a135d3" d="M 504.534 45.8666C 504.178 46.2222 505.022 46.1778 505.066 46.1334C 505.422 45.7778 504.578 45.8222 504.534 45.8666z"/>
<path style="stroke:none; fill:#ae92cc" d="M 571.734 45.8666C 571.378 46.2223 572.222 46.1777 572.266 46.1334C 572.622 45.7778 571.778 45.8222 571.734 45.8666z"/>
<path style="stroke:none; fill:#c899df" d="M 573.334 45.8666C 572.978 46.2222 573.822 46.1778 573.866 46.1334C 574.222 45.7778 573.378 45.8222 573.334 45.8666z"/>
<path style="stroke:none; fill:#fcfbff" d="M 559.2 89.6C 557.718 92.2 553.582 96.0408 553.734 99.1256C 553.964 103.79 564.29 107.166 568 107.863C 579.99 110.117 598.102 109.37 602.159 95.2C 606.334 80.6184 594.731 73.5991 582.4 70.5012C 578.466 69.513 567.198 67.8983 568.712 61.6339C 571.518 50.0262 589.939 61.2089 595.2 63.2C 597.455 60.0609 599.875 57.0641 601.6 53.6C 592.049 47.163 581.061 43.9001 569.6 46.8118C 559.03 49.4972 551.85 59.6538 555.69 70.4C 561.074 85.46 580.378 78.1276 588.418 88.18C 591.989 92.644 585.542 96.9032 581.6 97.4488C 572.78 98.6696 566.31 93.9832 559.2 89.6z"/>
<path style="stroke:none; fill:#c899df" d="M 582.134 45.8666C 581.778 46.2222 582.622 46.1778 582.666 46.1334C 583.022 45.7778 582.178 45.8222 582.134 45.8666z"/>
<path style="stroke:none; fill:#af6fd1" d="M 583.2 45.6L 583.2 46.4L 585.6 46.4C 584.602 45.8522 584.362 45.801 583.2 45.6z"/>
<path style="stroke:none; fill:#a24dc9" d="M 156 46.4L 156.8 47.2L 156 46.4M 220.8 46.4L 221.6 47.2L 220.8 46.4z"/>
<path style="stroke:none; fill:#ae92cc" d="M 238.934 46.6666C 238.578 47.0223 239.422 46.9777 239.466 46.9334C 239.822 46.5778 238.978 46.6222 238.934 46.6666z"/>
<path style="stroke:none; fill:#a135d3" d="M 240 46.4L 240.8 47.2L 240 46.4z"/>
<path style="stroke:none; fill:#a24dc9" d="M 283.2 46.4L 284 47.2L 283.2 46.4z"/>
<path style="stroke:none; fill:#c899df" d="M 284 46.4L 284.8 47.2L 284 46.4M 302.4 46.4L 303.2 47.2L 302.4 46.4z"/>
<path style="stroke:none; fill:#af6fd1" d="M 303.2 46.4L 304 47.2L 303.2 46.4z"/>
<path style="stroke:none; fill:#c899df" d="M 327.2 46.4L 327.2 47.2C 333.522 47.2 340.22 46.5286 346.4 48C 341.92 44.6062 332.68 46.4 327.2 46.4M 375.2 46.4L 375.2 47.2L 393.6 47.2C 388.444 45.0365 380.774 46.4 375.2 46.4z"/>
<path style="stroke:none; fill:#af6fd1" d="M 393.6 46.4L 393.6 108L 394.4 108L 394.4 65.6C 394.4 59.8275 395.842 51.7422 393.6 46.4z"/>
<path style="stroke:none; fill:#c899df" d="M 426.134 46.6666C 425.778 47.0222 426.622 46.9778 426.666 46.9334C 427.022 46.5778 426.178 46.6222 426.134 46.6666M 443.2 46.4L 444 47.2L 443.2 46.4z"/>
<path style="stroke:none; fill:#af6fd1" d="M 444 46.4L 444.8 47.2L 444 46.4M 488 46.4L 488.8 47.2L 488 46.4z"/>
<path style="stroke:none; fill:#ae92cc" d="M 506.934 46.6666C 506.578 47.0222 507.422 46.9778 507.466 46.9334C 507.822 46.5778 506.978 46.6222 506.934 46.6666z"/>
<path style="stroke:none; fill:#c899df" d="M 531.2 46.4L 531.2 108L 532 108L 532 47.2L 544.8 47.2C 540.821 45.5302 535.49 46.4 531.2 46.4z"/>
<path style="stroke:none; fill:#a24dc9" d="M 568 46.4L 568.8 47.2L 568 46.4z"/>
<path style="stroke:none; fill:#c899df" d="M 568.8 46.4L 569.6 47.2L 568.8 46.4M 587.2 46.4L 588 47.2L 587.2 46.4z"/>
<path style="stroke:none; fill:#af6fd1" d="M 588 46.4L 588.8 47.2L 588 46.4M 218.4 47.2L 219.2 48L 218.4 47.2z"/>
<path style="stroke:none; fill:#c899df" d="M 241.6 47.2L 242.4 48L 241.6 47.2z"/>
<path style="stroke:none; fill:#a24dc9" d="M 242.4 47.2L 243.2 48L 242.4 47.2z"/>
<path style="stroke:none; fill:#c899df" d="M 281.6 47.2L 282.4 48L 281.6 47.2z"/>
<path style="stroke:none; fill:#af6fd1" d="M 305.6 47.2L 306.4 48L 305.6 47.2z"/>
<path style="stroke:none; fill:#fcfbff" d="M 327.2 47.2L 327.2 108L 340 108L 340 65.6L 340.8 65.6C 343.854 76.7684 349.3 87.648 353.6 98.4C 354.835 101.49 355.96 107.521 360.029 107.834C 364.67 108.192 365.878 101.707 367.2 98.4C 371.476 87.7088 377.343 76.8127 380 65.6L 380.8 65.6L 380.8 108L 393.6 108L 393.6 47.2C 389.126 47.2 379.446 45.3604 375.719 48.0222C 373.146 49.8598 372.162 54.7954 371.04 57.6L 360.8 83.2C 356.26 75.222 353.609 66.0561 350.061 57.6C 348.9 54.8338 347.774 49.7941 345.201 48.0222C 341.352 45.3716 331.77 47.2 327.2 47.2z"/>
<path style="stroke:none; fill:#a135d3" d="M 422.4 47.2L 423.2 48L 422.4 47.2z"/>
<path style="stroke:none; fill:#c899df" d="M 423.2 47.2L 424 48L 423.2 47.2z"/>
<path style="stroke:none; fill:#af6fd1" d="M 446.4 47.2L 447.2 48L 446.4 47.2M 485.6 47.2L 486.4 48L 485.6 47.2z"/>
<path style="stroke:none; fill:#c899df" d="M 509.6 47.2L 510.4 48L 509.6 47.2z"/>
<path style="stroke:none; fill:#a24dc9" d="M 510.4 47.2L 511.2 48L 510.4 47.2z"/>
<path style="stroke:none; fill:#fcfbff" d="M 532 47.2L 532 108L 544.8 108L 544.8 47.2L 532 47.2z"/>
<path style="stroke:none; fill:#c899df" d="M 566.4 47.2L 567.2 48L 566.4 47.2z"/>
<path style="stroke:none; fill:#af6fd1" d="M 590.4 47.2L 591.2 48L 590.4 47.2z"/>
<path style="stroke:none; fill:#ae92cc" d="M 156.8 48L 157.6 48.8L 156.8 48z"/>
<path style="stroke:none; fill:#c899df" d="M 216.8 48L 217.6 48.8L 216.8 48z"/>
<path style="stroke:none; fill:#af6fd1" d="M 244 48L 244.8 48.8L 244 48z"/>
<path style="stroke:none; fill:#a24dc9" d="M 279.2 48L 280 48.8L 279.2 48z"/>
<path style="stroke:none; fill:#c899df" d="M 307.2 48L 308 48.8L 307.2 48z"/>
<path style="stroke:none; fill:#a24dc9" d="M 308 48L 308.8 48.8L 308 48z"/>
<path style="stroke:none; fill:#c899df" d="M 374.4 48L 375.2 48.8L 374.4 48z"/>
<path style="stroke:none; fill:#af6fd1" d="M 420.8 48L 421.6 48.8L 420.8 48z"/>
<path style="stroke:none; fill:#c899df" d="M 448 48L 448.8 48.8L 448 48z"/>
<path style="stroke:none; fill:#a135d3" d="M 448.8 48L 449.6 48.8L 448.8 48z"/>
<path style="stroke:none; fill:#c899df" d="M 484 48L 484.8 48.8L 484 48z"/>
<path style="stroke:none; fill:#af6fd1" d="M 512 48L 512.8 48.8L 512 48z"/>
<path style="stroke:none; fill:#c899df" d="M 564.8 48L 565.6 48.8L 564.8 48M 592 48L 592.8 48.8L 592 48z"/>
<path style="stroke:none; fill:#a24dc9" d="M 592.8 48L 593.6 48.8L 592.8 48z"/>
<path style="stroke:none; fill:#c899df" d="M 215.2 48.8L 216 49.6L 215.2 48.8M 245.6 48.8L 246.4 49.6L 245.6 48.8M 278.4 48.8L 279.2 49.6L 278.4 48.8z"/>
<path style="stroke:none; fill:#a24dc9" d="M 309.6 48.8L 310.4 49.6L 309.6 48.8M 346.4 48.8L 347.2 49.6L 346.4 48.8z"/>
<path style="stroke:none; fill:#ae92cc" d="M 419.2 48.8L 420 49.6L 419.2 48.8z"/>
<path style="stroke:none; fill:#a24dc9" d="M 450.4 48.8L 451.2 49.6L 450.4 48.8z"/>
<path style="stroke:none; fill:#af6fd1" d="M 482.4 48.8L 483.2 49.6L 482.4 48.8z"/>
<path style="stroke:none; fill:#c899df" d="M 513.6 48.8L 514.4 49.6L 513.6 48.8M 563.2 48.8L 564 49.6L 563.2 48.8z"/>
<path style="stroke:none; fill:#af6fd1" d="M 594.4 48.8L 595.2 49.6L 594.4 48.8z"/>
<path style="stroke:none; fill:#c899df" d="M 157.6 49.6L 158.4 50.4L 157.6 49.6M 213.6 49.6L 214.4 50.4L 213.6 49.6z"/>
<path style="stroke:none; fill:#af6fd1" d="M 247.2 49.6L 248 50.4L 247.2 49.6M 276.8 49.6L 277.6 50.4L 276.8 49.6z"/>
<path style="stroke:none; fill:#a135d3" d="M 311.2 49.6L 312 50.4L 311.2 49.6z"/>
<path style="stroke:none; fill:#c899df" d="M 346.4 49.6L 347.2 50.4L 346.4 49.6z"/>
<path style="stroke:none; fill:#af6fd1" d="M 373.6 49.6L 374.4 50.4L 373.6 49.6M 417.6 49.6L 418.4 50.4L 417.6 49.6z"/>
<path style="stroke:none; fill:#c899df" d="M 451.2 49.6L 452 50.4L 451.2 49.6z"/>
<path style="stroke:none; fill:#ae92cc" d="M 515.2 49.6L 516 50.4L 515.2 49.6z"/>
<path style="stroke:none; fill:#af6fd1" d="M 561.6 49.6L 562.4 50.4L 561.6 49.6z"/>
<path style="stroke:none; fill:#a24dc9" d="M 596 49.6L 596.8 50.4L 596 49.6z"/>
<path style="stroke:none; fill:#fcfbff" d="M 139.454 51.2377C 135.77 53.5082 138.99 59.759 142.946 57.4216C 146.657 55.2298 143.356 48.8322 139.454 51.2377z"/>
<path style="stroke:none; fill:#af6fd1" d="M 212 50.4L 212.8 51.2L 212 50.4z"/>
<path style="stroke:none; fill:#a24dc9" d="M 248.8 50.4L 249.6 51.2L 248.8 50.4z"/>
<path style="stroke:none; fill:#c899df" d="M 276 50.4L 276.8 51.2L 276 50.4M 312 50.4L 312.8 51.2L 312 50.4M 452.8 50.4L 453.6 51.2L 452.8 50.4z"/>
<path style="stroke:none; fill:#a24dc9" d="M 480 50.4L 480.8 51.2L 480 50.4M 516.8 50.4L 517.6 51.2L 516.8 50.4z"/>
<path style="stroke:none; fill:#c899df" d="M 560.8 50.4L 561.6 51.2L 560.8 50.4M 596.8 50.4L 597.6 51.2L 596.8 50.4z"/>
<path style="stroke:none; fill:#785b9f" d="M 65.6 51.2C 63.1773 57.5294 62.4 63.6675 62.4 70.4L 67.2 70.4C 67.2 64.7499 68.8766 55.9961 65.6 51.2z"/>
<path style="stroke:none; fill:#c899df" d="M 249.6 51.2L 250.4 52L 249.6 51.2z"/>
<path style="stroke:none; fill:#a24dc9" d="M 313.6 51.2L 314.4 52L 313.6 51.2z"/>
<path style="stroke:none; fill:#c899df" d="M 347.2 51.2L 348 52L 347.2 51.2z"/>
<path style="stroke:none; fill:#a135d3" d="M 372.8 51.2L 373.6 52L 372.8 51.2z"/>
<path style="stroke:none; fill:#af6fd1" d="M 415.2 51.2L 416 52L 415.2 51.2M 479.2 51.2L 480 52L 479.2 51.2z"/>
<path style="stroke:none; fill:#c899df" d="M 517.6 51.2L 518.4 52L 517.6 51.2M 560 51.2L 560.8 52L 560 51.2z"/>
<path style="stroke:none; fill:#af6fd1" d="M 598.4 51.2L 599.2 52L 598.4 51.2z"/>
<path style="stroke:none; fill:#a24dc9" d="M 209.6 52L 210.4 52.8L 209.6 52z"/>
<path style="stroke:none; fill:#c899df" d="M 314.4 52L 315.2 52.8L 314.4 52M 372.8 52L 373.6 52.8L 372.8 52M 414.4 52L 415.2 52.8L 414.4 52z"/>
<path style="stroke:none; fill:#af6fd1" d="M 455.2 52L 456 52.8L 455.2 52M 478.4 52L 479.2 52.8L 478.4 52z"/>
<path style="stroke:none; fill:#c899df" d="M 599.2 52L 600 52.8L 599.2 52M 159.2 52.8L 160 53.6L 159.2 52.8z"/>
<path style="stroke:none; fill:#af6fd1" d="M 208.8 52.8L 209.6 53.6L 208.8 52.8z"/>
<path style="stroke:none; fill:#a24dc9" d="M 348 52.8L 348.8 53.6L 348 52.8z"/>
<path style="stroke:none; fill:#c899df" d="M 456 52.8L 456.8 53.6L 456 52.8z"/>
<path style="stroke:none; fill:#a24dc9" d="M 477.6 52.8L 478.4 53.6L 477.6 52.8M 520 52.8L 520.8 53.6L 520 52.8z"/>
<path style="stroke:none; fill:#c899df" d="M 558.4 52.8L 559.2 53.6L 558.4 52.8M 208 53.6L 208.8 54.4L 208 53.6z"/>
<path style="stroke:none; fill:#a24dc9" d="M 252.8 53.6L 253.6 54.4L 252.8 53.6z"/>
<path style="stroke:none; fill:#c899df" d="M 272.8 53.6L 273.6 54.4L 272.8 53.6M 348 53.6L 348.8 54.4L 348 53.6z"/>
<path style="stroke:none; fill:#af6fd1" d="M 372 53.6L 372.8 54.4L 372 53.6z"/>
<path style="stroke:none; fill:#c899df" d="M 456.8 53.6L 457.6 54.4L 456.8 53.6z"/>
<path style="stroke:none; fill:#a135d3" d="M 521.066 54.1334C 521.022 54.1778 520.978 55.0222 521.334 54.6666C 521.378 54.6222 521.422 53.7778 521.066 54.1334z"/>
<path style="stroke:none; fill:#c899df" d="M 557.6 53.6L 558.4 54.4L 557.6 53.6z"/>
<path style="stroke:none; fill:#af6fd1" d="M 160 54.4L 160.8 55.2L 160 54.4z"/>
<path style="stroke:none; fill:#c899df" d="M 207.2 54.4L 208 55.2L 207.2 54.4z"/>
<path style="stroke:none; fill:#a24dc9" d="M 253.6 54.4L 254.4 55.2L 253.6 54.4M 272 54.4L 272.8 55.2L 272 54.4z"/>
<path style="stroke:none; fill:#c899df" d="M 316 54.4L 316.8 55.2L 316 54.4z"/>
<path style="stroke:none; fill:#a24dc9" d="M 411.2 54.4L 412 55.2L 411.2 54.4z"/>
<path style="stroke:none; fill:#a135d3" d="M 556.8 54.4L 557.6 55.2L 556.8 54.4z"/>
<path style="stroke:none; fill:#c899df" d="M 600.8 54.4L 601.6 55.2L 600.8 54.4M 206.4 55.2L 207.2 56L 206.4 55.2z"/>
<path style="stroke:none; fill:#a24dc9" d="M 254.4 55.2L 255.2 56L 254.4 55.2z"/>
<path style="stroke:none; fill:#c899df" d="M 348.8 55.2L 349.6 56L 348.8 55.2z"/>
<path style="stroke:none; fill:#a135d3" d="M 371.2 55.2L 372 56L 371.2 55.2z"/>
<path style="stroke:none; fill:#c899df" d="M 458.4 55.2L 459.2 56L 458.4 55.2z"/>
<path style="stroke:none; fill:#ae92cc" d="M 476 55.2L 476.8 56L 476 55.2z"/>
<path style="stroke:none; fill:#a24dc9" d="M 520 55.2L 520.8 56L 520 55.2M 160.8 56L 161.6 56.8L 160.8 56z"/>
<path style="stroke:none; fill:#ae92cc" d="M 205.6 56L 206.4 56.8L 205.6 56z"/>
<path style="stroke:none; fill:#c899df" d="M 271.2 56L 272 56.8L 271.2 56M 371.2 56L 372 56.8L 371.2 56M 459.2 56L 460 56.8L 459.2 56M 519.2 56L 520 56.8L 519.2 56z"/>
<path style="stroke:none; fill:#af6fd1" d="M 556 56L 556.8 56.8L 556 56z"/>
<path style="stroke:none; fill:#a24dc9" d="M 204.8 56.8L 205.6 57.6L 204.8 56.8z"/>
<path style="stroke:none; fill:#c899df" d="M 228 56.8L 228 57.6L 232.8 57.6C 231.158 56.9006 229.802 56.8378 228 56.8M 288.534 57.0666C 288.178 57.4223 289.022 57.3778 289.066 57.3334C 289.422 56.9778 288.578 57.0222 288.534 57.0666z"/>
<path style="stroke:none; fill:#a24dc9" d="M 289.6 56.8L 289.6 57.6L 295.2 57.6C 293.334 56.8123 291.634 56.815 289.6 56.8M 314.4 56.8L 315.2 57.6L 314.4 56.8M 349.6 56.8L 350.4 57.6L 349.6 56.8z"/>
<path style="stroke:none; fill:#c899df" d="M 432 56.8L 432 57.6L 437.6 57.6C 435.734 56.8123 434.034 56.815 432 56.8z"/>
<path style="stroke:none; fill:#af6fd1" d="M 460 56.8L 460.8 57.6L 460 56.8z"/>
<path style="stroke:none; fill:#c899df" d="M 475.2 56.8L 476 57.6L 475.2 56.8z"/>
<path style="stroke:none; fill:#af6fd1" d="M 493.334 57.0666C 492.978 57.4222 493.822 57.3778 493.866 57.3334C 494.222 56.9778 493.378 57.0222 493.334 57.0666z"/>
<path style="stroke:none; fill:#a24dc9" d="M 494.4 56.8L 494.4 57.6L 498.4 57.6C 496.985 56.9768 495.971 56.8701 494.4 56.8z"/>
<path style="stroke:none; fill:#c899df" d="M 498.4 56.8L 498.4 57.6L 500.8 57.6C 499.802 57.0522 499.561 57.001 498.4 56.8M 573.334 57.0666C 572.978 57.4222 573.822 57.3778 573.866 57.3334C 574.222 56.9778 573.378 57.0222 573.334 57.0666z"/>
<path style="stroke:none; fill:#a24dc9" d="M 574.4 56.8L 574.4 57.6L 580 57.6C 578.134 56.8123 576.434 56.815 574.4 56.8z"/>
<path style="stroke:none; fill:#c899df" d="M 580.534 57.0666C 580.178 57.4222 581.022 57.3778 581.066 57.3334C 581.422 56.9778 580.578 57.0222 580.534 57.0666z"/>
<path style="stroke:none; fill:#af6fd1" d="M 599.2 56.8L 600 57.6L 599.2 56.8z"/>
<path style="stroke:none; fill:#c899df" d="M 224.8 57.6L 225.6 58.4L 224.8 57.6z"/>
<path style="stroke:none; fill:#a24dc9" d="M 225.6 57.6L 226.4 58.4L 225.6 57.6z"/>
<path style="stroke:none; fill:#7601b0" d="M 226.4 58.0148C 203.908 62.8944 210.482 102.078 234.4 96.9448C 257.887 91.9032 251.081 52.6602 226.4 58.0148z"/>
<path style="stroke:none; fill:#af6fd1" d="M 235.2 57.6L 236 58.4L 235.2 57.6z"/>
<path style="stroke:none; fill:#c899df" d="M 236 57.6L 236.8 58.4L 236 57.6z"/>
<path style="stroke:none; fill:#af6fd1" d="M 270.4 57.6L 271.2 58.4L 270.4 57.6M 286.4 57.6L 287.2 58.4L 286.4 57.6M 298.4 57.6L 299.2 58.4L 298.4 57.6z"/>
<path style="stroke:none; fill:#c899df" d="M 313.6 57.6L 314.4 58.4L 313.6 57.6z"/>
<path style="stroke:none; fill:#af6fd1" d="M 370.4 57.6L 371.2 58.4L 370.4 57.6z"/>
<path style="stroke:none; fill:#c899df" d="M 408.8 57.6L 409.6 58.4L 408.8 57.6M 428.8 57.6L 429.6 58.4L 428.8 57.6z"/>
<path style="stroke:none; fill:#af6fd1" d="M 429.6 57.6L 430.4 58.4L 429.6 57.6z"/>
<path style="stroke:none; fill:#7601b0" d="M 430.4 58.0234C 408.13 63.1714 414.927 102.042 438.4 97.0648C 462.413 91.9728 455.409 52.2424 430.4 58.0234z"/>
<path style="stroke:none; fill:#a24dc9" d="M 439.2 57.6L 440 58.4L 439.2 57.6z"/>
<path style="stroke:none; fill:#c899df" d="M 440 57.6L 440.8 58.4L 440 57.6z"/>
<path style="stroke:none; fill:#a135d3" d="M 460.8 57.6L 461.6 58.4L 460.8 57.6z"/>
<path style="stroke:none; fill:#c899df" d="M 490.4 57.6L 491.2 58.4L 490.4 57.6z"/>
<path style="stroke:none; fill:#a24dc9" d="M 502.4 57.6L 503.2 58.4L 502.4 57.6z"/>
<path style="stroke:none; fill:#c899df" d="M 503.2 57.6L 504 58.4L 503.2 57.6z"/>
<path style="stroke:none; fill:#a24dc9" d="M 555.2 57.6L 556 58.4L 555.2 57.6z"/>
<path style="stroke:none; fill:#af6fd1" d="M 571.2 57.6L 572 58.4L 571.2 57.6M 583.2 57.6L 584 58.4L 583.2 57.6z"/>
<path style="stroke:none; fill:#c899df" d="M 584 57.6L 584.8 58.4L 584 57.6M 598.4 57.6L 599.2 58.4L 598.4 57.6z"/>
<path style="stroke:none; fill:#a24dc9" d="M 161.6 58.4L 162.4 59.2L 161.6 58.4z"/>
<path style="stroke:none; fill:#c899df" d="M 222.4 58.4L 223.2 59.2L 222.4 58.4z"/>
<path style="stroke:none; fill:#a24dc9" d="M 223.2 58.4L 224 59.2L 223.2 58.4z"/>
<path style="stroke:none; fill:#af6fd1" d="M 237.6 58.4L 238.4 59.2L 237.6 58.4M 256.8 58.4L 257.6 59.2L 256.8 58.4z"/>
<path style="stroke:none; fill:#c899df" d="M 284.8 58.4L 285.6 59.2L 284.8 58.4z"/>
<path style="stroke:none; fill:#af6fd1" d="M 300.8 58.4L 301.6 59.2L 300.8 58.4M 408 58.4L 408.8 59.2L 408 58.4M 427.2 58.4L 428 59.2L 427.2 58.4z"/>
<path style="stroke:none; fill:#c899df" d="M 442.4 58.4L 443.2 59.2L 442.4 58.4z"/>
<path style="stroke:none; fill:#a24dc9" d="M 474.4 58.4L 475.2 59.2L 474.4 58.4z"/>
<path style="stroke:none; fill:#c899df" d="M 505.6 58.4L 506.4 59.2L 505.6 58.4z"/>
<path style="stroke:none; fill:#a24dc9" d="M 517.6 58.4L 518.4 59.2L 517.6 58.4z"/>
<path style="stroke:none; fill:#c899df" d="M 569.6 58.4L 570.4 59.2L 569.6 58.4z"/>
<path style="stroke:none; fill:#a24dc9" d="M 585.6 58.4L 586.4 59.2L 585.6 58.4z"/>
<path style="stroke:none; fill:#c899df" d="M 586.4 58.4L 587.2 59.2L 586.4 58.4z"/>
<path style="stroke:none; fill:#ae92cc" d="M 203.2 59.2L 204 60L 203.2 59.2z"/>
<path style="stroke:none; fill:#c899df" d="M 220.8 59.2L 221.6 60L 220.8 59.2z"/>
<path style="stroke:none; fill:#a24dc9" d="M 239.2 59.2L 240 60L 239.2 59.2z"/>
<path style="stroke:none; fill:#ae92cc" d="M 284 59.2L 284.8 60L 284 59.2z"/>
<path style="stroke:none; fill:#c899df" d="M 303.2 59.2L 304 60L 303.2 59.2M 350.4 59.2L 351.2 60L 350.4 59.2z"/>
<path style="stroke:none; fill:#a24dc9" d="M 369.6 59.2L 370.4 60L 369.6 59.2z"/>
<path style="stroke:none; fill:#af6fd1" d="M 425.6 59.2L 426.4 60L 425.6 59.2z"/>
<path style="stroke:none; fill:#c899df" d="M 444 59.2L 444.8 60L 444 59.2M 461.6 59.2L 462.4 60L 461.6 59.2M 474.4 59.2L 475.2 60L 474.4 59.2z"/>
<path style="stroke:none; fill:#af6fd1" d="M 507.2 59.2L 508 60L 507.2 59.2M 516.8 59.2L 517.6 60L 516.8 59.2z"/>
<path style="stroke:none; fill:#c899df" d="M 568.8 59.2L 569.6 60L 568.8 59.2M 588 59.2L 588.8 60L 588 59.2z"/>
<path style="stroke:none; fill:#a24dc9" d="M 220 60L 220.8 60.8L 220 60z"/>
<path style="stroke:none; fill:#c899df" d="M 240.8 60L 241.6 60.8L 240.8 60M 269.866 60.5334C 269.822 60.5778 269.778 61.4222 270.134 61.0666C 270.178 61.0222 270.222 60.1778 269.866 60.5334M 304.8 60L 305.6 60.8L 304.8 60z"/>
<path style="stroke:none; fill:#a24dc9" d="M 312 60L 312.8 60.8L 312 60z"/>
<path style="stroke:none; fill:#c899df" d="M 369.6 60L 370.4 60.8L 369.6 60M 407.2 60L 408 60.8L 407.2 60M 424 60L 424.8 60.8L 424 60z"/>
<path style="stroke:none; fill:#a24dc9" d="M 444.8 60L 445.6 60.8L 444.8 60z"/>
<path style="stroke:none; fill:#a135d3" d="M 462.4 60L 463.2 60.8L 462.4 60z"/>
<path style="stroke:none; fill:#af6fd1" d="M 508.8 60L 509.6 60.8L 508.8 60z"/>
<path style="stroke:none; fill:#c899df" d="M 516 60L 516.8 60.8L 516 60z"/>
<path style="stroke:none; fill:#af6fd1" d="M 554.666 60.5334C 554.622 60.5778 554.578 61.4222 554.934 61.0666C 554.978 61.0222 555.022 60.1778 554.666 60.5334z"/>
<path style="stroke:none; fill:#c899df" d="M 589.6 60L 590.4 60.8L 589.6 60z"/>
<path style="stroke:none; fill:#a24dc9" d="M 596.8 60L 597.6 60.8L 596.8 60z"/>
<path style="stroke:none; fill:#c899df" d="M 202.4 60.8L 203.2 61.6L 202.4 60.8z"/>
<path style="stroke:none; fill:#a24dc9" d="M 241.6 60.8L 242.4 61.6L 241.6 60.8M 258.4 60.8L 259.2 61.6L 258.4 60.8M 283.2 60.8L 284 61.6L 283.2 60.8M 305.6 60.8L 306.4 61.6L 305.6 60.8z"/>
<path style="stroke:none; fill:#af6fd1" d="M 311.2 60.8L 312 61.6L 311.2 60.8z"/>
<path style="stroke:none; fill:#a24dc9" d="M 351.2 60.8L 352 61.6L 351.2 60.8M 406.4 60.8L 407.2 61.6L 406.4 60.8z"/>
<path style="stroke:none; fill:#af6fd1" d="M 423.2 60.8L 424 61.6L 423.2 60.8z"/>
<path style="stroke:none; fill:#c899df" d="M 446.4 60.8L 447.2 61.6L 446.4 60.8M 510.4 60.8L 511.2 61.6L 510.4 60.8z"/>
<path style="stroke:none; fill:#af6fd1" d="M 568 60.8L 568.8 61.6L 568 60.8z"/>
<path style="stroke:none; fill:#c899df" d="M 596 60.8L 596.8 61.6L 596 60.8z"/>
<path style="stroke:none; fill:#a24dc9" d="M 201.6 61.6L 202.4 62.4L 201.6 61.6z"/>
<path style="stroke:none; fill:#c899df" d="M 307.2 61.6L 308 62.4L 307.2 61.6M 310.4 61.6L 311.2 62.4L 310.4 61.6z"/>
<path style="stroke:none; fill:#af6fd1" d="M 368.8 61.6L 369.6 62.4L 368.8 61.6z"/>
<path style="stroke:none; fill:#a24dc9" d="M 422.4 61.6L 423.2 62.4L 422.4 61.6z"/>
<path style="stroke:none; fill:#c899df" d="M 447.2 61.6L 448 62.4L 447.2 61.6z"/>
<path style="stroke:none; fill:#af6fd1" d="M 463.2 61.6L 464 62.4L 463.2 61.6M 473.6 61.6L 473.6 66.4L 474.4 66.4C 474.362 64.5977 474.299 63.2417 473.6 61.6M 487.2 61.6L 487.2 64L 488 64C 487.799 62.8388 487.748 62.5986 487.2 61.6z"/>
<path style="stroke:none; fill:#a24dc9" d="M 511.2 61.6L 512 62.4L 511.2 61.6z"/>
<path style="stroke:none; fill:#c899df" d="M 592 61.6L 592.8 62.4L 592 61.6z"/>
<path style="stroke:none; fill:#af6fd1" d="M 259.2 62.4L 260 63.2L 259.2 62.4M 308 62.4L 308.8 63.2L 308 62.4z"/>
<path style="stroke:none; fill:#a24dc9" d="M 405.6 62.4L 406.4 63.2L 405.6 62.4M 421.6 62.4L 422.4 63.2L 421.6 62.4z"/>
<path style="stroke:none; fill:#c899df" d="M 448 62.4L 448.8 63.2L 448 62.4z"/>
<path style="stroke:none; fill:#af6fd1" d="M 514.4 62.4L 515.2 63.2L 514.4 62.4z"/>
<path style="stroke:none; fill:#a24dc9" d="M 592.8 62.4L 593.6 63.2L 592.8 62.4z"/>
<path style="stroke:none; fill:#a135d3" d="M 309.334 63.4666C 308.978 63.8222 309.822 63.7778 309.866 63.7334C 310.222 63.3778 309.378 63.4222 309.334 63.4666z"/>
<path style="stroke:none; fill:#c899df" d="M 352 63.2L 352.8 64L 352 63.2z"/>
<path style="stroke:none; fill:#a24dc9" d="M 368 63.2L 368.8 64L 368 63.2z"/>
<path style="stroke:none; fill:#af6fd1" d="M 420.8 63.2L 421.6 64L 420.8 63.2z"/>
<path style="stroke:none; fill:#c899df" d="M 448.8 63.2L 449.6 64L 448.8 63.2z"/>
<path style="stroke:none; fill:#a24dc9" d="M 464 63.2L 464.8 64L 464 63.2z"/>
<path style="stroke:none; fill:#af6fd1" d="M 513.6 63.2L 514.4 64L 513.6 63.2z"/>
<path style="stroke:none; fill:#a24dc9" d="M 594.134 63.4666C 593.778 63.8222 594.622 63.7778 594.666 63.7334C 595.022 63.3778 594.178 63.4222 594.134 63.4666z"/>
<path style="stroke:none; fill:#8135e3" d="M 54.6666 64.5334C 54.6222 64.5778 54.5778 65.4222 54.9334 65.0666C 54.9778 65.0222 55.0222 64.1778 54.6666 64.5334z"/>
<path style="stroke:none; fill:#af6fd1" d="M 163.466 64.5334C 163.422 64.5778 163.378 65.4222 163.734 65.0666C 163.778 65.0222 163.822 64.1778 163.466 64.5334z"/>
<path style="stroke:none; fill:#c899df" d="M 200.8 64L 201.6 64.8L 200.8 64z"/>
<path style="stroke:none; fill:#af6fd1" d="M 244.8 64L 245.6 64.8L 244.8 64z"/>
<path style="stroke:none; fill:#a24dc9" d="M 260 64L 260.8 64.8L 260 64z"/>
<path style="stroke:none; fill:#c899df" d="M 368 64L 368.8 64.8L 368 64M 420 64L 420.8 64.8L 420 64M 487.2 64L 488 64.8L 487.2 64z"/>
<path style="stroke:none; fill:#a24dc9" d="M 568 64L 568.8 64.8L 568 64z"/>
<path style="stroke:none; fill:#af6fd1" d="M 215.2 64.8L 216 65.6L 215.2 64.8z"/>
<path style="stroke:none; fill:#c899df" d="M 245.6 64.8L 246.4 65.6L 245.6 64.8M 260 64.8L 260.8 65.6L 260 64.8z"/>
<path style="stroke:none; fill:#af6fd1" d="M 352.8 64.8L 353.6 65.6L 352.8 64.8z"/>
<path style="stroke:none; fill:#c899df" d="M 404.8 64.8L 405.6 65.6L 404.8 64.8z"/>
<path style="stroke:none; fill:#a24dc9" d="M 449.6 64.8L 450.4 65.6L 449.6 64.8M 488 64.8L 488.8 65.6L 488 64.8M 121.6 65.6L 121.6 66.4L 125.6 66.4C 124.185 65.7769 123.171 65.6701 121.6 65.6z"/>
<path style="stroke:none; fill:#7601b0" d="M 109.6 96L 105.6 96C 105.6 101.826 106.156 107.903 104.8 113.6C 108.869 115.872 105.6 124.954 105.6 129.6L 113.6 129.6C 113.477 125.848 109.719 121.53 114.4 120C 114.4 114.074 111.97 101.279 115.222 96.2424C 118.429 91.2768 129.425 92.4864 134.146 88.74C 137.738 85.8888 136.602 73.0728 135.882 68.8469C 134.887 63.013 113.403 65.5521 110.422 69.3821C 106.752 74.0984 109.6 90.0512 109.6 96z"/>
<path style="stroke:none; fill:#a135d3" d="M 135.2 65.6L 135.2 66.4L 137.6 66.4C 136.602 65.8522 136.362 65.801 135.2 65.6z"/>
<path style="stroke:none; fill:#af6fd1" d="M 137.6 65.6L 137.6 66.4L 140 66.4C 139.002 65.8522 138.762 65.801 137.6 65.6M 200 65.6L 200.8 66.4L 200 65.6z"/>
<path style="stroke:none; fill:#c899df" d="M 284 65.6L 284.8 66.4L 284 65.6z"/>
<path style="stroke:none; fill:#af6fd1" d="M 340 65.6L 340 108L 340.8 108L 340.8 78.4C 340.8 74.4715 341.959 69.0302 340 65.6M 367.2 65.6L 368 66.4L 367.2 65.6z"/>
<path style="stroke:none; fill:#c899df" d="M 380 65.6L 380.8 66.4L 380 65.6z"/>
<path style="stroke:none; fill:#a24dc9" d="M 419.2 65.6L 420 66.4L 419.2 65.6z"/>
<path style="stroke:none; fill:#c899df" d="M 450.4 65.6L 451.2 66.4L 450.4 65.6M 464.8 65.6L 465.6 66.4L 464.8 65.6z"/>
<path style="stroke:none; fill:#a24dc9" d="M 488.8 65.6L 489.6 66.4L 488.8 65.6M 116.8 66.4L 116.8 67.2L 119.2 67.2C 118.202 66.6522 117.962 66.601 116.8 66.4z"/>
<path style="stroke:none; fill:#9d01c7" d="M 136 66.4L 136 88C 141.412 86.7176 157.925 83.884 160.774 79.0204C 162.871 75.4434 159.803 71.9906 156.788 70.3969C 150.614 67.1336 142.855 66.4046 136 66.4z"/>
<path style="stroke:none; fill:#a24dc9" d="M 143.2 66.4L 143.2 67.2L 145.6 67.2C 144.602 66.6522 144.362 66.601 143.2 66.4M 214.4 66.4L 215.2 67.2L 214.4 66.4z"/>
<path style="stroke:none; fill:#c899df" d="M 246.4 66.4L 247.2 67.2L 246.4 66.4z"/>
<path style="stroke:none; fill:#af6fd1" d="M 260.8 66.4L 261.6 67.2L 260.8 66.4z"/>
<path style="stroke:none; fill:#a24dc9" d="M 285.6 66.4L 286.4 67.2L 285.6 66.4M 380 66.4C 378.497 79.8571 380 94.4152 380 108L 380.8 108L 380.8 80C 380.8 75.7198 381.668 70.3753 380 66.4M 404 66.4L 404.8 67.2L 404 66.4z"/>
<path style="stroke:none; fill:#c899df" d="M 418.4 66.4L 419.2 67.2L 418.4 66.4M 489.6 66.4L 490.4 67.2L 489.6 66.4z"/>
<path style="stroke:none; fill:#ae92cc" d="M 554.4 66.4L 554.4 68.8L 555.2 68.8C 554.999 67.6386 554.948 67.3988 554.4 66.4z"/>
<path style="stroke:none; fill:#a24dc9" d="M 570.4 66.4L 571.2 67.2L 570.4 66.4z"/>
<path style="stroke:none; fill:#8135e3" d="M 113.334 67.4666C 112.978 67.8222 113.822 67.7778 113.866 67.7334C 114.222 67.3778 113.378 67.4222 113.334 67.4666z"/>
<path style="stroke:none; fill:#af6fd1" d="M 148.534 67.4666C 148.178 67.8222 149.022 67.7778 149.066 67.7334C 149.422 67.3778 148.578 67.4222 148.534 67.4666M 269.866 67.7334C 269.822 67.7778 269.778 68.6222 270.134 68.2666C 270.178 68.2222 270.222 67.3778 269.866 67.7334M 287.2 67.2L 288 68L 287.2 67.2z"/>
<path style="stroke:none; fill:#c899df" d="M 353.6 67.2L 354.4 68L 353.6 67.2z"/>
<path style="stroke:none; fill:#a24dc9" d="M 366.4 67.2L 367.2 68L 366.4 67.2z"/>
<path style="stroke:none; fill:#c899df" d="M 379.2 67.2L 380 68L 379.2 67.2M 404 67.2L 404.8 68L 404 67.2M 451.2 67.2L 452 68L 451.2 67.2M 491.2 67.2L 492 68L 491.2 67.2z"/>
<path style="stroke:none; fill:#af6fd1" d="M 572 67.2L 572.8 68L 572 67.2z"/>
<path style="stroke:none; fill:#785b9f" d="M 53.6 68L 53.6 71.2L 54.4 71.2C 54.2607 69.8518 54.1464 69.2048 53.6 68z"/>
<path style="stroke:none; fill:#8135e3" d="M 110.134 68.2666C 109.778 68.6222 110.622 68.5778 110.666 68.5334C 111.022 68.1778 110.178 68.2222 110.134 68.2666z"/>
<path style="stroke:none; fill:#a24dc9" d="M 164 68L 164 70.4L 164.8 70.4C 164.599 69.2388 164.548 68.9986 164 68z"/>
<path style="stroke:none; fill:#af6fd1" d="M 199.2 68L 200 68.8L 199.2 68z"/>
<path style="stroke:none; fill:#a24dc9" d="M 213.6 68L 214.4 68.8L 213.6 68z"/>
<path style="stroke:none; fill:#c899df" d="M 247.2 68L 248 68.8L 247.2 68M 288.8 68L 289.6 68.8L 288.8 68z"/>
<path style="stroke:none; fill:#af6fd1" d="M 289.6 68L 290.4 68.8L 289.6 68z"/>
<path style="stroke:none; fill:#c899df" d="M 366.4 68L 367.2 68.8L 366.4 68z"/>
<path style="stroke:none; fill:#af6fd1" d="M 465.6 68L 466.4 68.8L 465.6 68z"/>
<path style="stroke:none; fill:#c899df" d="M 493.6 68L 494.4 68.8L 493.6 68z"/>
<path style="stroke:none; fill:#a24dc9" d="M 494.4 68L 495.2 68.8L 494.4 68z"/>
<path style="stroke:none; fill:#c899df" d="M 573.6 68L 574.4 68.8L 573.6 68z"/>
<path style="stroke:none; fill:#af6fd1" d="M 574.4 68L 575.2 68.8L 574.4 68z"/>
<path style="stroke:none; fill:#8135e3" d="M 106.934 69.0666C 106.578 69.4222 107.422 69.3778 107.466 69.3334C 107.822 68.9778 106.978 69.0222 106.934 69.0666z"/>
<path style="stroke:none; fill:#6201db" d="M 100 71.2L 100 96.8C 92.568 96.8 85.7376 96.1472 78.4 95.2C 78.4 100.455 77.384 106.891 78.6543 112C 79.7809 116.53 83.4488 118.1 82.4 123.2C 90.2304 126.46 96.9224 129.528 105.6 129.6C 105.6 124.954 103.384 120.151 103.446 116.04C 103.539 109.81 105.6 102.805 105.6 96L 109.6 96L 109.6 68.8L 100 71.2z"/>
<path style="stroke:none; fill:#af6fd1" d="M 261.866 69.3334C 261.822 69.3777 261.778 70.2222 262.134 69.8666C 262.178 69.8222 262.222 68.9778 261.866 69.3334z"/>
<path style="stroke:none; fill:#c899df" d="M 292 68.8L 292.8 69.6L 292 68.8z"/>
<path style="stroke:none; fill:#a24dc9" d="M 292.8 68.8L 293.6 69.6L 292.8 68.8z"/>
<path style="stroke:none; fill:#c899df" d="M 341.6 68.8L 342.4 69.6L 341.6 68.8z"/>
<path style="stroke:none; fill:#af6fd1" d="M 354.4 68.8L 355.2 69.6L 354.4 68.8M 417.6 68.8L 418.4 69.6L 417.6 68.8z"/>
<path style="stroke:none; fill:#c899df" d="M 452 68.8L 452.8 69.6L 452 68.8M 474.4 68.8L 475.2 69.6L 474.4 68.8M 496 68.8L 496.8 69.6L 496 68.8z"/>
<path style="stroke:none; fill:#af6fd1" d="M 496.8 68.8L 497.6 69.6L 496.8 68.8z"/>
<path style="stroke:none; fill:#c899df" d="M 576.8 68.8L 577.6 69.6L 576.8 68.8z"/>
<path style="stroke:none; fill:#af6fd1" d="M 577.6 68.8L 578.4 69.6L 577.6 68.8z"/>
<path style="stroke:none; fill:#8135e3" d="M 104.534 69.8666C 104.178 70.2222 105.022 70.1778 105.066 70.1334C 105.422 69.7778 104.578 69.8222 104.534 69.8666z"/>
<path style="stroke:none; fill:#c899df" d="M 212.8 69.6L 213.6 70.4L 212.8 69.6z"/>
<path style="stroke:none; fill:#af6fd1" d="M 295.734 69.8666C 295.378 70.2223 296.222 70.1778 296.266 70.1334C 296.622 69.7779 295.778 69.8222 295.734 69.8666M 365.6 69.6L 366.4 70.4L 365.6 69.6M 378.4 69.6L 379.2 70.4L 378.4 69.6z"/>
<path style="stroke:none; fill:#c899df" d="M 403.466 70.1334C 403.422 70.1777 403.378 71.0222 403.734 70.6666C 403.778 70.6222 403.822 69.7778 403.466 70.1334z"/>
<path style="stroke:none; fill:#af6fd1" d="M 452 69.6L 452.8 70.4L 452 69.6M 474.4 69.6L 475.2 70.4L 474.4 69.6M 499.734 69.8666C 499.378 70.2222 500.222 70.1778 500.266 70.1334C 500.622 69.7778 499.778 69.8222 499.734 69.8666M 580.534 69.8666C 580.178 70.2222 581.022 70.1778 581.066 70.1334C 581.422 69.7778 580.578 69.8222 580.534 69.8666z"/>
<path style="stroke:none; fill:#28039d" d="M 100 96.8L 100 71.2C 91.3544 72.8051 82.2728 72.1138 73.6 71.0759C 69.1837 70.5474 63.2811 69.21 59.287 71.8864C 52.487 76.4431 58.7196 84.4248 63.2315 87.8728C 74.0961 96.176 86.9488 96.8 100 96.8z"/>
<path style="stroke:none; fill:#785b9f" d="M 71.2 70.4L 71.2 71.2L 73.6 71.2C 72.6013 70.6522 72.3613 70.601 71.2 70.4z"/>
<path style="stroke:none; fill:#a24dc9" d="M 100 70.4L 100 71.2L 102.4 71.2C 101.402 70.6522 101.162 70.601 100 70.4z"/>
<path style="stroke:none; fill:#c899df" d="M 164 70.4L 164 73.6L 164.8 73.6C 164.661 72.2518 164.546 71.6048 164 70.4z"/>
<path style="stroke:none; fill:#a24dc9" d="M 212.8 70.4L 213.6 71.2L 212.8 70.4z"/>
<path style="stroke:none; fill:#c899df" d="M 248 70.4L 248.8 71.2L 248 70.4z"/>
<path style="stroke:none; fill:#af6fd1" d="M 270.4 70.4L 271.2 71.2L 270.4 70.4z"/>
<path style="stroke:none; fill:#c899df" d="M 298.4 70.4L 299.2 71.2L 298.4 70.4z"/>
<path style="stroke:none; fill:#af6fd1" d="M 299.2 70.4L 300 71.2L 299.2 70.4M 503.2 70.4L 504 71.2L 503.2 70.4M 555.2 70.4L 556 71.2L 555.2 70.4z"/>
<path style="stroke:none; fill:#c899df" d="M 583.2 70.4L 584 71.2L 583.2 70.4z"/>
<path style="stroke:none; fill:#af6fd1" d="M 584 70.4L 584.8 71.2L 584 70.4z"/>
<path style="stroke:none; fill:#8135e3" d="M 77.6 71.2L 77.6 72L 80 72C 79.0014 71.4522 78.7613 71.401 77.6 71.2z"/>
<path style="stroke:none; fill:#8a759b" d="M 80 71.2L 80 72L 84 72C 82.5848 71.3769 81.5712 71.2701 80 71.2z"/>
<path style="stroke:none; fill:#8135e3" d="M 96 71.2L 96 72L 98.4 72C 97.4016 71.4522 97.1616 71.401 96 71.2z"/>
<path style="stroke:none; fill:#af6fd1" d="M 198.666 71.7334C 198.622 71.7778 198.578 72.6222 198.934 72.2666C 198.978 72.2222 199.022 71.3778 198.666 71.7334z"/>
<path style="stroke:none; fill:#c899df" d="M 301.6 71.2L 302.4 72L 301.6 71.2z"/>
<path style="stroke:none; fill:#af6fd1" d="M 342.4 71.2L 343.2 72L 342.4 71.2z"/>
<path style="stroke:none; fill:#c899df" d="M 355.2 71.2L 356 72L 355.2 71.2z"/>
<path style="stroke:none; fill:#a24dc9" d="M 364.8 71.2L 365.6 72L 364.8 71.2z"/>
<path style="stroke:none; fill:#c899df" d="M 377.6 71.2L 378.4 72L 377.6 71.2z"/>
<path style="stroke:none; fill:#a24dc9" d="M 417.066 71.7334C 417.022 71.7778 416.978 72.6222 417.334 72.2666C 417.378 72.2222 417.422 71.3778 417.066 71.7334z"/>
<path style="stroke:none; fill:#c899df" d="M 453.066 71.7334C 453.022 71.7778 452.978 72.6222 453.334 72.2666C 453.378 72.2223 453.422 71.3777 453.066 71.7334z"/>
<path style="stroke:none; fill:#af6fd1" d="M 466.4 71.2L 466.4 73.6L 467.2 73.6C 466.999 72.4387 466.948 72.1987 466.4 71.2z"/>
<path style="stroke:none; fill:#c899df" d="M 475.2 71.2L 476 72L 475.2 71.2M 505.6 71.2L 506.4 72L 505.6 71.2z"/>
<path style="stroke:none; fill:#af6fd1" d="M 506.4 71.2L 507.2 72L 506.4 71.2z"/>
<path style="stroke:none; fill:#c899df" d="M 586.4 71.2L 587.2 72L 586.4 71.2z"/>
<path style="stroke:none; fill:#a24dc9" d="M 587.2 71.2L 588 72L 587.2 71.2z"/>
<path style="stroke:none; fill:#c899df" d="M 271.2 72L 272 72.8L 271.2 72M 304 72L 304.8 72.8L 304 72M 364.8 72L 365.6 72.8L 364.8 72M 508 72L 508.8 72.8L 508 72z"/>
<path style="stroke:none; fill:#af6fd1" d="M 508.8 72L 509.6 72.8L 508.8 72M 556 72L 556.8 72.8L 556 72z"/>
<path style="stroke:none; fill:#c899df" d="M 588.8 72L 589.6 72.8L 588.8 72z"/>
<path style="stroke:none; fill:#a24dc9" d="M 589.6 72L 590.4 72.8L 589.6 72z"/>
<path style="stroke:none; fill:#c899df" d="M 198.666 73.3334C 198.622 73.3778 198.578 74.2222 198.934 73.8666C 198.978 73.8222 199.022 72.9778 198.666 73.3334z"/>
<path style="stroke:none; fill:#af6fd1" d="M 212.266 73.3334C 212.222 73.3778 212.178 74.2222 212.534 73.8666C 212.578 73.8222 212.622 72.9778 212.266 73.3334z"/>
<path style="stroke:none; fill:#c899df" d="M 249.066 73.3334C 249.022 73.3778 248.978 74.2222 249.334 73.8666C 249.378 73.8222 249.422 72.9778 249.066 73.3334z"/>
<path style="stroke:none; fill:#a24dc9" d="M 262.666 73.3334C 262.622 73.3778 262.578 74.2222 262.934 73.8666C 262.978 73.8222 263.022 72.9778 262.666 73.3334z"/>
<path style="stroke:none; fill:#af6fd1" d="M 306.4 72.8L 307.2 73.6L 306.4 72.8z"/>
<path style="stroke:none; fill:#c899df" d="M 343.2 72.8L 344 73.6L 343.2 72.8z"/>
<path style="stroke:none; fill:#af6fd1" d="M 356 72.8L 356.8 73.6L 356 72.8z"/>
<path style="stroke:none; fill:#a135d3" d="M 453.066 73.3334C 453.022 73.3778 452.978 74.2222 453.334 73.8666C 453.378 73.8223 453.422 72.9777 453.066 73.3334z"/>
<path style="stroke:none; fill:#af6fd1" d="M 476 72.8L 476.8 73.6L 476 72.8z"/>
<path style="stroke:none; fill:#c899df" d="M 510.4 72.8L 511.2 73.6L 510.4 72.8z"/>
<path style="stroke:none; fill:#af6fd1" d="M 591.2 72.8L 592 73.6L 591.2 72.8z"/>
<path style="stroke:none; fill:#c899df" d="M 160.8 73.6L 161.6 74.4L 160.8 73.6z"/>
<path style="stroke:none; fill:#a24dc9" d="M 272 73.6L 272.8 74.4L 272 73.6z"/>
<path style="stroke:none; fill:#c899df" d="M 308 73.6L 308.8 74.4L 308 73.6z"/>
<path style="stroke:none; fill:#af6fd1" d="M 364 73.6L 364.8 74.4L 364 73.6M 376.8 73.6L 377.6 74.4L 376.8 73.6z"/>
<path style="stroke:none; fill:#a24dc9" d="M 402.4 73.6L 402.4 80L 403.2 80C 403.194 77.7316 403.278 75.6902 402.4 73.6z"/>
<path style="stroke:none; fill:#c899df" d="M 512 73.6L 512.8 74.4L 512 73.6z"/>
<path style="stroke:none; fill:#a24dc9" d="M 512.8 73.6L 513.6 74.4L 512.8 73.6z"/>
<path style="stroke:none; fill:#c899df" d="M 592.8 73.6L 593.6 74.4L 592.8 73.6z"/>
<path style="stroke:none; fill:#a135d3" d="M 212 74.4L 212 79.2L 212.8 79.2C 212.762 77.3978 212.699 76.0417 212 74.4z"/>
<path style="stroke:none; fill:#af6fd1" d="M 248.8 74.4L 248.8 80L 249.6 80C 249.585 77.9654 249.588 76.2653 248.8 74.4M 262.4 74.4L 262.4 80L 263.2 80C 263.185 77.9654 263.188 76.2653 262.4 74.4M 272.8 74.4L 273.6 75.2L 272.8 74.4M 309.6 74.4L 310.4 75.2L 309.6 74.4z"/>
<path style="stroke:none; fill:#c899df" d="M 416 74.4L 416 80L 416.8 80C 416.785 77.9653 416.788 76.2653 416 74.4M 513.6 74.4L 514.4 75.2L 513.6 74.4z"/>
<path style="stroke:none; fill:#af6fd1" d="M 557.6 74.4L 558.4 75.2L 557.6 74.4z"/>
<path style="stroke:none; fill:#ae92cc" d="M 594.4 74.4L 595.2 75.2L 594.4 74.4z"/>
<path style="stroke:none; fill:#c899df" d="M 273.6 75.2L 274.4 76L 273.6 75.2z"/>
<path style="stroke:none; fill:#af6fd1" d="M 344 75.2L 344.8 76L 344 75.2z"/>
<path style="stroke:none; fill:#c899df" d="M 356.8 75.2L 357.6 76L 356.8 75.2z"/>
<path style="stroke:none; fill:#a24dc9" d="M 363.2 75.2L 364 76L 363.2 75.2z"/>
<path style="stroke:none; fill:#c899df" d="M 376 75.2L 376.8 76L 376 75.2z"/>
<path style="stroke:none; fill:#af6fd1" d="M 515.2 75.2L 516 76L 515.2 75.2M 558.4 75.2L 559.2 76L 558.4 75.2z"/>
<path style="stroke:none; fill:#a24dc9" d="M 596 75.2L 596.8 76L 596 75.2z"/>
<path style="stroke:none; fill:#fc5edf" d="M 161.6 76L 161.6 78.4L 162.4 78.4C 162.199 77.2387 162.148 76.9987 161.6 76z"/>
<path style="stroke:none; fill:#af6fd1" d="M 274.4 76L 275.2 76.8L 274.4 76M 312 76L 312.8 76.8L 312 76z"/>
<path style="stroke:none; fill:#c899df" d="M 363.2 76L 364 76.8L 363.2 76z"/>
<path style="stroke:none; fill:#af6fd1" d="M 559.2 76L 560 76.8L 559.2 76M 596.8 76L 597.6 76.8L 596.8 76z"/>
<path style="stroke:none; fill:#a24dc9" d="M 275.2 76.8L 276 77.6L 275.2 76.8z"/>
<path style="stroke:none; fill:#c899df" d="M 312.8 76.8L 313.6 77.6L 312.8 76.8M 344.8 76.8L 345.6 77.6L 344.8 76.8z"/>
<path style="stroke:none; fill:#af6fd1" d="M 357.6 76.8L 358.4 77.6L 357.6 76.8z"/>
<path style="stroke:none; fill:#c899df" d="M 480 76.8L 480.8 77.6L 480 76.8z"/>
<path style="stroke:none; fill:#a135d3" d="M 560 76.8L 560.8 77.6L 560 76.8z"/>
<path style="stroke:none; fill:#c899df" d="M 597.6 76.8L 598.4 77.6L 597.6 76.8M 276.8 77.6L 277.6 78.4L 276.8 77.6M 313.6 77.6L 314.4 78.4L 313.6 77.6z"/>
<path style="stroke:none; fill:#af6fd1" d="M 362.4 77.6L 363.2 78.4L 362.4 77.6z"/>
<path style="stroke:none; fill:#a24dc9" d="M 375.2 77.6L 376 78.4L 375.2 77.6z"/>
<path style="stroke:none; fill:#af6fd1" d="M 480.8 77.6L 481.6 78.4L 480.8 77.6z"/>
<path style="stroke:none; fill:#c899df" d="M 561.6 77.6L 562.4 78.4L 561.6 77.6M 598.4 77.6L 599.2 78.4L 598.4 77.6M 161.6 78.4L 161.6 83.2L 162.4 83.2C 162.362 81.3976 162.299 80.0416 161.6 78.4z"/>
<path style="stroke:none; fill:#a24dc9" d="M 277.6 78.4L 278.4 79.2L 277.6 78.4z"/>
<path style="stroke:none; fill:#c899df" d="M 314.4 78.4L 315.2 79.2L 314.4 78.4M 482.4 78.4L 483.2 79.2L 482.4 78.4z"/>
<path style="stroke:none; fill:#a24dc9" d="M 562.4 78.4L 563.2 79.2L 562.4 78.4z"/>
<path style="stroke:none; fill:#c899df" d="M 599.2 78.4L 600 79.2L 599.2 78.4z"/>
<path style="stroke:none; fill:#785b9f" d="M 56 79.2L 56 81.6L 56.8 81.6C 56.599 80.4384 56.5478 80.1984 56 79.2z"/>
<path style="stroke:none; fill:#fc5edf" d="M 160.8 79.2C 156.509 83.2928 156.601 89.0256 154.644 94.4C 151.747 102.354 146.782 110.813 140 116L 140.8 119.2C 151.003 113.302 166.114 91.892 160.8 79.2z"/>
<path style="stroke:none; fill:#af6fd1" d="M 212 79.2L 212 81.6L 212.8 81.6C 212.599 80.4384 212.548 80.1984 212 79.2z"/>
<path style="stroke:none; fill:#a24dc9" d="M 279.2 79.2L 280 80L 279.2 79.2M 315.2 79.2L 316 80L 315.2 79.2z"/>
<path style="stroke:none; fill:#af6fd1" d="M 345.6 79.2L 346.4 80L 345.6 79.2z"/>
<path style="stroke:none; fill:#c899df" d="M 358.4 79.2L 359.2 80L 358.4 79.2z"/>
<path style="stroke:none; fill:#a24dc9" d="M 361.6 79.2L 362.4 80L 361.6 79.2z"/>
<path style="stroke:none; fill:#c899df" d="M 374.4 79.2L 375.2 80L 374.4 79.2M 484 79.2L 484.8 80L 484 79.2z"/>
<path style="stroke:none; fill:#a24dc9" d="M 564 79.2L 564.8 80L 564 79.2z"/>
<path style="stroke:none; fill:#af6fd1" d="M 600 79.2L 600.8 80L 600 79.2z"/>
<path style="stroke:none; fill:#c899df" d="M 249.066 80.5336C 249.022 80.5776 248.978 81.4224 249.334 81.0664C 249.378 81.0224 249.422 80.1776 249.066 80.5336z"/>
<path style="stroke:none; fill:#a135d3" d="M 262.666 80.5336C 262.622 80.5776 262.578 81.4224 262.934 81.0664C 262.978 81.0224 263.022 80.1776 262.666 80.5336z"/>
<path style="stroke:none; fill:#a24dc9" d="M 280.8 80L 281.6 80.8L 280.8 80z"/>
<path style="stroke:none; fill:#c899df" d="M 281.6 80L 282.4 80.8L 281.6 80M 361.6 80L 362.4 80.8L 361.6 80z"/>
<path style="stroke:none; fill:#a24dc9" d="M 452.8 80L 452.8 82.4L 453.6 82.4C 453.399 81.2384 453.348 80.9984 452.8 80z"/>
<path style="stroke:none; fill:#af6fd1" d="M 485.6 80L 486.4 80.8L 485.6 80M 520 80L 520.8 80.8L 520 80z"/>
<path style="stroke:none; fill:#c899df" d="M 566.4 80L 567.2 80.8L 566.4 80z"/>
<path style="stroke:none; fill:#2103cf" d="M 56.8 80.8C 57.473 96.4752 67.1834 117.286 83.2 122.4C 83.0456 117.64 79.7229 115.498 78.6543 111.2C 77.5288 106.674 80.3056 99.56 77.5778 95.5992C 75.7269 92.912 70.7514 92.068 68 90.4968C 63.4819 87.9176 60.4458 84.3576 56.8 80.8z"/>
<path style="stroke:none; fill:#c899df" d="M 164 80.8L 164 83.2L 164.8 83.2C 164.599 82.0384 164.548 81.7984 164 80.8z"/>
<path style="stroke:none; fill:#af6fd1" d="M 198.4 80.8L 198.4 83.2L 199.2 83.2C 198.999 82.0384 198.948 81.7984 198.4 80.8M 283.2 80.8L 284 81.6L 283.2 80.8z"/>
<path style="stroke:none; fill:#c899df" d="M 284 80.8L 284.8 81.6L 284 80.8M 316 80.8L 316.8 81.6L 316 80.8M 346.4 80.8L 347.2 81.6L 346.4 80.8z"/>
<path style="stroke:none; fill:#af6fd1" d="M 359.2 80.8L 360 81.6L 359.2 80.8z"/>
<path style="stroke:none; fill:#c899df" d="M 488 80.8L 488.8 81.6L 488 80.8z"/>
<path style="stroke:none; fill:#a24dc9" d="M 568 80.8L 568.8 81.6L 568 80.8z"/>
<path style="stroke:none; fill:#c899df" d="M 568.8 80.8L 569.6 81.6L 568.8 80.8M 600.8 80.8L 601.6 81.6L 600.8 80.8z"/>
<path style="stroke:none; fill:#d208d0" d="M 133.6 97.6C 140.129 99.4544 139.23 105.404 132.8 106.4C 132.8 112.61 132.778 118.638 132 124.8C 136.284 123.007 140.882 121.303 140 116C 150.928 110.466 156.698 93.0168 157.6 81.6C 151.95 82.7664 138.874 84.1744 135.343 89.208C 133.846 91.3416 134.198 95.088 133.6 97.6z"/>
<path style="stroke:none; fill:#a24dc9" d="M 285.6 81.6L 286.4 82.4L 285.6 81.6z"/>
<path style="stroke:none; fill:#c899df" d="M 286.4 81.6L 287.2 82.4L 286.4 81.6z"/>
<path style="stroke:none; fill:#af6fd1" d="M 360.8 81.6L 361.6 82.4L 360.8 81.6z"/>
<path style="stroke:none; fill:#a24dc9" d="M 373.6 81.6L 374.4 82.4L 373.6 81.6z"/>
<path style="stroke:none; fill:#af6fd1" d="M 466.4 81.6L 466.4 84L 467.2 84C 466.999 82.8384 466.948 82.5984 466.4 81.6M 490.4 81.6L 491.2 82.4L 490.4 81.6z"/>
<path style="stroke:none; fill:#c899df" d="M 520.8 81.6L 521.6 82.4L 520.8 81.6z"/>
<path style="stroke:none; fill:#a24dc9" d="M 570.4 81.6L 571.2 82.4L 570.4 81.6z"/>
<path style="stroke:none; fill:#c899df" d="M 571.2 81.6L 572 82.4L 571.2 81.6z"/>
<path style="stroke:none; fill:#af6fd1" d="M 288.8 82.4L 289.6 83.2L 288.8 82.4z"/>
<path style="stroke:none; fill:#c899df" d="M 316.8 82.4L 317.6 83.2L 316.8 82.4M 417.066 82.9336C 417.022 82.9776 416.978 83.8224 417.334 83.4664C 417.378 83.4224 417.422 82.5776 417.066 82.9336z"/>
<path style="stroke:none; fill:#a24dc9" d="M 492.8 82.4L 493.6 83.2L 492.8 82.4z"/>
<path style="stroke:none; fill:#c899df" d="M 493.6 82.4L 494.4 83.2L 493.6 82.4z"/>
<path style="stroke:none; fill:#a24dc9" d="M 573.6 82.4L 574.4 83.2L 573.6 82.4z"/>
<path style="stroke:none; fill:#c899df" d="M 601.6 82.4L 602.4 83.2L 601.6 82.4z"/>
<path style="stroke:none; fill:#8135e3" d="M 53.6 83.2L 53.6 85.6L 54.4 85.6C 54.199 84.4384 54.1478 84.1984 53.6 83.2z"/>
<path style="stroke:none; fill:#a24dc9" d="M 164.266 83.7336C 164.222 83.7776 164.178 84.6224 164.534 84.2664C 164.578 84.2224 164.622 83.3776 164.266 83.7336M 248 83.2L 248.8 84L 248 83.2z"/>
<path style="stroke:none; fill:#c899df" d="M 292.534 83.4664C 292.178 83.8224 293.022 83.7776 293.066 83.7336C 293.422 83.3776 292.578 83.4224 292.534 83.4664z"/>
<path style="stroke:none; fill:#af6fd1" d="M 347.2 83.2L 348 84L 347.2 83.2z"/>
<path style="stroke:none; fill:#c899df" d="M 372.8 83.2L 373.6 84L 372.8 83.2M 403.2 83.2L 403.2 85.6L 404 85.6C 403.799 84.4384 403.748 84.1984 403.2 83.2z"/>
<path style="stroke:none; fill:#a24dc9" d="M 496 83.2L 496.8 84L 496 83.2z"/>
<path style="stroke:none; fill:#c899df" d="M 497.334 83.4664C 496.978 83.8224 497.822 83.7776 497.866 83.7336C 498.222 83.3776 497.378 83.4224 497.334 83.4664z"/>
<path style="stroke:none; fill:#a24dc9" d="M 521.6 83.2L 522.4 84L 521.6 83.2z"/>
<path style="stroke:none; fill:#c899df" d="M 577.334 83.4664C 576.978 83.8224 577.822 83.7776 577.866 83.7336C 578.222 83.3776 577.378 83.4224 577.334 83.4664z"/>
<path style="stroke:none; fill:#af6fd1" d="M 212.8 84L 213.6 84.8L 212.8 84z"/>
<path style="stroke:none; fill:#c899df" d="M 248 84L 248.8 84.8L 248 84z"/>
<path style="stroke:none; fill:#af6fd1" d="M 261.866 84.5336C 261.822 84.5776 261.778 85.4224 262.134 85.0664C 262.178 85.0224 262.222 84.1776 261.866 84.5336z"/>
<path style="stroke:none; fill:#a24dc9" d="M 295.2 84L 296 84.8L 295.2 84z"/>
<path style="stroke:none; fill:#c899df" d="M 296 84L 296.8 84.8L 296 84z"/>
<path style="stroke:none; fill:#a135d3" d="M 499.2 84L 500 84.8L 499.2 84z"/>
<path style="stroke:none; fill:#af6fd1" d="M 500 84L 500.8 84.8L 500 84z"/>
<path style="stroke:none; fill:#c899df" d="M 521.6 84L 522.4 84.8L 521.6 84z"/>
<path style="stroke:none; fill:#a24dc9" d="M 580 84L 580.8 84.8L 580 84z"/>
<path style="stroke:none; fill:#c899df" d="M 580.8 84L 581.6 84.8L 580.8 84z"/>
<path style="stroke:none; fill:#a24dc9" d="M 602.4 84L 603.2 84.8L 602.4 84z"/>
<path style="stroke:none; fill:#28039d" d="M 56.8 84.8L 56.8 87.2L 57.6 87.2C 57.399 86.0384 57.3478 85.7984 56.8 84.8z"/>
<path style="stroke:none; fill:#c899df" d="M 199.466 85.3336C 199.422 85.3776 199.378 86.2224 199.734 85.8664C 199.778 85.8224 199.822 84.9776 199.466 85.3336M 212.8 84.8L 213.6 85.6L 212.8 84.8M 298.4 84.8L 299.2 85.6L 298.4 84.8M 317.866 85.3336C 317.822 85.3776 317.778 86.2224 318.134 85.8664C 318.178 85.8224 318.222 84.9776 317.866 85.3336M 348 84.8L 348.8 85.6L 348 84.8M 372 84.8L 372.8 85.6L 372 84.8z"/>
<path style="stroke:none; fill:#af6fd1" d="M 452 84.8L 452.8 85.6L 452 84.8M 502.4 84.8L 503.2 85.6L 502.4 84.8z"/>
<path style="stroke:none; fill:#c899df" d="M 503.2 84.8L 504 85.6L 503.2 84.8z"/>
<path style="stroke:none; fill:#af6fd1" d="M 583.2 84.8L 584 85.6L 583.2 84.8z"/>
<path style="stroke:none; fill:#c899df" d="M 602.666 85.3336C 602.622 85.3776 602.578 86.2224 602.934 85.8664C 602.978 85.8224 603.022 84.9776 602.666 85.3336M 160.8 85.6L 160.8 88L 161.6 88C 161.399 86.8384 161.348 86.5984 160.8 85.6z"/>
<path style="stroke:none; fill:#a24dc9" d="M 247.2 85.6L 248 86.4L 247.2 85.6z"/>
<path style="stroke:none; fill:#c899df" d="M 300.8 85.6L 301.6 86.4L 300.8 85.6z"/>
<path style="stroke:none; fill:#a24dc9" d="M 372 85.6L 372.8 86.4L 372 85.6z"/>
<path style="stroke:none; fill:#c899df" d="M 417.6 85.6L 418.4 86.4L 417.6 85.6M 465.6 85.6L 466.4 86.4L 465.6 85.6z"/>
<path style="stroke:none; fill:#af6fd1" d="M 504.8 85.6L 505.6 86.4L 504.8 85.6z"/>
<path style="stroke:none; fill:#c899df" d="M 585.6 85.6L 586.4 86.4L 585.6 85.6z"/>
<path style="stroke:none; fill:#a24dc9" d="M 199.2 86.4L 200 87.2L 199.2 86.4z"/>
<path style="stroke:none; fill:#ae92cc" d="M 213.6 86.4L 214.4 87.2L 213.6 86.4z"/>
<path style="stroke:none; fill:#a24dc9" d="M 451.2 86.4L 452 87.2L 451.2 86.4z"/>
<path style="stroke:none; fill:#af6fd1" d="M 465.6 86.4L 466.4 87.2L 465.6 86.4z"/>
<path style="stroke:none; fill:#ae92cc" d="M 506.4 86.4L 507.2 87.2L 506.4 86.4z"/>
<path style="stroke:none; fill:#af6fd1" d="M 522.4 86.4L 522.4 92L 523.2 92C 523.185 89.9656 523.188 88.2656 522.4 86.4z"/>
<path style="stroke:none; fill:#c899df" d="M 587.2 86.4L 588 87.2L 587.2 86.4z"/>
<path style="stroke:none; fill:#785b9f" d="M 54.4 87.2L 54.4 89.6L 55.2 89.6C 54.999 88.4384 54.9478 88.1984 54.4 87.2z"/>
<path style="stroke:none; fill:#ae92cc" d="M 163.466 87.7336C 163.422 87.7776 163.378 88.6224 163.734 88.2664C 163.778 88.2224 163.822 87.3776 163.466 87.7336z"/>
<path style="stroke:none; fill:#c899df" d="M 260.8 87.2L 261.6 88L 260.8 87.2M 303.2 87.2L 304 88L 303.2 87.2z"/>
<path style="stroke:none; fill:#af6fd1" d="M 348.8 87.2L 349.6 88L 348.8 87.2z"/>
<path style="stroke:none; fill:#c899df" d="M 371.2 87.2L 372 88L 371.2 87.2z"/>
<path style="stroke:none; fill:#ae92cc" d="M 404 87.2L 404.8 88L 404 87.2z"/>
<path style="stroke:none; fill:#af6fd1" d="M 418.4 87.2L 419.2 88L 418.4 87.2z"/>
<path style="stroke:none; fill:#a24dc9" d="M 507.2 87.2L 508 88L 507.2 87.2z"/>
<path style="stroke:none; fill:#c899df" d="M 588 87.2L 588.8 88L 588 87.2M 200 88L 200.8 88.8L 200 88z"/>
<path style="stroke:none; fill:#af6fd1" d="M 214.4 88L 215.2 88.8L 214.4 88z"/>
<path style="stroke:none; fill:#a24dc9" d="M 260.8 88L 261.6 88.8L 260.8 88z"/>
<path style="stroke:none; fill:#c899df" d="M 304 88L 304.8 88.8L 304 88z"/>
<path style="stroke:none; fill:#a24dc9" d="M 450.4 88L 451.2 88.8L 450.4 88M 508 88L 508.8 88.8L 508 88z"/>
<path style="stroke:none; fill:#c899df" d="M 588.8 88L 589.6 88.8L 588.8 88z"/>
<path style="stroke:none; fill:#9d01c7" d="M 112 124L 112 124.8C 113.266 126.446 113.461 127.51 113.6 129.6C 116.323 129.482 118.938 129.055 121.6 128.46C 132.622 125.993 134.199 119.524 132.685 108.8C 132.343 106.382 130.234 104.062 130.537 101.612C 130.996 97.8888 134.214 92.9424 135.2 88.8C 131.118 89.7672 116.681 92.4664 114.882 96.2424C 111.646 103.038 119.05 119.905 112 124z"/>
<path style="stroke:none; fill:#a24dc9" d="M 200 88.8L 200.8 89.6L 200 88.8M 245.6 88.8L 246.4 89.6L 245.6 88.8z"/>
<path style="stroke:none; fill:#c899df" d="M 349.6 88.8L 350.4 89.6L 349.6 88.8M 370.4 88.8L 371.2 89.6L 370.4 88.8M 419.2 88.8L 420 89.6L 419.2 88.8z"/>
<path style="stroke:none; fill:#af6fd1" d="M 464.8 88.8L 465.6 89.6L 464.8 88.8z"/>
<path style="stroke:none; fill:#c899df" d="M 508.8 88.8L 509.6 89.6L 508.8 88.8M 160.266 90.1336C 160.222 90.1776 160.178 91.0224 160.534 90.6664C 160.578 90.6224 160.622 89.7776 160.266 90.1336M 215.2 89.6L 216 90.4L 215.2 89.6M 260 89.6L 260.8 90.4L 260 89.6z"/>
<path style="stroke:none; fill:#af6fd1" d="M 275.2 89.6L 276 90.4L 275.2 89.6z"/>
<path style="stroke:none; fill:#c899df" d="M 304.8 89.6L 304.8 92L 305.6 92C 305.399 90.8384 305.348 90.5984 304.8 89.6z"/>
<path style="stroke:none; fill:#a24dc9" d="M 370.4 89.6L 371.2 90.4L 370.4 89.6z"/>
<path style="stroke:none; fill:#af6fd1" d="M 404.8 89.6L 405.6 90.4L 404.8 89.6z"/>
<path style="stroke:none; fill:#c899df" d="M 449.6 89.6L 450.4 90.4L 449.6 89.6M 478.934 89.8664C 478.578 90.2224 479.422 90.1776 479.466 90.1336C 479.822 89.7776 478.978 89.8224 478.934 89.8664z"/>
<path style="stroke:none; fill:#a24dc9" d="M 508.8 89.6L 508.8 92L 509.6 92C 509.399 90.8384 509.348 90.5984 508.8 89.6z"/>
<path style="stroke:none; fill:#af6fd1" d="M 560 89.6L 560.8 90.4L 560 89.6z"/>
<path style="stroke:none; fill:#c899df" d="M 589.6 89.6L 589.6 92L 590.4 92C 590.199 90.8384 590.148 90.5984 589.6 89.6z"/>
<path style="stroke:none; fill:#af6fd1" d="M 200.8 90.4L 201.6 91.2L 200.8 90.4M 216 90.4L 216.8 91.2L 216 90.4z"/>
<path style="stroke:none; fill:#c899df" d="M 273.6 90.4L 274.4 91.2L 273.6 90.4z"/>
<path style="stroke:none; fill:#af6fd1" d="M 276 90.4L 276.8 91.2L 276 90.4z"/>
<path style="stroke:none; fill:#a24dc9" d="M 448.8 90.4L 449.6 91.2L 448.8 90.4z"/>
<path style="stroke:none; fill:#c899df" d="M 464 90.4L 464.8 91.2L 464 90.4z"/>
<path style="stroke:none; fill:#a24dc9" d="M 477.6 90.4L 478.4 91.2L 477.6 90.4z"/>
<path style="stroke:none; fill:#c899df" d="M 558.4 90.4L 559.2 91.2L 558.4 90.4M 560.8 90.4L 561.6 91.2L 560.8 90.4z"/>
<path style="stroke:none; fill:#8135e3" d="M 55.4666 91.7336C 55.4222 91.7776 55.3778 92.6224 55.7334 92.2664C 55.7778 92.2224 55.8222 91.3776 55.4666 91.7336z"/>
<path style="stroke:none; fill:#ae92cc" d="M 162.4 91.2L 163.2 92L 162.4 91.2z"/>
<path style="stroke:none; fill:#a24dc9" d="M 216.8 91.2L 217.6 92L 216.8 91.2z"/>
<path style="stroke:none; fill:#c899df" d="M 244 91.2L 244.8 92L 244 91.2M 259.2 91.2L 260 92L 259.2 91.2z"/>
<path style="stroke:none; fill:#af6fd1" d="M 272.8 91.2L 273.6 92L 272.8 91.2z"/>
<path style="stroke:none; fill:#c899df" d="M 276.8 91.2L 277.6 92L 276.8 91.2z"/>
<path style="stroke:none; fill:#af6fd1" d="M 350.4 91.2L 351.2 92L 350.4 91.2z"/>
<path style="stroke:none; fill:#c899df" d="M 369.6 91.2L 370.4 92L 369.6 91.2M 405.6 91.2L 406.4 92L 405.6 91.2M 420.8 91.2L 421.6 92L 420.8 91.2z"/>
<path style="stroke:none; fill:#a24dc9" d="M 557.6 91.2L 558.4 92L 557.6 91.2z"/>
<path style="stroke:none; fill:#c899df" d="M 561.6 91.2L 562.4 92L 561.6 91.2M 201.6 92L 202.4 92.8L 201.6 92M 243.2 92L 244 92.8L 243.2 92z"/>
<path style="stroke:none; fill:#ae92cc" d="M 317.6 92L 317.6 94.4L 318.4 94.4C 318.199 93.2384 318.148 92.9984 317.6 92z"/>
<path style="stroke:none; fill:#c899df" d="M 421.6 92L 422.4 92.8L 421.6 92M 463.2 92L 464 92.8L 463.2 92M 476.8 92L 477.6 92.8L 476.8 92z"/>
<path style="stroke:none; fill:#af6fd1" d="M 482.4 92L 483.2 92.8L 482.4 92z"/>
<path style="stroke:none; fill:#c899df" d="M 508.8 92L 509.6 92.8L 508.8 92M 602.4 92L 602.4 94.4L 603.2 94.4C 602.999 93.2384 602.948 92.9984 602.4 92z"/>
<path style="stroke:none; fill:#a24dc9" d="M 218.4 92.8L 219.2 93.6L 218.4 92.8z"/>
<path style="stroke:none; fill:#c899df" d="M 242.4 92.8L 243.2 93.6L 242.4 92.8M 258.4 92.8L 259.2 93.6L 258.4 92.8z"/>
<path style="stroke:none; fill:#af6fd1" d="M 279.2 92.8L 280 93.6L 279.2 92.8M 304 92.8L 304.8 93.6L 304 92.8z"/>
<path style="stroke:none; fill:#c899df" d="M 351.2 92.8L 352 93.6L 351.2 92.8M 368.8 92.8L 369.6 93.6L 368.8 92.8M 406.4 92.8L 407.2 93.6L 406.4 92.8M 422.4 92.8L 423.2 93.6L 422.4 92.8z"/>
<path style="stroke:none; fill:#a24dc9" d="M 476 92.8L 476.8 93.6L 476 92.8z"/>
<path style="stroke:none; fill:#c899df" d="M 483.2 92.8L 484 93.6L 483.2 92.8M 556.8 92.8L 557.6 93.6L 556.8 92.8z"/>
<path style="stroke:none; fill:#af6fd1" d="M 564 92.8L 564.8 93.6L 564 92.8M 588.8 92.8L 589.6 93.6L 588.8 92.8z"/>
<path style="stroke:none; fill:#ae92cc" d="M 161.6 93.6L 162.4 94.4L 161.6 93.6z"/>
<path style="stroke:none; fill:#af6fd1" d="M 202.4 93.6L 203.2 94.4L 202.4 93.6M 219.2 93.6L 220 94.4L 219.2 93.6z"/>
<path style="stroke:none; fill:#c899df" d="M 241.6 93.6L 242.4 94.4L 241.6 93.6M 271.2 93.6L 272 94.4L 271.2 93.6z"/>
<path style="stroke:none; fill:#a24dc9" d="M 368.8 93.6L 369.6 94.4L 368.8 93.6z"/>
<path style="stroke:none; fill:#af6fd1" d="M 445.6 93.6L 446.4 94.4L 445.6 93.6z"/>
<path style="stroke:none; fill:#c899df" d="M 462.4 93.6L 463.2 94.4L 462.4 93.6z"/>
<path style="stroke:none; fill:#af6fd1" d="M 484.8 93.6L 485.6 94.4L 484.8 93.6z"/>
<path style="stroke:none; fill:#c899df" d="M 508 93.6L 508.8 94.4L 508 93.6z"/>
<path style="stroke:none; fill:#af6fd1" d="M 521.866 94.1336C 521.822 94.1776 521.778 95.0224 522.134 94.6664C 522.178 94.6224 522.222 93.7776 521.866 94.1336M 556 93.6L 556.8 94.4L 556 93.6z"/>
<path style="stroke:none; fill:#a24dc9" d="M 565.6 93.6L 566.4 94.4L 565.6 93.6z"/>
<path style="stroke:none; fill:#c899df" d="M 220 94.4L 220.8 95.2L 220 94.4z"/>
<path style="stroke:none; fill:#a24dc9" d="M 240 94.4L 240.8 95.2L 240 94.4z"/>
<path style="stroke:none; fill:#c899df" d="M 257.6 94.4L 258.4 95.2L 257.6 94.4z"/>
<path style="stroke:none; fill:#a135d3" d="M 270.4 94.4L 271.2 95.2L 270.4 94.4z"/>
<path style="stroke:none; fill:#c899df" d="M 281.6 94.4L 282.4 95.2L 281.6 94.4z"/>
<path style="stroke:none; fill:#af6fd1" d="M 407.2 94.4L 408 95.2L 407.2 94.4M 424.8 94.4L 425.6 95.2L 424.8 94.4z"/>
<path style="stroke:none; fill:#c899df" d="M 444.8 94.4L 445.6 95.2L 444.8 94.4z"/>
<path style="stroke:none; fill:#af6fd1" d="M 486.4 94.4L 487.2 95.2L 486.4 94.4M 507.2 94.4L 508 95.2L 507.2 94.4z"/>
<path style="stroke:none; fill:#a24dc9" d="M 203.2 95.2L 204 96L 203.2 95.2z"/>
<path style="stroke:none; fill:#c899df" d="M 221.6 95.2L 222.4 96L 221.6 95.2z"/>
<path style="stroke:none; fill:#a24dc9" d="M 238.4 95.2L 239.2 96L 238.4 95.2z"/>
<path style="stroke:none; fill:#c899df" d="M 283.2 95.2L 284 96L 283.2 95.2z"/>
<path style="stroke:none; fill:#a24dc9" d="M 284 95.2L 284.8 96L 284 95.2M 301.6 95.2L 302.4 96L 301.6 95.2z"/>
<path style="stroke:none; fill:#c899df" d="M 316.8 95.2L 317.6 96L 316.8 95.2z"/>
<path style="stroke:none; fill:#af6fd1" d="M 352 95.2L 352.8 96L 352 95.2z"/>
<path style="stroke:none; fill:#c899df" d="M 368 95.2L 368.8 96L 368 95.2z"/>
<path style="stroke:none; fill:#a24dc9" d="M 426.4 95.2L 427.2 96L 426.4 95.2z"/>
<path style="stroke:none; fill:#c899df" d="M 443.2 95.2L 444 96L 443.2 95.2z"/>
<path style="stroke:none; fill:#af6fd1" d="M 461.6 95.2L 462.4 96L 461.6 95.2M 474.4 95.2L 475.2 96L 474.4 95.2M 488 95.2L 488.8 96L 488 95.2z"/>
<path style="stroke:none; fill:#c899df" d="M 506.4 95.2L 507.2 96L 506.4 95.2z"/>
<path style="stroke:none; fill:#a24dc9" d="M 568.8 95.2L 569.6 96L 568.8 95.2z"/>
<path style="stroke:none; fill:#c899df" d="M 160 96C 156.511 103.322 150.165 109.323 145.6 116C 154.45 115.333 158.802 103.211 161.6 96L 160 96M 204 96L 204.8 96.8L 204 96M 223.2 96L 224 96.8L 223.2 96z"/>
<path style="stroke:none; fill:#af6fd1" d="M 236.8 96L 237.6 96.8L 236.8 96z"/>
<path style="stroke:none; fill:#a135d3" d="M 256.8 96L 257.6 96.8L 256.8 96z"/>
<path style="stroke:none; fill:#c899df" d="M 269.6 96L 270.4 96.8L 269.6 96M 285.6 96L 286.4 96.8L 285.6 96z"/>
<path style="stroke:none; fill:#a24dc9" d="M 286.4 96L 287.2 96.8L 286.4 96M 300 96L 300.8 96.8L 300 96z"/>
<path style="stroke:none; fill:#c899df" d="M 300.8 96L 301.6 96.8L 300.8 96z"/>
<path style="stroke:none; fill:#af6fd1" d="M 316.8 96L 317.6 96.8L 316.8 96M 428 96L 428.8 96.8L 428 96z"/>
<path style="stroke:none; fill:#a24dc9" d="M 440.8 96L 441.6 96.8L 440.8 96z"/>
<path style="stroke:none; fill:#c899df" d="M 441.6 96L 442.4 96.8L 441.6 96M 460.8 96L 461.6 96.8L 460.8 96M 489.6 96L 490.4 96.8L 489.6 96z"/>
<path style="stroke:none; fill:#af6fd1" d="M 490.4 96L 491.2 96.8L 490.4 96M 504.8 96L 505.6 96.8L 504.8 96z"/>
<path style="stroke:none; fill:#c899df" d="M 554.4 96L 555.2 96.8L 554.4 96M 570.4 96L 571.2 96.8L 570.4 96z"/>
<path style="stroke:none; fill:#a24dc9" d="M 571.2 96L 572 96.8L 571.2 96z"/>
<path style="stroke:none; fill:#c899df" d="M 585.6 96L 586.4 96.8L 585.6 96z"/>
<path style="stroke:none; fill:#af6fd1" d="M 601.6 96L 602.4 96.8L 601.6 96z"/>
<path style="stroke:none; fill:#8135e3" d="M 60 96.8L 60.8 97.6L 60 96.8z"/>
<path style="stroke:none; fill:#af6fd1" d="M 225.6 96.8L 225.6 97.6L 228 97.6C 227.002 97.052 226.762 97.0008 225.6 96.8z"/>
<path style="stroke:none; fill:#a24dc9" d="M 232.8 96.8L 232.8 97.6L 235.2 97.6C 234.202 97.052 233.962 97.0008 232.8 96.8z"/>
<path style="stroke:none; fill:#af6fd1" d="M 256 96.8L 256.8 97.6L 256 96.8z"/>
<path style="stroke:none; fill:#a24dc9" d="M 268.8 96.8L 269.6 97.6L 268.8 96.8z"/>
<path style="stroke:none; fill:#c899df" d="M 288.534 97.0664C 288.178 97.4224 289.022 97.3776 289.066 97.3336C 289.422 96.9776 288.578 97.0224 288.534 97.0664z"/>
<path style="stroke:none; fill:#a24dc9" d="M 290.134 97.0664C 289.778 97.4224 290.622 97.3776 290.666 97.3336C 291.022 96.9776 290.178 97.0224 290.134 97.0664z"/>
<path style="stroke:none; fill:#af6fd1" d="M 296.8 96.8L 296.8 97.6L 299.2 97.6C 298.202 97.052 297.962 97.0008 296.8 96.8z"/>
<path style="stroke:none; fill:#c899df" d="M 352.8 96.8L 353.6 97.6L 352.8 96.8M 367.2 96.8L 368 97.6L 367.2 96.8z"/>
<path style="stroke:none; fill:#af6fd1" d="M 408.8 96.8L 409.6 97.6L 408.8 96.8z"/>
<path style="stroke:none; fill:#a24dc9" d="M 430.934 97.0664C 430.578 97.4224 431.422 97.3776 431.466 97.3336C 431.822 96.9776 430.978 97.0224 430.934 97.0664z"/>
<path style="stroke:none; fill:#af6fd1" d="M 437.6 96.8L 437.6 97.6L 440 97.6C 439.002 97.052 438.762 97.0008 437.6 96.8M 493.334 97.0664C 492.978 97.4224 493.822 97.3776 493.866 97.3336C 494.222 96.9776 493.378 97.0224 493.334 97.0664z"/>
<path style="stroke:none; fill:#a135d3" d="M 494.934 97.0664C 494.578 97.4224 495.422 97.3776 495.466 97.3336C 495.822 96.9776 494.978 97.0224 494.934 97.0664z"/>
<path style="stroke:none; fill:#af6fd1" d="M 502.134 97.0664C 501.778 97.4224 502.622 97.3776 502.666 97.3336C 503.022 96.9776 502.178 97.0224 502.134 97.0664M 520.8 96.8L 521.6 97.6L 520.8 96.8z"/>
<path style="stroke:none; fill:#a24dc9" d="M 553.6 96.8L 554.4 97.6L 553.6 96.8z"/>
<path style="stroke:none; fill:#c899df" d="M 573.334 97.0664C 572.978 97.4224 573.822 97.3776 573.866 97.3336C 574.222 96.9776 573.378 97.0224 573.334 97.0664z"/>
<path style="stroke:none; fill:#a24dc9" d="M 574.934 97.0664C 574.578 97.4224 575.422 97.3776 575.466 97.3336C 575.822 96.9776 574.978 97.0224 574.934 97.0664M 581.6 96.8L 581.6 97.6L 584 97.6C 583.002 97.052 582.762 97.0008 581.6 96.8z"/>
<path style="stroke:none; fill:#a135d3" d="M 138.4 99.2L 135.2 100.8C 135.747 99.536 135.844 99.3784 136.8 98.4C 133.026 96.8784 127.745 100.394 131.006 104.546C 134.915 109.522 139.558 103.598 138.4 99.2z"/>
<path style="stroke:none; fill:#c899df" d="M 255.2 97.6L 256 98.4L 255.2 97.6z"/>
<path style="stroke:none; fill:#ae92cc" d="M 316 97.6L 316.8 98.4L 316 97.6z"/>
<path style="stroke:none; fill:#a24dc9" d="M 367.2 97.6L 368 98.4L 367.2 97.6z"/>
<path style="stroke:none; fill:#c899df" d="M 409.6 97.6L 410.4 98.4L 409.6 97.6M 472.8 97.6L 473.6 98.4L 472.8 97.6M 600.8 97.6L 601.6 98.4L 600.8 97.6z"/>
<path style="stroke:none; fill:#fc5edf" d="M 135.2 100.8C 136.899 100.081 136.881 100.099 137.6 98.4C 135.709 98.7856 135.586 98.9088 135.2 100.8z"/>
<path style="stroke:none; fill:#af6fd1" d="M 160 98.4L 160.8 99.2L 160 98.4z"/>
<path style="stroke:none; fill:#c899df" d="M 410.4 98.4L 411.2 99.2L 410.4 98.4z"/>
<path style="stroke:none; fill:#a24dc9" d="M 459.2 98.4L 460 99.2L 459.2 98.4M 472 98.4L 472.8 99.2L 472 98.4z"/>
<path style="stroke:none; fill:#af6fd1" d="M 520 98.4L 520.8 99.2L 520 98.4z"/>
<path style="stroke:none; fill:#a24dc9" d="M 206.4 99.2L 207.2 100L 206.4 99.2z"/>
<path style="stroke:none; fill:#af6fd1" d="M 315.2 99.2L 316 100L 315.2 99.2M 353.6 99.2L 354.4 100L 353.6 99.2z"/>
<path style="stroke:none; fill:#ae92cc" d="M 366.4 99.2L 367.2 100L 366.4 99.2z"/>
<path style="stroke:none; fill:#af6fd1" d="M 458.4 99.2L 459.2 100L 458.4 99.2z"/>
<path style="stroke:none; fill:#c899df" d="M 472 99.2L 472.8 100L 472 99.2z"/>
<path style="stroke:none; fill:#af6fd1" d="M 600 99.2L 600.8 100L 600 99.2z"/>
<path style="stroke:none; fill:#a24dc9" d="M 207.2 100L 208 100.8L 207.2 100z"/>
<path style="stroke:none; fill:#c899df" d="M 314.4 100L 315.2 100.8L 314.4 100z"/>
<path style="stroke:none; fill:#af6fd1" d="M 457.6 100L 458.4 100.8L 457.6 100z"/>
<path style="stroke:none; fill:#c899df" d="M 472.8 100L 473.6 100.8L 472.8 100z"/>
<path style="stroke:none; fill:#a135d3" d="M 208 100.8L 208.8 101.6L 208 100.8z"/>
<path style="stroke:none; fill:#c899df" d="M 354.4 100.8L 355.2 101.6L 354.4 100.8M 365.6 100.8L 366.4 101.6L 365.6 100.8M 412.8 100.8L 413.6 101.6L 412.8 100.8z"/>
<path style="stroke:none; fill:#a24dc9" d="M 456.8 100.8L 457.6 101.6L 456.8 100.8z"/>
<path style="stroke:none; fill:#af6fd1" d="M 473.6 100.8L 474.4 101.6L 473.6 100.8M 518.4 100.8L 519.2 101.6L 518.4 100.8z"/>
<path style="stroke:none; fill:#c899df" d="M 251.2 101.6L 252 102.4L 251.2 101.6M 270.4 101.6L 271.2 102.4L 270.4 101.6z"/>
<path style="stroke:none; fill:#a24dc9" d="M 365.6 101.6L 366.4 102.4L 365.6 101.6z"/>
<path style="stroke:none; fill:#c899df" d="M 413.6 101.6L 414.4 102.4L 413.6 101.6z"/>
<path style="stroke:none; fill:#a24dc9" d="M 456 101.6L 456.8 102.4L 456 101.6M 474.4 101.6L 475.2 102.4L 474.4 101.6z"/>
<path style="stroke:none; fill:#c899df" d="M 517.6 101.6L 518.4 102.4L 517.6 101.6M 555.2 101.6L 556 102.4L 555.2 101.6M 210.4 102.4L 211.2 103.2L 210.4 102.4z"/>
<path style="stroke:none; fill:#af6fd1" d="M 250.4 102.4L 251.2 103.2L 250.4 102.4M 271.2 102.4L 272 103.2L 271.2 102.4M 414.4 102.4L 415.2 103.2L 414.4 102.4z"/>
<path style="stroke:none; fill:#c899df" d="M 516.8 102.4L 517.6 103.2L 516.8 102.4z"/>
<path style="stroke:none; fill:#af6fd1" d="M 556 102.4L 556.8 103.2L 556 102.4z"/>
<path style="stroke:none; fill:#a24dc9" d="M 597.6 102.4L 598.4 103.2L 597.6 102.4z"/>
<path style="stroke:none; fill:#8135e3" d="M 63.2 103.2L 64 104L 63.2 103.2z"/>
<path style="stroke:none; fill:#af6fd1" d="M 211.2 103.2L 212 104L 211.2 103.2z"/>
<path style="stroke:none; fill:#c899df" d="M 272.8 103.2L 273.6 104L 272.8 103.2z"/>
<path style="stroke:none; fill:#a24dc9" d="M 355.2 103.2L 356 104L 355.2 103.2z"/>
<path style="stroke:none; fill:#af6fd1" d="M 364.8 103.2L 365.6 104L 364.8 103.2z"/>
<path style="stroke:none; fill:#ae92cc" d="M 453.6 103.2L 454.4 104L 453.6 103.2z"/>
<path style="stroke:none; fill:#af6fd1" d="M 476.8 103.2L 477.6 104L 476.8 103.2M 516 103.2L 516.8 104L 516 103.2z"/>
<path style="stroke:none; fill:#c899df" d="M 557.6 103.2L 558.4 104L 557.6 103.2M 212.8 104L 213.6 104.8L 212.8 104M 248 104L 248.8 104.8L 248 104z"/>
<path style="stroke:none; fill:#a24dc9" d="M 273.6 104L 274.4 104.8L 273.6 104z"/>
<path style="stroke:none; fill:#c899df" d="M 310.4 104L 311.2 104.8L 310.4 104z"/>
<path style="stroke:none; fill:#af6fd1" d="M 416.8 104L 417.6 104.8L 416.8 104z"/>
<path style="stroke:none; fill:#c899df" d="M 478.4 104L 479.2 104.8L 478.4 104z"/>
<path style="stroke:none; fill:#a24dc9" d="M 558.4 104L 559.2 104.8L 558.4 104z"/>
<path style="stroke:none; fill:#c899df" d="M 595.2 104L 596 104.8L 595.2 104z"/>
<path style="stroke:none; fill:#a24dc9" d="M 213.6 104.8L 214.4 105.6L 213.6 104.8z"/>
<path style="stroke:none; fill:#c899df" d="M 246.4 104.8L 247.2 105.6L 246.4 104.8z"/>
<path style="stroke:none; fill:#af6fd1" d="M 275.2 104.8L 276 105.6L 275.2 104.8z"/>
<path style="stroke:none; fill:#a24dc9" d="M 309.6 104.8L 310.4 105.6L 309.6 104.8z"/>
<path style="stroke:none; fill:#c899df" d="M 356 104.8L 356.8 105.6L 356 104.8M 364 104.8L 364.8 105.6L 364 104.8M 418.4 104.8L 419.2 105.6L 418.4 104.8z"/>
<path style="stroke:none; fill:#af6fd1" d="M 451.2 104.8L 452 105.6L 451.2 104.8z"/>
<path style="stroke:none; fill:#c899df" d="M 480 104.8L 480.8 105.6L 480 104.8M 513.6 104.8L 514.4 105.6L 513.6 104.8z"/>
<path style="stroke:none; fill:#af6fd1" d="M 560 104.8L 560.8 105.6L 560 104.8z"/>
<path style="stroke:none; fill:#a24dc9" d="M 594.4 104.8L 595.2 105.6L 594.4 104.8M 215.2 105.6L 216 106.4L 215.2 105.6z"/>
<path style="stroke:none; fill:#c899df" d="M 244.8 105.6L 245.6 106.4L 244.8 105.6z"/>
<path style="stroke:none; fill:#af6fd1" d="M 276.8 105.6L 277.6 106.4L 276.8 105.6M 308 105.6L 308.8 106.4L 308 105.6z"/>
<path style="stroke:none; fill:#a24dc9" d="M 364 105.6L 364.8 106.4L 364 105.6z"/>
<path style="stroke:none; fill:#c899df" d="M 420 105.6L 420.8 106.4L 420 105.6z"/>
<path style="stroke:none; fill:#af6fd1" d="M 449.6 105.6L 450.4 106.4L 449.6 105.6z"/>
<path style="stroke:none; fill:#c899df" d="M 481.6 105.6L 482.4 106.4L 481.6 105.6M 512 105.6L 512.8 106.4L 512 105.6z"/>
<path style="stroke:none; fill:#af6fd1" d="M 561.6 105.6L 562.4 106.4L 561.6 105.6M 592.8 105.6L 593.6 106.4L 592.8 105.6z"/>
<path style="stroke:none; fill:#785b9f" d="M 156 106.4L 156.8 107.2L 156 106.4z"/>
<path style="stroke:none; fill:#a24dc9" d="M 216.8 106.4L 217.6 107.2L 216.8 106.4z"/>
<path style="stroke:none; fill:#c899df" d="M 217.6 106.4L 218.4 107.2L 217.6 106.4M 243.2 106.4L 244 107.2L 243.2 106.4M 279.2 106.4L 280 107.2L 279.2 106.4M 305.6 106.4L 306.4 107.2L 305.6 106.4z"/>
<path style="stroke:none; fill:#a24dc9" d="M 306.4 106.4L 307.2 107.2L 306.4 106.4z"/>
<path style="stroke:none; fill:#af6fd1" d="M 421.6 106.4L 422.4 107.2L 421.6 106.4z"/>
<path style="stroke:none; fill:#c899df" d="M 447.2 106.4L 448 107.2L 447.2 106.4z"/>
<path style="stroke:none; fill:#a24dc9" d="M 448 106.4L 448.8 107.2L 448 106.4z"/>
<path style="stroke:none; fill:#af6fd1" d="M 483.2 106.4L 484 107.2L 483.2 106.4z"/>
<path style="stroke:none; fill:#c899df" d="M 510.4 106.4L 511.2 107.2L 510.4 106.4z"/>
<path style="stroke:none; fill:#a135d3" d="M 563.2 106.4L 564 107.2L 563.2 106.4z"/>
<path style="stroke:none; fill:#c899df" d="M 564 106.4L 564.8 107.2L 564 106.4z"/>
<path style="stroke:none; fill:#af6fd1" d="M 591.2 106.4L 592 107.2L 591.2 106.4M 219.2 107.2L 220 108L 219.2 107.2z"/>
<path style="stroke:none; fill:#c899df" d="M 220 107.2L 220.8 108L 220 107.2M 240.8 107.2L 241.6 108L 240.8 107.2z"/>
<path style="stroke:none; fill:#a24dc9" d="M 241.6 107.2L 242.4 108L 241.6 107.2z"/>
<path style="stroke:none; fill:#a135d3" d="M 280.8 107.2L 281.6 108L 280.8 107.2z"/>
<path style="stroke:none; fill:#c899df" d="M 281.6 107.2L 282.4 108L 281.6 107.2M 303.2 107.2L 304 108L 303.2 107.2z"/>
<path style="stroke:none; fill:#af6fd1" d="M 304 107.2L 304.8 108L 304 107.2z"/>
<path style="stroke:none; fill:#a24dc9" d="M 356.8 107.2L 357.6 108L 356.8 107.2z"/>
<path style="stroke:none; fill:#af6fd1" d="M 363.2 107.2L 364 108L 363.2 107.2z"/>
<path style="stroke:none; fill:#c899df" d="M 424 107.2L 424.8 108L 424 107.2M 444.8 107.2L 445.6 108L 444.8 107.2z"/>
<path style="stroke:none; fill:#af6fd1" d="M 445.6 107.2L 446.4 108L 445.6 107.2M 485.6 107.2L 486.4 108L 485.6 107.2z"/>
<path style="stroke:none; fill:#c899df" d="M 508 107.2L 508.8 108L 508 107.2z"/>
<path style="stroke:none; fill:#a24dc9" d="M 508.8 107.2L 509.6 108L 508.8 107.2z"/>
<path style="stroke:none; fill:#a135d3" d="M 565.6 107.2L 566.4 108L 565.6 107.2z"/>
<path style="stroke:none; fill:#c899df" d="M 588 107.2L 588.8 108L 588 107.2z"/>
<path style="stroke:none; fill:#af6fd1" d="M 588.8 107.2L 589.6 108L 588.8 107.2M 222.134 108.266C 221.778 108.622 222.622 108.578 222.666 108.534C 223.022 108.178 222.178 108.222 222.134 108.266M 238.134 108.266C 237.778 108.622 238.622 108.578 238.666 108.534C 239.022 108.178 238.178 108.222 238.134 108.266M 284.534 108.266C 284.178 108.622 285.022 108.578 285.066 108.534C 285.422 108.178 284.578 108.222 284.534 108.266z"/>
<path style="stroke:none; fill:#c899df" d="M 286.134 108.266C 285.778 108.622 286.622 108.578 286.666 108.534C 287.022 108.178 286.178 108.222 286.134 108.266M 298.4 108L 298.4 108.8L 300.8 108.8C 299.802 108.252 299.561 108.201 298.4 108z"/>
<path style="stroke:none; fill:#a135d3" d="M 301.334 108.266C 300.978 108.622 301.822 108.578 301.866 108.534C 302.222 108.178 301.378 108.222 301.334 108.266M 327.2 108L 327.2 108.8L 340 108.8C 336.221 107.214 331.272 108 327.2 108M 357.6 108L 357.6 108.8L 363.2 108.8C 361.334 108.012 359.634 108.015 357.6 108z"/>
<path style="stroke:none; fill:#c899df" d="M 426.934 108.266C 426.578 108.622 427.422 108.578 427.466 108.534C 427.822 108.178 426.978 108.222 426.934 108.266z"/>
<path style="stroke:none; fill:#af6fd1" d="M 441.6 108L 441.6 108.8L 444 108.8C 443.002 108.252 442.761 108.201 441.6 108z"/>
<path style="stroke:none; fill:#c899df" d="M 489.334 108.266C 488.978 108.622 489.822 108.578 489.866 108.534C 490.222 108.178 489.378 108.222 489.334 108.266M 503.734 108.266C 503.378 108.622 504.222 108.578 504.266 108.534C 504.622 108.178 503.778 108.222 503.734 108.266z"/>
<path style="stroke:none; fill:#a24dc9" d="M 505.334 108.266C 504.978 108.622 505.822 108.578 505.866 108.534C 506.222 108.178 505.378 108.222 505.334 108.266z"/>
<path style="stroke:none; fill:#af6fd1" d="M 569.334 108.266C 568.978 108.622 569.822 108.578 569.866 108.534C 570.222 108.178 569.378 108.222 569.334 108.266z"/>
<path style="stroke:none; fill:#c899df" d="M 570.934 108.266C 570.578 108.622 571.422 108.578 571.466 108.534C 571.822 108.178 570.978 108.222 570.934 108.266M 583.2 108L 583.2 108.8L 585.6 108.8C 584.602 108.252 584.362 108.201 583.2 108z"/>
<path style="stroke:none; fill:#a135d3" d="M 586.134 108.266C 585.778 108.622 586.622 108.578 586.666 108.534C 587.022 108.178 586.178 108.222 586.134 108.266z"/>
<path style="stroke:none; fill:#8135e3" d="M 97.6 110.4L 94.4 112C 94.9472 110.736 95.044 110.578 96 109.6C 91.1208 107.632 87.8592 113.584 91.6824 117.085C 96.1184 121.148 98.4544 113.545 97.6 110.4z"/>
<path style="stroke:none; fill:#8a759b" d="M 154.4 108.8L 155.2 109.6L 154.4 108.8z"/>
<path style="stroke:none; fill:#a24dc9" d="M 226.134 109.066C 225.778 109.422 226.622 109.378 226.666 109.334C 227.022 108.978 226.178 109.022 226.134 109.066z"/>
<path style="stroke:none; fill:#ae92cc" d="M 227.2 108.8L 227.2 109.6L 232.8 109.6C 230.934 108.812 229.234 108.815 227.2 108.8z"/>
<path style="stroke:none; fill:#a24dc9" d="M 232.8 108.8L 232.8 109.6L 235.2 109.6C 234.202 109.052 233.962 109.001 232.8 108.8M 289.6 108.8L 289.6 109.6L 295.2 109.6C 293.334 108.812 291.634 108.815 289.6 108.8M 430.934 109.066C 430.578 109.422 431.422 109.378 431.466 109.334C 431.822 108.978 430.978 109.022 430.934 109.066z"/>
<path style="stroke:none; fill:#ae92cc" d="M 432 108.8L 432 109.6L 437.6 109.6C 435.734 108.812 434.034 108.815 432 108.8z"/>
<path style="stroke:none; fill:#a24dc9" d="M 437.6 108.8L 437.6 109.6L 440 109.6C 439.002 109.052 438.762 109.001 437.6 108.8M 493.6 108.8L 493.6 109.6L 500 109.6C 497.91 108.722 495.868 108.806 493.6 108.8M 574.4 108.8L 574.4 109.6L 581.6 109.6C 579.288 108.63 576.901 108.802 574.4 108.8M 94.4 109.6L 94.4 110.4C 95.708 110.836 95.564 110.692 96 112L 96.8 112C 96.4144 110.109 96.2912 109.986 94.4 109.6z"/>
<path style="stroke:none; fill:#af6fd1" d="M 94.4 110.4L 94.4 112L 96 112L 96 110.4L 94.4 110.4z"/>
<path style="stroke:none; fill:#785b9f" d="M 68.8 111.2L 69.6 112L 68.8 111.2z"/>
<path style="stroke:none; fill:#a24dc9" d="M 89.6 111.2C 89.1848 113.07 89.216 114.112 89.6 116L 90.4 116C 90.3624 114.198 90.2992 112.842 89.6 111.2z"/>
<path style="stroke:none; fill:#785b9f" d="M 152.8 111.2L 153.6 112L 152.8 111.2z"/>
<path style="stroke:none; fill:#a135d3" d="M 118.4 112L 118.4 117.6C 123.407 116.801 123.407 112.799 118.4 112z"/>
<path style="stroke:none; fill:#a24dc9" d="M 117.6 112.8C 117.215 114.561 117.215 115.039 117.6 116.8L 118.4 116.8C 118.33 115.229 118.223 114.215 117.6 112.8z"/>
<path style="stroke:none; fill:#a135d3" d="M 103.806 114.437C 101.594 116.226 104.394 119.922 106.718 118.331C 109.255 116.594 106.262 112.45 103.806 114.437z"/>
<path style="stroke:none; fill:#ae92cc" d="M 106.4 130.4L 106.4 131.2C 122.249 132.894 138.717 130.274 148.8 116C 142.59 116.417 138.209 121.488 132.8 124.193C 124.382 128.402 115.778 130.399 106.4 130.4z"/>
<path style="stroke:none; fill:#8135e3" d="M 74.4 116.8L 75.2 117.6L 74.4 116.8z"/>
<path style="stroke:none; fill:#a135d3" d="M 123.2 121.6C 129.876 123.122 125.595 115.653 123.2 121.6z"/>
<path style="stroke:none; fill:#785b9f" d="M 78.4 120L 79.2 120.8L 78.4 120z"/>
<path style="stroke:none; fill:#a135d3" d="M 110.4 123.2C 117.076 124.722 112.795 117.253 110.4 123.2z"/>
<path style="stroke:none; fill:#8135e3" d="M 80.8 121.6L 81.6 122.4L 80.8 121.6z"/>
<path style="stroke:none; fill:#a24dc9" d="M 122.134 128.266C 121.778 128.622 122.622 128.578 122.666 128.534C 123.022 128.178 122.178 128.222 122.134 128.266z"/>
<path style="stroke:none; fill:#8135e3" d="M 98.9336 129.066C 98.5776 129.422 99.4224 129.378 99.4664 129.334C 99.8224 128.978 98.9776 129.022 98.9336 129.066z"/>
<path style="stroke:none; fill:#a24dc9" d="M 117.6 128.8L 117.6 129.6L 120 129.6C 119.002 129.052 118.762 129.001 117.6 128.8z"/>
<path style="stroke:none; fill:#8135e3" d="M 102.4 129.6L 102.4 130.4L 112.8 130.4C 109.633 129.071 105.81 129.6 102.4 129.6z"/>
<path style="stroke:none; fill:#a24dc9" d="M 112.8 129.6L 112.8 130.4L 115.2 130.4C 114.202 129.852 113.962 129.801 112.8 129.6z"/>
<path style="stroke:none; fill:#8135e3" d="M 123.734 131.466C 123.378 131.822 124.222 131.778 124.266 131.734C 124.622 131.378 123.778 131.422 123.734 131.466z"/>
<path style="stroke:none; fill:#785b9f" d="M 97.3336 132.266C 96.9776 132.622 97.8224 132.578 97.8664 132.534C 98.2224 132.178 97.3776 132.222 97.3336 132.266M 119.2 132L 119.2 132.8L 121.6 132.8C 120.602 132.252 120.362 132.201 119.2 132M 101.334 133.066C 100.978 133.422 101.822 133.378 101.866 133.334C 102.222 132.978 101.378 133.022 101.334 133.066M 115.2 132.8L 115.2 133.6L 117.6 133.6C 116.602 133.052 116.362 133.001 115.2 132.8z"/>
</g>
</svg>