<svg id="Layer_1" data-name="Layer 1" xmlns="http://www.w3.org/2000/svg" viewBox="0 0 1267.56 169.88"><defs><style>.cls-1{fill:#002fa7;}.cls-2{fill:#383838;}</style></defs><path class="cls-1" d="M238.2,160.24l-4.6.75h-.34c-.34.09-.68.09-1,.18l-1.2.16c-60.29,9.88-111.3,11.16-155.83,4-12-2-29.63-5.28-44.7-11.76-17.82-7.65-27.95-18-30.08-30.89C-4.94,91.26,41.63,66.06,57,57.79c40.7-22,90.87-37.89,153.29-48.46S325.32-2.84,371,4.57h0C400.77,9.42,441,19,445.77,47.2s-30,50.5-56.55,64.89c-39.71,21.47-88.22,37-148.44,47.61l-1.19.17c-.33.09-.68.09-1,.17S238.28,160.24,238.2,160.24Zm-5.2-1.7h.16l4.69-.85h.09c.33-.09.68-.09,1-.17l1.19-.18c59.87-10.48,108.16-26,147.67-47.34,60.3-32.62,56.45-54.93,55.28-62.25-4.94-29.64-55.86-37.91-72.56-40.54h0C325.15-.12,272.86,1.42,210.7,12s-112,26.3-152.53,48.18C-2.13,92.79,1.71,115.11,2.9,122.43c5,29.63,56,37.81,72.67,40.53,44.29,7.16,95,5.88,155.08-4l1.2-.17c.34-.08.69-.08,1-.16Z"/><path class="cls-1" d="M233.75,148.23c-1.19.18-2.47.43-3.83.6-2.56.42-5.45.85-8.61,1.36l-.34.09c-1.36.16-2.8.43-4.34.59-1.36.17-2.81.43-4.34.6H212c-2.29.34-4.76.59-7.24.94h-.33l-3.16.33c-.85.09-1.79.18-2.63.35h-.12c-19.33,2.13-37.73,3.41-54.59,3.66-30.66.42-55.27-2.39-73-8.34C54,142.7,43.18,134,39,122.6a33.35,33.35,0,0,1-1.62-6c-1.5-8.94.68-17.79,6.56-26.22C52.08,78.58,67.57,67.34,90,57c21-9.74,47.52-18.49,78.86-26.15,19.84-4.86,35.77-7.75,43.52-9s24-3.83,44.11-5.88c22.14-2.24,54.51-4.26,83.2-1.44,24.61,2.38,43,7.92,54.6,16.52,8.09,6,13,13.54,14.47,22.47a33.47,33.47,0,0,1,.43,6.48h0c-.35,12.17-7.58,23.84-21.47,34.65-14.76,11.47-37.07,22.28-66.29,32-16.18,5.36-34,10.22-53,14.56a16.3,16.3,0,0,1-2,.43l-6.55,1.42c-1.71.33-3.33.68-5,1l-1.61.35c-.94.16-1.79.34-2.72.51s-2,.43-3,.6l-1.62.33c-3.15.6-6.05,1.11-8.6,1.62C236.24,147.81,235,148.06,233.75,148.23Zm-29.47,1.71h.43c2.38-.26,4.76-.6,7.06-.94H212c1.46-.17,2.9-.43,4.35-.59s3-.43,4.34-.6l.34-.08c3.15-.52,6-.94,8.52-1.29,2.73-.42,4.85-.75,7.58-1.27,2.55-.43,5.45-1,8.6-1.62l1.62-.34c.94-.17,1.95-.34,2.89-.59l2.65-.52,1.61-.34c1.62-.34,3.24-.68,4.94-1l6.56-1.45c.68-.17,1.28-.26,2-.43,19-4.25,36.64-9.19,52.74-14.49,29-9.62,51-20.27,65.49-31.6C399.49,82.41,406.39,71.42,406.74,60h0a28.58,28.58,0,0,0-.43-6c-1.36-8.24-6-15.25-13.55-20.87-11.23-8.24-29.12-13.71-53.3-16-28.53-2.73-60.72-.75-82.7,1.45-20.09,2-36.19,4.49-43.94,5.79s-23.67,4.25-43.34,9c-30.72,7.49-57.92,16.43-78.44,26C69.07,69.55,53.94,80.45,46,91.86c-5.45,7.83-7.49,16.09-6.13,24.35a30.26,30.26,0,0,0,1.5,5.62c4,10.73,14.23,18.91,30.48,24.36,17.46,5.87,41.73,8.6,72.13,8.17,16.87-.25,35.18-1.44,54.42-3.65h.17a25.76,25.76,0,0,0,2.64-.35l3.07-.42Z"/><path class="cls-1" d="M134.21,123.28l-.25-.08h-.24l.24,2.38c.75-.08,1.44-.08,2.24-.17a50.06,50.06,0,0,1,6-.09A68.78,68.78,0,0,1,134.21,123.28Zm23.64,6.33h0Zm4.19-2.25h0l.29-.06Zm1-.14h-.08v.14h.17M408.6,53.71c-1.44-9-6.38-16.44-14.47-22.48-11.58-8.6-30-14.13-54.6-16.52-28.69-2.81-61-.75-83.16,1.45-20.1,2-36.28,4.49-44.11,5.87s-23.71,4.19-43.56,9c-31.33,7.67-57.91,16.44-78.86,26.15C67.43,67.5,52,78.74,43.77,90.49c-5.88,8.43-8.09,17.3-6.56,26.23a32.59,32.59,0,0,0,1.11,4.56c.17.51.33,1,.51,1.5.12.31.24.62.37.93,4.49,11,15.16,19.32,31.65,24.87,17.72,6,42.33,8.77,73,8.35h.51l.33-.42c4.42-4.68,9.18-9.52,13.94-13.64l.29-.25,2.64-2.3h-4.06c-22.74.22-41.06-1.81-54.48-6.18h-.12l.16-.06c11.77-4.73,21.52-7.35,30.5-8.37h0a101,101,0,0,0,24.05,3.91h0a118.65,118.65,0,0,1-16.49-2l-2.89-.64-1.17-.34c-1.13-.3-2.24-.62-3.28-1l-.25-.06h-.09a41.81,41.81,0,0,1-4.58-1.7c-8.76,1.45-18.42,4.4-29.82,9.2l-2.78,1.19-.18.08h0l3,1.11c13.36,5,32.21,7.58,55.87,7.49-4,3.58-7.84,7.58-11.5,11.41C113.34,154.8,89.32,152,72,146.2c-15.68-5.24-25.74-13-30-23.22-.17-.38-.33-.75-.47-1.15s-.31-.84-.44-1.26a31.58,31.58,0,0,1-1.09-4.36c-1.36-8.24.68-16.52,6.13-24.36,7.88-11.4,23-22.3,45-32.44,20.52-9.54,47.69-18.48,78.43-26,19.67-4.77,35.6-7.75,43.35-9s23.84-3.83,43.94-5.79c22-2.25,54.16-4.18,82.69-1.45,24.19,2.3,42.07,7.75,53.31,16,7.59,5.62,12.18,12.6,13.54,20.87a27.92,27.92,0,0,1,.43,6c-.34,11.41-7.24,22.39-20.52,32.78-14.39,11.24-36.28,21.89-65,31.43-4.77-2.47-9.88-5-15-7.24,22.23-7.83,39.17-16.35,50.41-25.38l2.47-2h-.51l-2.72-.15c-15.84-1-27.68-.17-37.13,2.55l-.26.09-.25.17A106.73,106.73,0,0,1,297,103.49l-1.2.42c-2.3.94-4.77,1.88-7.23,2.72l-1.54.52.05-.28c.09-.59.18-1.19.25-1.78a68.12,68.12,0,0,0,.56-10.3,12.86,12.86,0,0,0-.07-1.63c-.07-.55-.06-1.09-.11-1.65s-.09-1.11-.14-1.67-.12-1.11-.2-1.67c-.1-.75-.21-1.5-.34-2.25s-.31-1.49-.45-2.24c-.07-.38-.15-.75-.23-1.11A61.75,61.75,0,0,0,280,66q-1.49-2.67-3.22-5.17c-.35-.51-.71-1-1.08-1.5s-.63-.86-1-1.28-.7-.9-1.06-1.34A63.58,63.58,0,0,0,259.75,44a60.85,60.85,0,0,0-13.29-6.74,63.37,63.37,0,0,0-30.4-3.15,27.52,27.52,0,0,0-3,.47h-.26a63.45,63.45,0,0,0-27.67,13,57.53,57.53,0,0,0-9.89,10.08L175,58A64.17,64.17,0,0,0,169.75,66c-.31.56-.6,1.12-.89,1.68s-.46.89-.67,1.36-.38.75-.54,1.15a59.34,59.34,0,0,0-2.25,5.71h0c-.18.52-.35,1-.52,1.57s-.32,1-.47,1.58l-.34,1.21a.37.37,0,0,1,0,.23c0,.13-.08.27-.11.41-.1.35-.18.75-.26,1.08a.28.28,0,0,0,0,.13v.11c-.08.3-.13.57-.19.86s-.11.52-.17.75c-.11.55-.21,1.11-.3,1.66-.21,1.24-.39,2.46-.54,3.7,0,.42-.09.85-.13,1.27s-.09,1.13-.13,1.7a64.07,64.07,0,0,0,0,7.59c.06,1,.13,2,.24,3a2.15,2.15,0,0,0,.07.66c.1.74.2,1.4.31,2.07a.87.87,0,0,0,.07.42.11.11,0,0,0,0,.08,1.86,1.86,0,0,0,.05.34.11.11,0,0,0,0,.08,2.7,2.7,0,0,0,.06.41c0,.3.09.59.15.89a64.63,64.63,0,0,0,2.24,8.65,61,61,0,0,0,4.81,11h.05c.33.59.68,1.18,1,1.78l.38.6h-.42l-3.07.15h.14c.75,0,1.43,0,2.13,0h2l2.25-.09h0l-1.18-1.85c-.13-.2-.25-.4-.37-.62a57.51,57.51,0,0,1-5.42-11.73,59.23,59.23,0,0,1-2.3-9.2c-.16-1.1-.34-2.12-.43-3.23-.06-.59-.12-1.19-.17-1.78a58.43,58.43,0,0,1,.69-15.51A59.92,59.92,0,0,1,177,59.41c.82-1,1.68-2.07,2.57-3.07a58.76,58.76,0,0,1,7.13-6.89A61.09,61.09,0,0,1,213.24,37l.25-.05,1.29-.22,1.5-.25a60.65,60.65,0,0,1,29.22,3.07,60.05,60.05,0,0,1,38.16,43.34c.16,1,.42,2,.59,3.16a59.28,59.28,0,0,1,.86,8.51,61.81,61.81,0,0,1-1.17,13.3,2.75,2.75,0,0,1-.1.56l-.42,2.21,2.13-.68.87-.3,2.78-1c2.56-.85,4.95-1.79,7.33-2.72l1.19-.43a112.29,112.29,0,0,0,21.63-11.41c8.52-2.38,19.25-3.24,32.88-2.64l-.1.08c-11.42,8.57-28.25,16.64-50,24l-3.32,1.11h0l3.2,1.27.27.1a181.4,181.4,0,0,1,18.12,8.55l.51.26h.34c29.22-9.74,51.53-20.53,66.26-32C401.45,84,408.69,72.37,409,60.18A32.65,32.65,0,0,0,408.6,53.71ZM163,127.22h-.08v.14h.17m-.74,0-.3,0h0Zm-.12,2.53h.14l1.46.05H165c-1,0-2-.06-2.93-.11h-1.15m-27.18-6.56.24,2.38c.75-.08,1.44-.08,2.25-.16a47.88,47.88,0,0,1,6-.1,68.3,68.3,0,0,1-8-2l-.26-.08Zm.49.08-.25-.08h-.24l.24,2.38c.75-.08,1.44-.08,2.25-.16a47.88,47.88,0,0,1,6-.1,68.92,68.92,0,0,1-8-2.11Zm27.84,4h0l.29-.06Zm1-.14h-.08v.14h.17m-.09-.12h-.08v.12h.17m-1,0h0l.29-.06Zm-27.83-4.08-.25-.08h-.24l.24,2.38c.75-.08,1.44-.08,2.24-.17a50.06,50.06,0,0,1,6-.09,68.78,68.78,0,0,1-8-2Z"/><path class="cls-1" d="M134.21,123.28l-.25-.08h-.24l.24,2.38c.75-.08,1.44-.08,2.24-.17a50.06,50.06,0,0,1,6-.09A68.78,68.78,0,0,1,134.21,123.28Zm23.64,6.33h0Zm4.19-2.25h0l.29-.06Zm1-.14h-.08v.14h.17M408.6,53.71c-1.44-9-6.38-16.44-14.47-22.48-11.58-8.6-30-14.13-54.6-16.52-28.69-2.81-61-.75-83.16,1.45-20.1,2-36.28,4.49-44.11,5.87s-23.71,4.19-43.56,9c-31.33,7.67-57.91,16.44-78.86,26.15C67.43,67.5,52,78.74,43.77,90.49c-5.88,8.43-8.09,17.3-6.56,26.23a32.59,32.59,0,0,0,1.11,4.56c.17.51.33,1,.51,1.5.12.31.24.62.37.93,4.49,11,15.16,19.32,31.65,24.87,17.72,6,42.33,8.77,73,8.35h.51l.33-.42c4.42-4.68,9.18-9.52,13.94-13.64l.29-.25,2.64-2.3h-4.06c-22.74.22-41.06-1.81-54.48-6.18h-.12l.16-.06c11.77-4.73,21.52-7.35,30.5-8.37h0a101,101,0,0,0,24.05,3.91h0a118.65,118.65,0,0,1-16.49-2l-2.89-.64-1.17-.34c-1.13-.3-2.24-.62-3.28-1l-.25-.06h-.09a41.81,41.81,0,0,1-4.58-1.7c-8.76,1.45-18.42,4.4-29.82,9.2l-2.78,1.19-.18.08h0l3,1.11c13.36,5,32.21,7.58,55.87,7.49-4,3.58-7.84,7.58-11.5,11.41C113.34,154.8,89.32,152,72,146.2c-15.68-5.24-25.74-13-30-23.22-.17-.38-.33-.75-.47-1.15s-.31-.84-.44-1.26a31.58,31.58,0,0,1-1.09-4.36c-1.36-8.24.68-16.52,6.13-24.36,7.88-11.4,23-22.3,45-32.44,20.52-9.54,47.69-18.48,78.43-26,19.67-4.77,35.6-7.75,43.35-9s23.84-3.83,43.94-5.79c22-2.25,54.16-4.18,82.69-1.45,24.19,2.3,42.07,7.75,53.31,16,7.59,5.62,12.18,12.6,13.54,20.87a27.92,27.92,0,0,1,.43,6c-.34,11.41-7.24,22.39-20.52,32.78-14.39,11.24-36.28,21.89-65,31.43-4.77-2.47-9.88-5-15-7.24,22.23-7.83,39.17-16.35,50.41-25.38l2.47-2h-.51l-2.72-.15c-15.84-1-27.68-.17-37.13,2.55l-.26.09-.25.17A106.73,106.73,0,0,1,297,103.49l-1.2.42c-2.3.94-4.77,1.88-7.23,2.72l-1.54.52.05-.28c.09-.59.18-1.19.25-1.78a68.12,68.12,0,0,0,.56-10.3,12.86,12.86,0,0,0-.07-1.63c-.07-.55-.06-1.09-.11-1.65s-.09-1.11-.14-1.67-.12-1.11-.2-1.67c-.1-.75-.21-1.5-.34-2.25s-.31-1.49-.45-2.24c-.07-.38-.15-.75-.23-1.11A61.75,61.75,0,0,0,280,66q-1.49-2.67-3.22-5.17c-.35-.51-.71-1-1.08-1.5s-.63-.86-1-1.28-.7-.9-1.06-1.34A63.58,63.58,0,0,0,259.75,44a60.85,60.85,0,0,0-13.29-6.74,63.37,63.37,0,0,0-30.4-3.15,27.52,27.52,0,0,0-3,.47h-.26a63.45,63.45,0,0,0-27.67,13,57.53,57.53,0,0,0-9.89,10.08L175,58A64.17,64.17,0,0,0,169.75,66c-.31.56-.6,1.12-.89,1.68s-.46.89-.67,1.36-.38.75-.54,1.15a59.34,59.34,0,0,0-2.25,5.71h0c-.18.52-.35,1-.52,1.57s-.32,1-.47,1.58l-.34,1.21a.37.37,0,0,1,0,.23c0,.13-.08.27-.11.41-.1.35-.18.75-.26,1.08a.28.28,0,0,0,0,.13v.11c-.08.3-.13.57-.19.86s-.11.52-.17.75c-.11.55-.21,1.11-.3,1.66-.21,1.24-.39,2.46-.54,3.7,0,.42-.09.85-.13,1.27s-.09,1.13-.13,1.7a64.07,64.07,0,0,0,0,7.59c.06,1,.13,2,.24,3a2.15,2.15,0,0,0,.07.66c.1.74.2,1.4.31,2.07a.87.87,0,0,0,.07.42.11.11,0,0,0,0,.08,1.86,1.86,0,0,0,.05.34.11.11,0,0,0,0,.08,2.7,2.7,0,0,0,.06.41c0,.3.09.59.15.89a64.63,64.63,0,0,0,2.24,8.65,61,61,0,0,0,4.81,11h.05c.33.59.68,1.18,1,1.78l.38.6h-.42l-3.07.15h.14c.75,0,1.43,0,2.13,0h2l2.25-.09h0l-1.18-1.85c-.13-.2-.25-.4-.37-.62a57.51,57.51,0,0,1-5.42-11.73,59.23,59.23,0,0,1-2.3-9.2c-.16-1.1-.34-2.12-.43-3.23-.06-.59-.12-1.19-.17-1.78a58.43,58.43,0,0,1,.69-15.51A59.92,59.92,0,0,1,177,59.41c.82-1,1.68-2.07,2.57-3.07a58.76,58.76,0,0,1,7.13-6.89A61.09,61.09,0,0,1,213.24,37l.25-.05,1.29-.22,1.5-.25a60.65,60.65,0,0,1,29.22,3.07,60.05,60.05,0,0,1,38.16,43.34c.16,1,.42,2,.59,3.16a59.28,59.28,0,0,1,.86,8.51,61.81,61.81,0,0,1-1.17,13.3,2.75,2.75,0,0,1-.1.56l-.42,2.21,2.13-.68.87-.3,2.78-1c2.56-.85,4.95-1.79,7.33-2.72l1.19-.43a112.29,112.29,0,0,0,21.63-11.41c8.52-2.38,19.25-3.24,32.88-2.64l-.1.08c-11.42,8.57-28.25,16.64-50,24l-3.32,1.11h0l3.2,1.27.27.1a181.4,181.4,0,0,1,18.12,8.55l.51.26h.34c29.22-9.74,51.53-20.53,66.26-32C401.45,84,408.69,72.37,409,60.18A32.65,32.65,0,0,0,408.6,53.71ZM163,127.22h-.08v.14h.17m-.74,0-.3,0h0Zm-.12,2.53h.14l1.46.05H165c-1,0-2-.06-2.93-.11h-1.15m-27.18-6.56.24,2.38c.75-.08,1.44-.08,2.25-.16a47.88,47.88,0,0,1,6-.1,68.3,68.3,0,0,1-8-2l-.26-.08Zm.49.08-.25-.08h-.24l.24,2.38c.75-.08,1.44-.08,2.25-.16a47.88,47.88,0,0,1,6-.1,68.92,68.92,0,0,1-8-2.11Zm27.84,4h0l.29-.06Zm0,0h0l.29-.06Zm-27.83-4.08-.25-.08h-.24l.24,2.38c.75-.08,1.44-.08,2.24-.17a50.06,50.06,0,0,1,6-.09,68.78,68.78,0,0,1-8-2Z"/><path class="cls-1" d="M162.25,127.13l-.45.07h-.09c-1.56,0-3.11-.12-4.6-.21q-2.87-.18-5.55-.45c-3-.3-5.8-.69-8.4-1.18h0a70.41,70.41,0,0,1-9.08-2.25l-.27-.09h-.25c-1.63.18-3.3.43-5,.75-8.62,1.5-18.07,4.37-29.22,9-11.54-4.36-18.8-10.7-21.63-18.82-.16-.45-.3-.9-.43-1.36s-.2-.79-.29-1.18-.2-1.05-.3-1.55c-1.2-7,.68-13.87,5.53-20.43l.34-.43c6.58-8.71,18.51-17.07,35.55-24.81A268.53,268.53,0,0,1,146.38,53.4c10.49-3.42,22-6.64,34.24-9.57,5.44-1.3,10.42-2.45,14.92-3.37.22-.06.44-.09.67-.14a60.51,60.51,0,0,0-11.08,7.24,58,58,0,0,0-10,10.21L175,58c-.81,1.06-1.59,2.14-2.32,3.25A61.54,61.54,0,0,0,165.4,75.9h0c-.18.52-.35,1-.52,1.57s-.32,1-.47,1.58c-.07.23-.13.46-.19.7a4.13,4.13,0,0,1-.15.51c0,.17,0,.16,0,.23s-.08.27-.11.41c-.1.35-.18.75-.26,1.08a.28.28,0,0,0,0,.13v.11c-.08.3-.13.57-.19.86s-.11.52-.17.75a1.31,1.31,0,0,1-.06.27c-.09.44-.17.87-.24,1.3-.23,1.26-.4,2.52-.54,3.79,0,.42-.09.85-.13,1.27,0,.57-.09,1.13-.13,1.7a64.07,64.07,0,0,0,0,7.59c.06,1,.14,2,.25,3a1.94,1.94,0,0,0,.06.59c.1.75.21,1.45.32,2.15a2.23,2.23,0,0,0,0,.23l.15,1c.12.75.25,1.5.42,2.25a.45.45,0,0,0,0,.22c.09.42.18.84.28,1.24.38,1.63.81,3.16,1.27,4.63.12.4.25.75.37,1.18l.5,1.4c.17.48.34.94.53,1.41.37.93.75,1.86,1.15,2.78.18.39.35.74.54,1.16s.37.75.56,1.14c.51,1,1.07,2.09,1.65,3.09h0c.33.59.68,1.18,1,1.78l.37.6h-.42l-3.07.14h.14c.75,0,1.43,0,2.13,0h2.13l2.21-.09h0l-1.09-1.85c-.13-.2-.25-.41-.38-.62a57.84,57.84,0,0,1-5.56-11.67,59.37,59.37,0,0,1-2.25-9.2c-.16-1.1-.33-2.13-.42-3.23-.08-.65-.15-1.29-.2-1.94a58.49,58.49,0,0,1,.75-15.35,59.81,59.81,0,0,1,11.52-26.4c.64-.81,1.29-1.6,2-2.38a60,60,0,0,1,34.33-20V37l-.41-2.38v-.05l-4.44.8c-6.56,1.2-16.56,3.18-28.47,6-24.95,6-46.07,12.87-62.93,20.53C100.15,69.7,87.9,78.13,81,87.06l-.35.43c-5.53,7.33-7.66,15-6.3,22.83.09.52.2,1,.32,1.5s.23,1,.36,1.44.22.75.33,1.08c2.77,8.44,9.74,15.08,20.72,19.79l.19.09c.89.38,1.82.75,2.78,1.11l.51.16.43-.16,3-1.25.17-.06c11.7-4.7,21.39-7.37,30.42-8.39h.12c1.08.34,2.21.65,3.37,1-1.13-.3-2.25-.62-3.28-1l-.26-.06h-.08a42.76,42.76,0,0,1-4.59-1.7c1.65-.28,3.26-.51,4.84-.68h0l.24,2.38c.75-.08,1.45-.08,2.25-.16a47.94,47.94,0,0,1,6-.1,104.79,104.79,0,0,0,10.58,1.5c1.49.14,3,.25,4.57.35s3.08.16,4.66.21h.08l.28-.06.33,0,.24,0v.13H164c1.39,0,2.77.08,4.08.08h2.14a.41.41,0,0,1-.05-.09h-2.25c-1.3,0-2.67-.06-4.05-.07h-.57l-.24,0h-.17m-.55,2.65h0l1.42.05H165c-1,0-2-.06-2.93-.1h-1m1.15-2.65.17.06m7.77.18h-2.25c-1.3,0-2.66-.06-4-.07h-.56l-.24-.06h-.17v.07H164c1.39,0,2.77.08,4.09.08h2.13s0,0,0-.08Z"/><path class="cls-1" d="M283.59,110.76l.43-2.25a62.18,62.18,0,0,0,1.27-13.88,57.33,57.33,0,0,0-.85-8.47c-.17-1.11-.42-2.13-.59-3.15a60.12,60.12,0,0,0-25.48-37,58.72,58.72,0,0,0-12.69-6.38,60.63,60.63,0,0,0-29.22-3.06L216,34.13c5.79-.94,17.88-2.81,33.21-4.26,17.28-1.71,42.67-3.24,65.49-1.2h.17c19.07,1.71,33.56,5.71,43.17,11.93h0l.43.25c7.58,5,12.09,11.41,13.37,19.17a24.17,24.17,0,0,1,.34,3.4c.34,9.79-4.94,19.34-15.73,28.19l-.43.34h-.51c-15.15-.94-27-.17-36.19,2.47a112.88,112.88,0,0,1-21.63,11.41l-1.19.43c-2.39.93-4.77,1.87-7.33,2.72-1.19.42-2.38.85-3.66,1.28ZM233.75,34a64,64,0,0,1,12.73,3.15,60.85,60.85,0,0,1,13.29,6.74,63.34,63.34,0,0,1,20.26,22,61.14,61.14,0,0,1,6.29,16.59c.25,1.11.42,2.25.67,3.32a62.68,62.68,0,0,1,.86,8.86,66.29,66.29,0,0,1-.86,12.35l1.54-.51c2.47-.85,4.94-1.79,7.24-2.73l1.19-.42A107.5,107.5,0,0,0,318.25,92l.25-.17.26-.09c9.37-2.72,21-3.5,36.62-2.56,9.88-8.24,14.74-17,14.39-25.8a19.58,19.58,0,0,0-.34-3.15c-1.19-6.9-5.19-12.69-11.92-17.29l-.34-.25c-9.2-6-23.42-10-42.24-11.76h-.17c-22.65-2-47.95-.51-65.23,1.2C243.74,32.75,238.45,33.35,233.75,34Z"/><path class="cls-1" d="M163.08,127.29v.07l.25,0Zm7.11.08h-2.25c-1.3,0-2.67-.06-4.05-.08l.13.09c1.39,0,2.77.07,4.08.07h2.14a.41.41,0,0,1-.05-.09Zm-7.77-.18-.55.09h0c-1.57,0-3.09-.12-4.58-.22-1.72-.09-3.37-.21-5-.38-3.26-.29-6.49-.75-9.7-1.36h0a68.44,68.44,0,0,1-8.46-2.13l-.26-.08h-.08l-.18-.06c-8.88-3-14.91-7.45-17.94-13.41a18.35,18.35,0,0,1-.79-1.75c-.12-.3-.24-.61-.35-.92a20.45,20.45,0,0,1-.85-3.25c-.75-4.09.6-8.24,4-12.52a47.52,47.52,0,0,1,10.18-9.12,118.78,118.78,0,0,1,16-9.21A246.59,246.59,0,0,1,172.5,61.28l.19-.07h0q-1.58,2.34-2.92,4.8c-.31.56-.6,1.12-.89,1.68s-.45.89-.67,1.35-.38.75-.54,1.16c-.84,1.86-1.59,3.77-2.25,5.71h0c-.18.52-.35,1-.52,1.57s-.32,1-.47,1.57-.23.81-.33,1.22a.32.32,0,0,1-.06.23c0,.13-.08.27-.11.4-.1.36-.18.75-.26,1.09a.29.29,0,0,0,0,.13v.11c-.08.29-.13.57-.19.86s-.16.7-.22,1-.18.86-.25,1.3c-.22,1.26-.4,2.52-.54,3.79,0,.42-.09.84-.13,1.27s-.09,1.13-.12,1.69a64.07,64.07,0,0,0,0,7.59c.06,1,.13,2,.24,3a1.94,1.94,0,0,0,.06.59c.1.75.21,1.45.32,2.14a2,2,0,0,0,0,.24l.15,1q.18,1.13.42,2.25a.45.45,0,0,0,0,.22c.1.41.19.83.28,1.24.39,1.63.81,3.16,1.27,4.63.12.39.25.75.37,1.18l.5,1.4c.17.47.34.94.53,1.41.37.93.75,1.86,1.16,2.77.17.4.35.75.53,1.17s.37.75.57,1.14c.51,1,1.06,2.08,1.64,3.09h0c.33.59.69,1.17,1,1.77l.37.61h-.42l-3.07.14h.14c.75,0,1.44,0,2.13,0h2.14l2.21-.09h0l-1-1.76a7.72,7.72,0,0,1-.43-.75,57.89,57.89,0,0,1-5.36-11.64,56.94,56.94,0,0,1-2.3-9.19c-.17-1.11-.34-2.13-.43-3.24a59,59,0,0,1,.51-17.29,59.92,59.92,0,0,1,11.59-26.4L179.33,57l.59-.75-.24.07L176,57.5l-.61.2h-.09a.27.27,0,0,0-.21.07q-9,3-16.88,6.09Q150,67.1,143,70.5c-12.94,6.22-22.14,12.61-27.16,19-3.84,4.86-5.37,9.79-4.5,14.56a26.57,26.57,0,0,0,.75,2.82c.19.63.41,1.26.65,1.87.11.25.21.51.33.75,2.68,6.06,7.91,10.81,15.63,14.17l.12,0h0l.2.09c1.64-.28,3.26-.51,4.84-.69h0l.24,2.39c.75-.09,1.44-.09,2.24-.17a50.07,50.07,0,0,1,6-.1,98.84,98.84,0,0,0,10.57,1.5c1.5.15,3,.26,4.58.35s3.07.16,4.65.21h.08l.29-.06.32,0,.24,0m7.33.23a.41.41,0,0,1-.05-.09h-2.25c-1.3,0-2.67-.06-4-.07l.12.08c1.39,0,2.77.08,4.09.08Zm-7.15-.12.24-.05h-.24Zm-.75,2.51h0l1.42.06h1.15c-1,0-2-.06-2.93-.11h-1.14m9.11-2.36h-2.25c-1.3,0-2.67-.06-4.05-.07h-1v.07H164c1.39,0,2.77.08,4.08.08h2.14A.35.35,0,0,1,170.19,127.36Z"/><path class="cls-1" d="M283.59,110.76l.43-2.25a62.18,62.18,0,0,0,1.27-13.88,57.33,57.33,0,0,0-.85-8.47c-.17-1.11-.42-2.13-.59-3.15a60.12,60.12,0,0,0-25.48-37l-3.4-2.3,4.09-.08a290.53,290.53,0,0,1,34.65,1.5c14.31,1.7,25,4.59,32,8.86,5.45,3.23,8.6,7.32,9.37,12.09h0a24.73,24.73,0,0,1,.25,4.94c-.43,8.24-5.71,16-15.67,23.08l-.26.16c-5.62,4-12.93,7.76-21.54,11.33l-1.19.43c-2.39.93-4.77,1.87-7.32,2.72-1.19.43-2.39.86-3.67,1.28ZM263,46.13A63.09,63.09,0,0,1,280,65.8a61.47,61.47,0,0,1,6.32,16.61c.25,1.11.42,2.25.67,3.32a62.68,62.68,0,0,1,.86,8.86,66.29,66.29,0,0,1-.86,12.35l1.54-.51c2.47-.85,4.94-1.79,7.24-2.73l1.19-.42A107.5,107.5,0,0,0,318.25,92l.25-.17c9.12-6.56,14-13.63,14.31-21a18.64,18.64,0,0,0-.25-4.35c-.67-4-3.41-7.35-8.16-10.28-6.64-4-17-6.81-31-8.51A271.49,271.49,0,0,0,263,46.13Z"/><path class="cls-1" d="M170.19,127.36h-2.25c-1.3,0-2.67-.06-4.05-.07l.13.08c1.39,0,2.77.07,4.08.07h2.14A.22.22,0,0,1,170.19,127.36Zm4.54,2.36-1-1.76a6.09,6.09,0,0,1-.43-.75,58.06,58.06,0,0,1-5.36-11.63,57.06,57.06,0,0,1-2.3-9.2c-.17-1.1-.34-2.12-.43-3.23L165,101.1h0l-.23.16-1.45.94-.91.6h-.05a42.72,42.72,0,0,0-6.1,5c-3.17,3.17-4.71,6.34-4.61,9.36v.43a7.71,7.71,0,0,0,.34,2.13c.06.23.14.46.21.69h0a12.47,12.47,0,0,0,2.47,4.18,16.65,16.65,0,0,0,2.5,2.32l.12.08a.58.58,0,0,1,.1.09c1.49.09,3.05.16,4.65.21h.07l-.18-.09-.15-.08-.17-.08-.34-.25h-.09l-.74-.44a15,15,0,0,1-4.62-4,9.07,9.07,0,0,1-1.5-3.17c0-.21-.08-.46-.11-.75s-.1-.66-.15-1c-.26-2.39,1.11-5,3.84-7.84a36.18,36.18,0,0,1,4.87-4.13h0c0,.15,0,.3,0,.45V106c0,.11,0,.23,0,.34v.08a3.23,3.23,0,0,0,.06.33q.18,1.13.42,2.25a.45.45,0,0,0,0,.22c.1.42.19.84.28,1.24.39,1.63.81,3.16,1.27,4.63.12.4.25.75.38,1.18l.49,1.41c.17.47.34.93.53,1.4.37.93.75,1.86,1.16,2.78.18.39.35.74.53,1.16s.37.75.57,1.14c.51,1,1.06,2.09,1.64,3.09h0c.33.59.69,1.18,1,1.78l.37.6h-.42l-3.07.14h.14c.75,0,1.44,0,2.13,0h2.14l2.21-.09Zm-4.49-2.25a.22.22,0,0,1-.05-.08h-2.25c-1.3,0-2.67-.06-4.05-.07l.13.08c1.39,0,2.77.07,4.08.07Zm-.05-.08h-2.25c-1.3,0-2.67-.06-4.05-.07h-.57l-.24.05H164c1.39,0,2.77.07,4.09.07h2.13a.2.2,0,0,1,0-.08Z"/><path class="cls-1" d="M283.59,110.76l.43-2.25a62.18,62.18,0,0,0,1.27-13.88,57.33,57.33,0,0,0-.85-8.47c-.17-1.11-.42-2.13-.59-3.15L283.42,81l2.05.51a43.39,43.39,0,0,1,8,2.73c4.6,2.13,7.32,4.86,8.09,8,.09.43.17.86.25,1.37.6,4.17-.93,8.24-4.68,12.18l-.17.16-.26.09c-2.38.94-4.76,1.88-7.32,2.73-1.19.42-2.39.85-3.66,1.27Zm3.15-26.31.25,1.27a62.68,62.68,0,0,1,.86,8.86,66.29,66.29,0,0,1-.86,12.35l1.54-.51c2.38-.85,4.68-1.71,7-2.64,3-3.32,4.27-6.64,3.84-9.88h0c-.09-.34-.09-.68-.17-1.11-.6-2.38-2.9-4.49-6.75-6.3A38.18,38.18,0,0,0,286.74,84.45Z"/><path class="cls-1" d="M336.65,134.61c-3.84-1.62-8.44-4-13.29-6.48l-2.81-1.44,1.19-2.25,2.81,1.45c4.86,2.47,9.37,4.86,13.12,6.39Z"/><path class="cls-1" d="M298.18,105.4l-1.62-2A63,63,0,0,1,317.85,92a6.49,6.49,0,0,0,.74-.26l.6,2.47c-.17.08-.43.08-.6.17A61.21,61.21,0,0,0,298.18,105.4Z"/><path class="cls-1" d="M412.36,97.65c-7.5-.43-16-1.45-25.48-2.73l-.75-.08c-10-1.19-20.27-2.47-30.4-3.15l.14-2.54c10.22.6,20.52,1.88,30.57,3.16l.75.08c9.45,1.19,17.88,2.25,25.38,2.64Z"/><path class="cls-1" d="M289.89,108.38l-2-1.5c4.34-5.62,8.09-10,11.66-14,10.9-11.83,21.64-19.15,33.81-23.07l.26-.09a204.23,204.23,0,0,1,37.22-7.67c12.35-1.49,24.95-2.46,37-3.31l1.28-.09c12.35-.89,23.91-1.74,35-3.19l.34,2.56c-11.16,1.44-22.82,2.3-35.17,3.15l-1.28.08c-12.09.86-24.61,1.79-37,3.32-14.48,1.79-26.57,4.27-36.79,7.58l-.25.09C322.34,76,312,83.17,301.3,94.67,297.89,98.41,294.24,102.84,289.89,108.38Z"/><path class="cls-1" d="M287.59,95.35,285.44,94c2.3-3.58,4.35-6.65,6.3-9.37C302,70.39,312.1,60.77,323.85,54.3l.17-.08a2.34,2.34,0,0,0,.43-.26c8.94-4.94,19.75-9.29,32.87-13.49h.08c11.16-3.49,22.31-6.3,35.69-9.62l.75-.17c11-2.72,21.37-5.25,31.25-8.24l.75,2.38c-9.87,3-20.35,5.62-31.34,8.35l-.75.17c-13.33,3.37-24.49,6.14-35.64,9.63H358c-12.94,4.09-23.59,8.43-32.45,13.29-.17.09-.25.17-.34.17l-.16.08c-11.33,6.31-21.3,15.67-31.26,29.64C291.94,88.79,289.89,91.86,287.59,95.35Z"/><path class="cls-1" d="M280,67l-2.21-1.28a99.52,99.52,0,0,1,13.54-18.82c.43-.43.85-.94,1.28-1.36a117.7,117.7,0,0,1,21.46-16.87l.25-.16c7.76-4.95,16.1-9.37,24.61-13.88l1.28-.69c6.9-3.66,13.49-7.07,19.48-10.56L361,5.62c-6.13,3.57-12.69,7-19.59,10.64l-1.27.69c-8.61,4.49-16.95,8.93-24.72,13.88l-.26.16a110.4,110.4,0,0,0-20.82,16.33l-1.27,1.27A113.86,113.86,0,0,0,280,67Z"/><path class="cls-1" d="M247.23,38.8l-2.38-.94c.94-2.3,2.05-4.6,3.4-7.49,2.3-4.68,4.86-9.37,7.25-13.71l.84-1.45c2.14-3.91,4.43-7.92,6.39-11.84L265,4.49c-2,3.92-4.27,8-6.39,11.93l-.85,1.45c-2.39,4.34-4.94,8.94-7.24,13.63C249.18,34.29,248.08,36.59,247.23,38.8Z"/><path class="cls-1" d="M185.05,49.36c-1.7-2-3.57-3.83-5.62-5.88-3.49-3.49-7.15-6.74-11.24-10.38l-1.12-1c-3.58-3.22-7-6.21-10.22-9.36L158.66,21c3.15,3.07,6.55,6.13,10.13,9.28l1.11.94c4.09,3.66,7.75,7,11.33,10.48,2,2,3.91,4,5.7,6Z"/><path class="cls-1" d="M319.35,94.16a112.29,112.29,0,0,1-21.63,11.41l-1.19.43c-2.38.93-4.77,1.87-7.33,2.72l-2.78,1-.87.3-2.13.68.42-2.21a5.48,5.48,0,0,0,.1-.56c-2.62.87-5.46,1.74-8.53,2.69-5.45,1.61-11.33,3.14-17.8,4.68s-13.2,3-20.18,4.25q-4.73.9-8.43,1.5c-2.38.34-5.28.86-8.52,1.36-7.32,1.2-13.88,2.13-20.09,2.81-6.65.75-12.95,1.37-18.91,1.71-2.72.15-5.51.23-8.18.3H173c.12.22.25.42.38.62l1.17,1.85h.17c1.59,0,3.17-.11,4.73-.18l2.37-.13c6-.34,12.35-.94,19-1.7,6.22-.68,12.77-1.62,20.18-2.82,1.37-.17,2.68-.37,3.93-.57l2.15-.36.75-.14,1.67-.28c2.47-.43,5.36-.94,8.51-1.54,7.07-1.28,13.89-2.73,20.36-4.25q4.32-1,8.29-2.08h.15c3.31-.88,6.47-1.78,9.53-2.67,3.31-.93,6.39-1.95,9.28-2.89.25-.09.51-.17.75-.27,1-.33,1.95-.67,2.9-1,2.56-.85,4.94-1.79,7.32-2.73l1.2-.42a112.85,112.85,0,0,0,21.63-11.41c8.47-2.38,19.14-3.23,32.69-2.65l.1-.07C338.64,90.92,327.87,91.78,319.35,94.16Zm-156.93,33-.55.09h0c-1.57,0-3.09-.12-4.58-.22-1.72-.09-3.37-.21-5-.38-3.26-.29-6.49-.75-9.7-1.36h0a68.44,68.44,0,0,1-8.46-2.13l-.26-.08h-.26c-1.59.18-3.2.39-4.86.68h0c-8.75,1.46-18.39,4.39-29.79,9.19l-2.79,1.19-.19.09.19.08,2.75,1c14.06,5.24,34,7.83,59.27,7.49h.48c7.36-.1,15.29-.43,23.46-1l1.45-.08c.5-.08,1.1-.08,1.7-.17l.68-.09c3.41-.25,6.74-.51,10-.85,2-.16,3.84-.42,5.62-.59l3.66-.43c1.62-.17,3.24-.43,4.78-.6l.42-.08q7.66-.9,14.82-2.05c2.55-.33,4.69-.68,6.47-1s4-.69,6.13-1.2c5-.93,10-2,14.91-3.07,1.7-.33,3.4-.68,5.19-1.1l3.49-.85c1.62-.43,3.24-.75,4.94-1.19,3.07-.69,6.22-1.54,9.45-2.39l2-.51c.75-.17,1.45-.42,2.21-.6l.27-.09c7.71-2.18,15.17-4.44,22.15-6.78l.32-.11h.09c23.88-8.1,41.86-17,53.55-26.61l2.3-1.89.16-.15-3.24-.17c-15.83-1-27.67-.17-37.13,2.56l-.25.08-.25.17a106.54,106.54,0,0,1-21.3,11.24l-1.19.43c-2.3.93-4.76,1.87-7.23,2.72l-1.15.41h0l-2.39.84-.67.24c-2.62.87-5.46,1.74-8.53,2.69-5.45,1.61-11.33,3.14-17.8,4.68s-13.2,3-20.18,4.25q-4.73.9-8.43,1.5c-2.38.34-5.28.86-8.52,1.36-7.32,1.2-13.88,2.13-20.09,2.81-6.65.75-12.95,1.37-18.91,1.71-2.72.15-5.51.23-8.18.3h-1c-.69,0-1.37.06-2,.08h-2.29c-1.3,0-2.66-.06-4-.08h-1v.18H164c1.38,0,2.76.08,4.08.08h2.13l-.05-.09h.05c.33.6.69,1.18,1,1.78l.37.61h3.11c1.59-.05,3.17-.12,4.73-.19l2.37-.13c6-.34,12.34-.93,19-1.7C207,127,213.59,126.1,221,124.9c1.37-.17,2.68-.37,3.92-.57l2.15-.36.75-.14,1.67-.28c2.48-.43,5.37-.94,8.52-1.54,7.07-1.28,13.88-2.72,20.36-4.25q4.32-1,8.29-2.08h.14c3.32-.87,6.48-1.77,9.53-2.66,3.32-.94,6.39-2,9.29-2.9.25-.09.5-.17.74-.27,1-.33,2-.66,2.91-1,2.56-.85,4.94-1.79,7.32-2.73l1.2-.42a112.59,112.59,0,0,0,21.63-11.41c8.47-2.38,19.14-3.23,32.69-2.65h.18c-11.41,8.6-28.19,16.61-50,24h-.08l-3.37,1.13c-6.07,2-12.43,3.89-19,5.69l-.26.08c-.75.18-1.44.43-2.25.6l-2.38.6c-3.06.85-6.13,1.61-9,2.3-1.7.42-3.31.75-4.93,1.19l-3.49.85c-1.79.34-3.5.75-5.2,1.11-4.94,1-9.88,2.05-14.82,3-2.39.42-4.49.75-6.39,1.1s-3.91.68-6.38,1C220,135,215,135.76,210,136.36l-.42.08c-1.5.26-3.15.43-4.77.6l-3.66.42c-1.79.26-3.66.43-5.54.6-3.23.26-6.55.6-9.88.85l-.59.09c-.6.08-1.11.08-1.7.17l-1.46.08c-7.38.53-14.51.86-21.25,1l-2.59.05h-.59c-22.7.22-41-1.81-54.4-6.16l-.12,0h-.07c11.75-4.73,21.41-7.38,30.57-8.4h-.09a44,44,0,0,1-4.58-1.7c1.65-.28,3.26-.51,4.84-.69h0l.24,2.39c.75-.09,1.44-.09,2.25-.17a49.86,49.86,0,0,1,6-.1,99.2,99.2,0,0,0,10.57,1.5c1.5.14,3,.26,4.58.35s3.07.16,4.65.21H162l.29-.06.32,0,.25,0"/><path class="cls-1" d="M163.43,86.58a99.1,99.1,0,0,0-18.57-12.74l-2-1a118.93,118.93,0,0,0-25.47-8.52c-8.69-2-17.8-3.41-27.09-4.85l-1.49-.26C81,58,73.69,56.89,66.62,55.53l.52-2.47c7.06,1.36,14.39,2.47,22,3.66l1.5.26c9.37,1.45,18.48,2.8,27.26,4.85a122,122,0,0,1,26,8.69l2.05,1a98.12,98.12,0,0,1,19.08,13.12Z"/><path class="cls-1" d="M165.81,116.87c-3.41-2.64-6.55-5-9.62-7.15C142.31,100,130,94.22,117.27,91.66l-.85-.17c-9.74-1.87-21-2.55-34.75-2h-.08c-12.35.42-25.21,1.7-36.54,2.81h-.26C33.05,93.45,22,94.56,11.67,95l-.09-2.55c10.22-.42,21.3-1.5,33-2.72h.25C56.13,88.6,69,87.32,81.42,86.9h.09c13.88-.52,25.48.16,35.34,2.13l.86.16c13,2.65,25.72,8.52,39.85,18.48,3.07,2.25,6.3,4.5,9.74,7.24Z"/><path class="cls-1" d="M168.88,127.45h-.75c-1.32,0-2.7-.06-4.09-.07l-.12-.09h0c-2.93-1.85-5.6-3.43-8.13-4.84-1.13-.63-2.25-1.24-3.32-1.81l-.3-.15h0c-13.15-7-24.78-10.42-36.55-10.86-.54,0-1.1,0-1.64,0H112.9c-10,0-21.55,1.46-35.21,4.34l-1.28.26-1,.23c-11.52,2.46-23.12,5.68-33.53,8.58l-1.4.38-1.25.33h0c-12.1,3.41-23.51,6.56-34.16,8.77L4.5,130c10.48-2.21,21.86-5.33,33.81-8.72l.17-.05,1.27-.34,1.18-.33c10.44-2.89,22.17-6.11,33.71-8.7l1.13-.26,1.17-.24c13.53-2.9,25-4.36,35-4.43h2.51c12.11.26,24,3.53,37.12,10.28l2,1,.57.31c4.32,2.31,9.05,5.17,14.63,8.8h0Z"/><path class="cls-1" d="M162.67,127.26l-.33,0-.28.06H162c-1.58-.05-3.13-.12-4.66-.21s-3.09-.21-4.57-.35l-.51-.12c-.23-.06-.45-.11-.68-.15a52.76,52.76,0,0,0-8.4-1.18h0l-.6,0h-.36a49.93,49.93,0,0,0-6,.1c-.75.08-1.44.08-2.25.17l-.24-2.39V123a22.41,22.41,0,0,1,2.3-.16,56.69,56.69,0,0,1,18.61,1.81q2.84.75,5.77,1.75l.74.27h.18l.25.17.7.27.17.06a.86.86,0,0,0,.23.06Z"/><path class="cls-1" d="M48.55,159.31,47.6,157c7.33-3.07,15-6.82,23.09-10.82l.6-.26c9-4.42,18.3-9,27.67-12.94l.94,2.3c-9.28,3.92-18.57,8.43-27.51,12.86l-.59.34C63.62,152.49,56,156.24,48.55,159.31Z"/><path class="cls-1" d="M233.75,148.23c-1.19.18-2.47.43-3.83.6-2.56.42-5.45.85-8.61,1.36l-.75.09-3.92.51c-1.36.17-2.8.43-4.33.59H212c-2.29.35-4.76.6-7.24,1h-.25l-3.15.33a571.76,571.76,0,0,1-57.45,3.92l-3,.08,2-2.24a198.85,198.85,0,0,1,14.39-14.06l.34-.34h.42c8.43-.09,17.55-.51,27-1.28l.69-.08c3.4-.25,6.74-.6,9.88-.85,2-.18,3.92-.43,5.79-.6l3.41-.42c1.62-.18,3.14-.35,4.59-.6l.52-.08c5.11-.6,10-1.37,14.73-2.05q3.71-.51,6.39-1c1.87-.34,4-.68,6.38-1.11,4.94-.93,9.88-2,14.82-3,1.7-.35,3.41-.75,5.19-1.11l3.84-.94c1.53-.34,3.06-.68,4.6-1.11,2.89-.68,5.87-1.44,8.93-2.3h0l2.39-.59c8.69-2.38,17-4.86,24.78-7.49l.52-.09.33.09a206.12,206.12,0,0,1,18.66,8.76l2.72,1.37-2.86,1a579.6,579.6,0,0,1-56,15.24l-5.1,1.11c-1.88.43-3.67.75-5.37,1.11l-1.62.34-2.72.51c-.94.17-2,.42-2.9.6l-1.61.33c-3.16.6-6,1.11-8.61,1.62A18.54,18.54,0,0,1,233.75,148.23Zm-29.47,1.71h.34c2.39-.26,4.77-.6,7.07-.94H212c1.44-.17,2.9-.43,4.25-.59s2.73-.35,3.92-.52l.68-.08q4.74-.76,8.52-1.28a35.07,35.07,0,0,1,3.83-.6c1.2-.17,2.47-.42,3.75-.68,2.55-.42,5.44-1,8.6-1.62l1.61-.33c.94-.17,1.88-.35,2.9-.6l2.64-.51,1.62-.35c1.7-.33,3.49-.75,5.36-1.1l5-1.11c19-4.26,36.8-9,52.89-14.23-4.94-2.56-10.13-5-15.24-7.07-7.66,2.56-15.93,5.11-24.53,7.41l-2,.51c-3.24.86-6.38,1.71-9.45,2.39-1.53.34-3.07.74-4.6,1.1l-3.92.94c-1.79.43-3.49.75-5.19,1.11-4.94,1.11-10,2.13-14.91,3.06-2.38.43-4.49.86-6.38,1.11s-3.92.68-6.47,1q-7.17,1.16-14.82,2.05l-.51.09c-1.54.16-3.07.33-4.69.59l-3.4.43c-1.88.17-3.84.42-5.88.6-3.23.33-6.56.59-10,.84l-.68.09c-9.38.68-18.31,1.1-26.66,1.28-4,3.49-8,7.49-11.75,11.41,16.77-.34,35-1.71,54.16-3.92l3.58-.51Z"/><path class="cls-1" d="M132.17,169.27l-1.7-1.88c3.07-2.72,6.64-6.55,10.39-10.55l2.13-2.3,1.87,1.79-2.12,2.24C138.9,162.63,135.33,166.45,132.17,169.27Z"/><rect class="cls-1" x="292.96" y="103.39" width="2.55" height="18.65" transform="translate(63.53 327.32) rotate(-63.89)"/><path class="cls-1" d="M171.34,129.77l-.09.09h0c-.84.81-6.55,6.38-10.49,10.32l-.12.13-1.37,1.37-1.86-1.29.17-.16.17-.18s8.37-9,10.38-10.13h0l3.08-.15Z"/><path class="cls-1" d="M172.37,129.75h-1.16l-3.08.14H165c-1,0-2-.06-2.92-.1h-3.3a2.94,2.94,0,0,1-.42,0h-.68a120.2,120.2,0,0,1-16.49-2c-1-.2-1.94-.42-2.89-.64l-1.17-.5c-1.13-.3-2.24-.62-3.28-1l-.25-.06h-.09a41.81,41.81,0,0,1-4.58-1.7c1.65-.28,3.26-.51,4.84-.68h0l.24,2.38c.75-.08,1.44-.08,2.25-.16a47.88,47.88,0,0,1,6-.1,104.6,104.6,0,0,0,10.57,1.5c1.5.14,3,.25,4.58.35s3.07.16,4.65.21h.08l.29-.06.32,0,.25,0v.1h1.11c1.38,0,2.76.08,4.08.08h2.13l-.05-.09h.05c.33.6.69,1.18,1,1.78l.37.61Z"/><path class="cls-1" d="M287.29,105c-.09.6-.18,1.21-.29,1.81-.13.75-.29,1.54-.46,2.31l-.12.54,0,.12v.05l-.68.23c-3.33,1.11-6.59,2.09-9.33,2.92-3,.88-6.15,1.75-9.55,2.62h-.15c-2.6.68-5.35,1.35-8.24,2-7.31,1.76-14.09,3.1-20.32,4.27-2.63.5-5.35,1-8.54,1.54l-1.72.31-.75.13-2.15.36c-1.22.19-2.55.38-3.93.57-7.2,1.17-13.83,2.09-20.22,2.81-6.56.75-13,1.31-19.06,1.71l-2.24.13c-1.56.08-3.14.14-4.73.19h-3.15l-.38-.61c-.35-.6-.7-1.18-1-1.77h0c-.59-1-1.14-2.06-1.65-3.09-.2-.38-.38-.75-.56-1.14s-.36-.75-.54-1.17c-.43-.93-.81-1.85-1.16-2.77-.18-.47-.36-.94-.53-1.41s-.34-1-.51-1.5l-.36-1.06c-.45-1.5-.88-3-1.26-4.63-.1-.4-.19-.82-.29-1.24a.41.41,0,0,0,0-.22c-.09-.43-.18-.85-.27-1.3s-.14-.71-.2-1.08l-.18-1.12-.34-2.25c0-.16,0-.32-.05-.48a61.59,61.59,0,0,1,.57-17.57,62.32,62.32,0,0,1,9.64-24.05c.75-1.17,1.59-2.3,2.44-3.42h0a68.11,68.11,0,0,1,10-10.39,63.56,63.56,0,0,1,23.63-12.11c1.33-.36,2.67-.67,4-.93l3.1-.53a62.68,62.68,0,0,1,57.93,22.77c.36.44.74.89,1.06,1.34s.65.86,1,1.28.75,1,1.08,1.5q1.59,2.34,3,4.81a63.37,63.37,0,0,1,6.34,16.54c.16.52.32,1,.44,1.54.18.69.33,1.38.44,2.08v.13c.12.75.24,1.5.33,2.25.09.55.15,1.11.21,1.67s.09,1.11.14,1.67.07,1.08.1,1.65.05,1,.07,1.49v.13A57.53,57.53,0,0,1,287.29,105Z"/><path class="cls-2" d="M514.31,83.17h27.22v2.17a44.82,44.82,0,0,1-1.75,13.14,28,28,0,0,1-5.76,9.9,29.83,29.83,0,0,1-23.33,10.32,32.11,32.11,0,0,1-23.68-10,33.12,33.12,0,0,1-9.85-24.06,34.25,34.25,0,0,1,34.42-34.34A33.44,33.44,0,0,1,526,53.48a41.58,41.58,0,0,1,12.59,10.24l-7.08,6.78q-8.12-10.78-19.75-10.79a23.59,23.59,0,0,0-17.54,7.21,24.06,24.06,0,0,0-7.08,17.74A23.35,23.35,0,0,0,495,102.79q7.38,6.61,16,6.61a19.84,19.84,0,0,0,13.18-5,17.58,17.58,0,0,0,6.53-11.94H514.31Z"/><path class="cls-2" d="M583.33,89.4l20.39,28.06H591.56L572.75,90.51H571v26.95H561V51.6h11.64q13.05,0,18.86,4.91a18,18,0,0,1,6.39,14.42,18.74,18.74,0,0,1-4,12A17.93,17.93,0,0,1,583.33,89.4ZM571,81.85h3.15q14.11,0,14.12-10.8,0-10.11-13.73-10.11H571Z"/><path class="cls-2" d="M661,101.47h-28.2l-7.34,16H614.8l32.59-70,31.44,70H668Zm-4-9.34-9.77-22.4L637,92.13Z"/><path class="cls-2" d="M690.47,51.6l18.22,45.64L727.16,51.6H738l-29.56,70.81L679.59,51.6Z"/><path class="cls-2" d="M764.9,51.6v65.86H755V51.6Z"/><path class="cls-2" d="M812.87,60.94v56.52h-9.94V60.94H787.79V51.6H828v9.34Z"/><path class="cls-2" d="M861.42,89,839.93,51.6h11.43l15.06,26.32,15.1-26.32H893L871.36,89v28.45h-9.94Z"/><path class="cls-2" d="M927.5,117.46V51.6h9.9a42.92,42.92,0,0,1,10.53,1,15.79,15.79,0,0,1,6.7,3.45A17.93,17.93,0,0,1,959,62.35,19,19,0,0,1,960.69,70a15.58,15.58,0,0,1-5.42,12,15.85,15.85,0,0,1,8.27,6.27,18.54,18.54,0,0,1-2.38,23.37,18.07,18.07,0,0,1-7.38,4.57,43.21,43.21,0,0,1-11.22,1.23Zm9.94-37.58h3.11c3.7,0,6.41-.81,8.13-2.45s2.58-4,2.58-7.23-.88-5.45-2.65-7.06-4.32-2.41-7.67-2.41h-3.5Zm0,28.24h6.14q6.74,0,9.9-2.64a9.13,9.13,0,0,0,3.32-7.25,9.26,9.26,0,0,0-3.2-7.17q-3.11-2.86-11.13-2.86h-5Z"/><path class="cls-2" d="M1010.2,89.4l20.39,28.06h-12.16L999.62,90.51h-1.79v26.95h-9.94V51.6h11.65q13.05,0,18.85,4.91a18,18,0,0,1,6.4,14.42,18.75,18.75,0,0,1-4,12A17.9,17.9,0,0,1,1010.2,89.4Zm-12.37-7.55H1001q14.12,0,14.12-10.8,0-10.11-13.74-10.11h-3.54Z"/><path class="cls-2" d="M1059.16,51.6v65.86h-9.94V51.6Z"/><path class="cls-2" d="M1085.47,117.46V51.6h13.82q9.95,0,15.7,2a29.47,29.47,0,0,1,11.22,6.53q10.18,9.3,10.19,24.44t-10.62,24.57a31,31,0,0,1-11.17,6.53q-5.47,1.83-15.49,1.83Zm9.94-9.34h4.48a37.32,37.32,0,0,0,11.13-1.41,22.52,22.52,0,0,0,8-4.73q7.34-6.69,7.34-17.45T1119.13,67q-6.53-6-19.24-6h-4.48Z"/><path class="cls-2" d="M1186.26,83.17h27.22v2.17a44.82,44.82,0,0,1-1.75,13.14,28,28,0,0,1-5.76,9.9,29.83,29.83,0,0,1-23.33,10.32,32.11,32.11,0,0,1-23.68-10,33.12,33.12,0,0,1-9.85-24.06,34.25,34.25,0,0,1,34.42-34.34A33.44,33.44,0,0,1,1198,53.48a41.58,41.58,0,0,1,12.59,10.24l-7.08,6.78q-8.12-10.78-19.75-10.79a23.59,23.59,0,0,0-17.54,7.21,24.06,24.06,0,0,0-7.08,17.74,23.35,23.35,0,0,0,7.89,18.13q7.38,6.61,16,6.61a19.86,19.86,0,0,0,13.18-5,17.58,17.58,0,0,0,6.53-11.94h-16.43Z"/><path class="cls-2" d="M1267.56,60.94h-26.4V76.77h25.63v9.34h-25.63v22h26.4v9.34h-36.34V51.6h36.34Z"/></svg>